<?xml version="1.0" encoding="utf-8" standalone="no"?>
<!DOCTYPE svg PUBLIC "-//W3C//DTD SVG 1.1//EN"
  "http://www.w3.org/Graphics/SVG/1.1/DTD/svg11.dtd">
<!-- Created with matplotlib (https://matplotlib.org/) -->
<svg height="345.6pt" version="1.1" viewBox="0 0 460.8 345.6" width="460.8pt" xmlns="http://www.w3.org/2000/svg" xmlns:xlink="http://www.w3.org/1999/xlink">
 <metadata>
  <rdf:RDF xmlns:cc="http://creativecommons.org/ns#" xmlns:dc="http://purl.org/dc/elements/1.1/" xmlns:rdf="http://www.w3.org/1999/02/22-rdf-syntax-ns#">
   <cc:Work>
    <dc:type rdf:resource="http://purl.org/dc/dcmitype/StillImage"/>
    <dc:date>2021-01-10T14:44:20.797902</dc:date>
    <dc:format>image/svg+xml</dc:format>
    <dc:creator>
     <cc:Agent>
      <dc:title>Matplotlib v3.3.3, https://matplotlib.org/</dc:title>
     </cc:Agent>
    </dc:creator>
   </cc:Work>
  </rdf:RDF>
 </metadata>
 <defs>
  <style type="text/css">*{stroke-linecap:butt;stroke-linejoin:round;}</style>
 </defs>
 <g id="figure_1">
  <g id="patch_1">
   <path d="M 0 345.6 
L 460.8 345.6 
L 460.8 0 
L 0 0 
z
" style="fill:#ffffff;"/>
  </g>
  <g id="axes_1">
   <g id="patch_2">
    <path d="M 57.6 307.584 
L 414.72 307.584 
L 414.72 41.472 
L 57.6 41.472 
z
" style="fill:#7d9051;"/>
   </g>
   <g id="matplotlib.axis_1">
    <g id="xtick_1">
     <g id="line2d_1">
      <defs>
       <path d="M 0 0 
L 0 3.5 
" id="mafe99a21d8" style="stroke:#000000;stroke-width:0.8;"/>
      </defs>
      <g>
       <use style="stroke:#000000;stroke-width:0.8;" x="65.039651" xlink:href="#mafe99a21d8" y="307.584"/>
      </g>
     </g>
     <g id="text_1">
      <!-- 40 -->
      <g transform="translate(58.677151 322.182437)scale(0.1 -0.1)">
       <defs>
        <path d="M 37.796875 64.3125 
L 12.890625 25.390625 
L 37.796875 25.390625 
z
M 35.203125 72.90625 
L 47.609375 72.90625 
L 47.609375 25.390625 
L 58.015625 25.390625 
L 58.015625 17.1875 
L 47.609375 17.1875 
L 47.609375 0 
L 37.796875 0 
L 37.796875 17.1875 
L 4.890625 17.1875 
L 4.890625 26.703125 
z
" id="DejaVuSans-52"/>
        <path d="M 31.78125 66.40625 
Q 24.171875 66.40625 20.328125 58.90625 
Q 16.5 51.421875 16.5 36.375 
Q 16.5 21.390625 20.328125 13.890625 
Q 24.171875 6.390625 31.78125 6.390625 
Q 39.453125 6.390625 43.28125 13.890625 
Q 47.125 21.390625 47.125 36.375 
Q 47.125 51.421875 43.28125 58.90625 
Q 39.453125 66.40625 31.78125 66.40625 
z
M 31.78125 74.21875 
Q 44.046875 74.21875 50.515625 64.515625 
Q 56.984375 54.828125 56.984375 36.375 
Q 56.984375 17.96875 50.515625 8.265625 
Q 44.046875 -1.421875 31.78125 -1.421875 
Q 19.53125 -1.421875 13.0625 8.265625 
Q 6.59375 17.96875 6.59375 36.375 
Q 6.59375 54.828125 13.0625 64.515625 
Q 19.53125 74.21875 31.78125 74.21875 
z
" id="DejaVuSans-48"/>
       </defs>
       <use xlink:href="#DejaVuSans-52"/>
       <use x="63.623047" xlink:href="#DejaVuSans-48"/>
      </g>
     </g>
    </g>
    <g id="xtick_2">
     <g id="line2d_2">
      <g>
       <use style="stroke:#000000;stroke-width:0.8;" x="134.129565" xlink:href="#mafe99a21d8" y="307.584"/>
      </g>
     </g>
     <g id="text_2">
      <!-- 60 -->
      <g transform="translate(127.767065 322.182437)scale(0.1 -0.1)">
       <defs>
        <path d="M 33.015625 40.375 
Q 26.375 40.375 22.484375 35.828125 
Q 18.609375 31.296875 18.609375 23.390625 
Q 18.609375 15.53125 22.484375 10.953125 
Q 26.375 6.390625 33.015625 6.390625 
Q 39.65625 6.390625 43.53125 10.953125 
Q 47.40625 15.53125 47.40625 23.390625 
Q 47.40625 31.296875 43.53125 35.828125 
Q 39.65625 40.375 33.015625 40.375 
z
M 52.59375 71.296875 
L 52.59375 62.3125 
Q 48.875 64.0625 45.09375 64.984375 
Q 41.3125 65.921875 37.59375 65.921875 
Q 27.828125 65.921875 22.671875 59.328125 
Q 17.53125 52.734375 16.796875 39.40625 
Q 19.671875 43.65625 24.015625 45.921875 
Q 28.375 48.1875 33.59375 48.1875 
Q 44.578125 48.1875 50.953125 41.515625 
Q 57.328125 34.859375 57.328125 23.390625 
Q 57.328125 12.15625 50.6875 5.359375 
Q 44.046875 -1.421875 33.015625 -1.421875 
Q 20.359375 -1.421875 13.671875 8.265625 
Q 6.984375 17.96875 6.984375 36.375 
Q 6.984375 53.65625 15.1875 63.9375 
Q 23.390625 74.21875 37.203125 74.21875 
Q 40.921875 74.21875 44.703125 73.484375 
Q 48.484375 72.75 52.59375 71.296875 
z
" id="DejaVuSans-54"/>
       </defs>
       <use xlink:href="#DejaVuSans-54"/>
       <use x="63.623047" xlink:href="#DejaVuSans-48"/>
      </g>
     </g>
    </g>
    <g id="xtick_3">
     <g id="line2d_3">
      <g>
       <use style="stroke:#000000;stroke-width:0.8;" x="203.219479" xlink:href="#mafe99a21d8" y="307.584"/>
      </g>
     </g>
     <g id="text_3">
      <!-- 80 -->
      <g transform="translate(196.856979 322.182437)scale(0.1 -0.1)">
       <defs>
        <path d="M 31.78125 34.625 
Q 24.75 34.625 20.71875 30.859375 
Q 16.703125 27.09375 16.703125 20.515625 
Q 16.703125 13.921875 20.71875 10.15625 
Q 24.75 6.390625 31.78125 6.390625 
Q 38.8125 6.390625 42.859375 10.171875 
Q 46.921875 13.96875 46.921875 20.515625 
Q 46.921875 27.09375 42.890625 30.859375 
Q 38.875 34.625 31.78125 34.625 
z
M 21.921875 38.8125 
Q 15.578125 40.375 12.03125 44.71875 
Q 8.5 49.078125 8.5 55.328125 
Q 8.5 64.0625 14.71875 69.140625 
Q 20.953125 74.21875 31.78125 74.21875 
Q 42.671875 74.21875 48.875 69.140625 
Q 55.078125 64.0625 55.078125 55.328125 
Q 55.078125 49.078125 51.53125 44.71875 
Q 48 40.375 41.703125 38.8125 
Q 48.828125 37.15625 52.796875 32.3125 
Q 56.78125 27.484375 56.78125 20.515625 
Q 56.78125 9.90625 50.3125 4.234375 
Q 43.84375 -1.421875 31.78125 -1.421875 
Q 19.734375 -1.421875 13.25 4.234375 
Q 6.78125 9.90625 6.78125 20.515625 
Q 6.78125 27.484375 10.78125 32.3125 
Q 14.796875 37.15625 21.921875 38.8125 
z
M 18.3125 54.390625 
Q 18.3125 48.734375 21.84375 45.5625 
Q 25.390625 42.390625 31.78125 42.390625 
Q 38.140625 42.390625 41.71875 45.5625 
Q 45.3125 48.734375 45.3125 54.390625 
Q 45.3125 60.0625 41.71875 63.234375 
Q 38.140625 66.40625 31.78125 66.40625 
Q 25.390625 66.40625 21.84375 63.234375 
Q 18.3125 60.0625 18.3125 54.390625 
z
" id="DejaVuSans-56"/>
       </defs>
       <use xlink:href="#DejaVuSans-56"/>
       <use x="63.623047" xlink:href="#DejaVuSans-48"/>
      </g>
     </g>
    </g>
    <g id="xtick_4">
     <g id="line2d_4">
      <g>
       <use style="stroke:#000000;stroke-width:0.8;" x="272.309393" xlink:href="#mafe99a21d8" y="307.584"/>
      </g>
     </g>
     <g id="text_4">
      <!-- 100 -->
      <g transform="translate(262.765643 322.182437)scale(0.1 -0.1)">
       <defs>
        <path d="M 12.40625 8.296875 
L 28.515625 8.296875 
L 28.515625 63.921875 
L 10.984375 60.40625 
L 10.984375 69.390625 
L 28.421875 72.90625 
L 38.28125 72.90625 
L 38.28125 8.296875 
L 54.390625 8.296875 
L 54.390625 0 
L 12.40625 0 
z
" id="DejaVuSans-49"/>
       </defs>
       <use xlink:href="#DejaVuSans-49"/>
       <use x="63.623047" xlink:href="#DejaVuSans-48"/>
       <use x="127.246094" xlink:href="#DejaVuSans-48"/>
      </g>
     </g>
    </g>
    <g id="xtick_5">
     <g id="line2d_5">
      <g>
       <use style="stroke:#000000;stroke-width:0.8;" x="341.399307" xlink:href="#mafe99a21d8" y="307.584"/>
      </g>
     </g>
     <g id="text_5">
      <!-- 120 -->
      <g transform="translate(331.855557 322.182437)scale(0.1 -0.1)">
       <defs>
        <path d="M 19.1875 8.296875 
L 53.609375 8.296875 
L 53.609375 0 
L 7.328125 0 
L 7.328125 8.296875 
Q 12.9375 14.109375 22.625 23.890625 
Q 32.328125 33.6875 34.8125 36.53125 
Q 39.546875 41.84375 41.421875 45.53125 
Q 43.3125 49.21875 43.3125 52.78125 
Q 43.3125 58.59375 39.234375 62.25 
Q 35.15625 65.921875 28.609375 65.921875 
Q 23.96875 65.921875 18.8125 64.3125 
Q 13.671875 62.703125 7.8125 59.421875 
L 7.8125 69.390625 
Q 13.765625 71.78125 18.9375 73 
Q 24.125 74.21875 28.421875 74.21875 
Q 39.75 74.21875 46.484375 68.546875 
Q 53.21875 62.890625 53.21875 53.421875 
Q 53.21875 48.921875 51.53125 44.890625 
Q 49.859375 40.875 45.40625 35.40625 
Q 44.1875 33.984375 37.640625 27.21875 
Q 31.109375 20.453125 19.1875 8.296875 
z
" id="DejaVuSans-50"/>
       </defs>
       <use xlink:href="#DejaVuSans-49"/>
       <use x="63.623047" xlink:href="#DejaVuSans-50"/>
       <use x="127.246094" xlink:href="#DejaVuSans-48"/>
      </g>
     </g>
    </g>
    <g id="xtick_6">
     <g id="line2d_6">
      <g>
       <use style="stroke:#000000;stroke-width:0.8;" x="410.489221" xlink:href="#mafe99a21d8" y="307.584"/>
      </g>
     </g>
     <g id="text_6">
      <!-- 140 -->
      <g transform="translate(400.945471 322.182437)scale(0.1 -0.1)">
       <use xlink:href="#DejaVuSans-49"/>
       <use x="63.623047" xlink:href="#DejaVuSans-52"/>
       <use x="127.246094" xlink:href="#DejaVuSans-48"/>
      </g>
     </g>
    </g>
   </g>
   <g id="matplotlib.axis_2">
    <g id="ytick_1">
     <g id="line2d_7">
      <defs>
       <path d="M 0 0 
L -3.5 0 
" id="m25046b2695" style="stroke:#000000;stroke-width:0.8;"/>
      </defs>
      <g>
       <use style="stroke:#000000;stroke-width:0.8;" x="57.6" xlink:href="#m25046b2695" y="279.562616"/>
      </g>
     </g>
     <g id="text_7">
      <!-- 90 -->
      <g transform="translate(37.875 283.361835)scale(0.1 -0.1)">
       <defs>
        <path d="M 10.984375 1.515625 
L 10.984375 10.5 
Q 14.703125 8.734375 18.5 7.8125 
Q 22.3125 6.890625 25.984375 6.890625 
Q 35.75 6.890625 40.890625 13.453125 
Q 46.046875 20.015625 46.78125 33.40625 
Q 43.953125 29.203125 39.59375 26.953125 
Q 35.25 24.703125 29.984375 24.703125 
Q 19.046875 24.703125 12.671875 31.3125 
Q 6.296875 37.9375 6.296875 49.421875 
Q 6.296875 60.640625 12.9375 67.421875 
Q 19.578125 74.21875 30.609375 74.21875 
Q 43.265625 74.21875 49.921875 64.515625 
Q 56.59375 54.828125 56.59375 36.375 
Q 56.59375 19.140625 48.40625 8.859375 
Q 40.234375 -1.421875 26.421875 -1.421875 
Q 22.703125 -1.421875 18.890625 -0.6875 
Q 15.09375 0.046875 10.984375 1.515625 
z
M 30.609375 32.421875 
Q 37.25 32.421875 41.125 36.953125 
Q 45.015625 41.5 45.015625 49.421875 
Q 45.015625 57.28125 41.125 61.84375 
Q 37.25 66.40625 30.609375 66.40625 
Q 23.96875 66.40625 20.09375 61.84375 
Q 16.21875 57.28125 16.21875 49.421875 
Q 16.21875 41.5 20.09375 36.953125 
Q 23.96875 32.421875 30.609375 32.421875 
z
" id="DejaVuSans-57"/>
       </defs>
       <use xlink:href="#DejaVuSans-57"/>
       <use x="63.623047" xlink:href="#DejaVuSans-48"/>
      </g>
     </g>
    </g>
    <g id="ytick_2">
     <g id="line2d_8">
      <g>
       <use style="stroke:#000000;stroke-width:0.8;" x="57.6" xlink:href="#m25046b2695" y="245.017659"/>
      </g>
     </g>
     <g id="text_8">
      <!-- 100 -->
      <g transform="translate(31.5125 248.816878)scale(0.1 -0.1)">
       <use xlink:href="#DejaVuSans-49"/>
       <use x="63.623047" xlink:href="#DejaVuSans-48"/>
       <use x="127.246094" xlink:href="#DejaVuSans-48"/>
      </g>
     </g>
    </g>
    <g id="ytick_3">
     <g id="line2d_9">
      <g>
       <use style="stroke:#000000;stroke-width:0.8;" x="57.6" xlink:href="#m25046b2695" y="210.472702"/>
      </g>
     </g>
     <g id="text_9">
      <!-- 110 -->
      <g transform="translate(31.5125 214.271921)scale(0.1 -0.1)">
       <use xlink:href="#DejaVuSans-49"/>
       <use x="63.623047" xlink:href="#DejaVuSans-49"/>
       <use x="127.246094" xlink:href="#DejaVuSans-48"/>
      </g>
     </g>
    </g>
    <g id="ytick_4">
     <g id="line2d_10">
      <g>
       <use style="stroke:#000000;stroke-width:0.8;" x="57.6" xlink:href="#m25046b2695" y="175.927745"/>
      </g>
     </g>
     <g id="text_10">
      <!-- 120 -->
      <g transform="translate(31.5125 179.726964)scale(0.1 -0.1)">
       <use xlink:href="#DejaVuSans-49"/>
       <use x="63.623047" xlink:href="#DejaVuSans-50"/>
       <use x="127.246094" xlink:href="#DejaVuSans-48"/>
      </g>
     </g>
    </g>
    <g id="ytick_5">
     <g id="line2d_11">
      <g>
       <use style="stroke:#000000;stroke-width:0.8;" x="57.6" xlink:href="#m25046b2695" y="141.382788"/>
      </g>
     </g>
     <g id="text_11">
      <!-- 130 -->
      <g transform="translate(31.5125 145.182007)scale(0.1 -0.1)">
       <defs>
        <path d="M 40.578125 39.3125 
Q 47.65625 37.796875 51.625 33 
Q 55.609375 28.21875 55.609375 21.1875 
Q 55.609375 10.40625 48.1875 4.484375 
Q 40.765625 -1.421875 27.09375 -1.421875 
Q 22.515625 -1.421875 17.65625 -0.515625 
Q 12.796875 0.390625 7.625 2.203125 
L 7.625 11.71875 
Q 11.71875 9.328125 16.59375 8.109375 
Q 21.484375 6.890625 26.8125 6.890625 
Q 36.078125 6.890625 40.9375 10.546875 
Q 45.796875 14.203125 45.796875 21.1875 
Q 45.796875 27.640625 41.28125 31.265625 
Q 36.765625 34.90625 28.71875 34.90625 
L 20.21875 34.90625 
L 20.21875 43.015625 
L 29.109375 43.015625 
Q 36.375 43.015625 40.234375 45.921875 
Q 44.09375 48.828125 44.09375 54.296875 
Q 44.09375 59.90625 40.109375 62.90625 
Q 36.140625 65.921875 28.71875 65.921875 
Q 24.65625 65.921875 20.015625 65.03125 
Q 15.375 64.15625 9.8125 62.3125 
L 9.8125 71.09375 
Q 15.4375 72.65625 20.34375 73.4375 
Q 25.25 74.21875 29.59375 74.21875 
Q 40.828125 74.21875 47.359375 69.109375 
Q 53.90625 64.015625 53.90625 55.328125 
Q 53.90625 49.265625 50.4375 45.09375 
Q 46.96875 40.921875 40.578125 39.3125 
z
" id="DejaVuSans-51"/>
       </defs>
       <use xlink:href="#DejaVuSans-49"/>
       <use x="63.623047" xlink:href="#DejaVuSans-51"/>
       <use x="127.246094" xlink:href="#DejaVuSans-48"/>
      </g>
     </g>
    </g>
    <g id="ytick_6">
     <g id="line2d_12">
      <g>
       <use style="stroke:#000000;stroke-width:0.8;" x="57.6" xlink:href="#m25046b2695" y="106.837831"/>
      </g>
     </g>
     <g id="text_12">
      <!-- 140 -->
      <g transform="translate(31.5125 110.63705)scale(0.1 -0.1)">
       <use xlink:href="#DejaVuSans-49"/>
       <use x="63.623047" xlink:href="#DejaVuSans-52"/>
       <use x="127.246094" xlink:href="#DejaVuSans-48"/>
      </g>
     </g>
    </g>
    <g id="ytick_7">
     <g id="line2d_13">
      <g>
       <use style="stroke:#000000;stroke-width:0.8;" x="57.6" xlink:href="#m25046b2695" y="72.292874"/>
      </g>
     </g>
     <g id="text_13">
      <!-- 150 -->
      <g transform="translate(31.5125 76.092093)scale(0.1 -0.1)">
       <defs>
        <path d="M 10.796875 72.90625 
L 49.515625 72.90625 
L 49.515625 64.59375 
L 19.828125 64.59375 
L 19.828125 46.734375 
Q 21.96875 47.46875 24.109375 47.828125 
Q 26.265625 48.1875 28.421875 48.1875 
Q 40.625 48.1875 47.75 41.5 
Q 54.890625 34.8125 54.890625 23.390625 
Q 54.890625 11.625 47.5625 5.09375 
Q 40.234375 -1.421875 26.90625 -1.421875 
Q 22.3125 -1.421875 17.546875 -0.640625 
Q 12.796875 0.140625 7.71875 1.703125 
L 7.71875 11.625 
Q 12.109375 9.234375 16.796875 8.0625 
Q 21.484375 6.890625 26.703125 6.890625 
Q 35.15625 6.890625 40.078125 11.328125 
Q 45.015625 15.765625 45.015625 23.390625 
Q 45.015625 31 40.078125 35.4375 
Q 35.15625 39.890625 26.703125 39.890625 
Q 22.75 39.890625 18.8125 39.015625 
Q 14.890625 38.140625 10.796875 36.28125 
z
" id="DejaVuSans-53"/>
       </defs>
       <use xlink:href="#DejaVuSans-49"/>
       <use x="63.623047" xlink:href="#DejaVuSans-53"/>
       <use x="127.246094" xlink:href="#DejaVuSans-48"/>
      </g>
     </g>
    </g>
   </g>
   <g id="line2d_14">
    <path clip-path="url(#pbd8ea9ced2)" d="M 85.766625 89.565352 
L 88.212408 93.755656 
L 90.668554 97.894141 
L 93.13161 101.973901 
L 95.608483 106.001843 
L 98.092265 109.974513 
L 100.586411 113.891911 
L 103.094375 117.757492 
L 105.609248 121.564346 
L 108.13103 125.319383 
L 110.66663 129.019148 
L 113.212593 132.663641 
L 115.765465 136.256316 
L 118.332156 139.790265 
L 120.905755 143.272397 
L 123.489718 146.699257 
L 126.084044 150.074299 
L 128.688734 153.390615 
L 131.300333 156.655113 
L 133.925749 159.86434 
L 136.561529 163.018294 
L 139.204219 166.116977 
L 141.857271 169.163842 
L 144.520688 172.155436 
L 147.194467 175.088302 
L 149.87861 177.972806 
L 152.573117 180.798584 
L 155.274533 183.572544 
L 157.989766 186.287777 
L 160.711909 188.951194 
L 163.444415 191.562792 
L 166.187285 194.115665 
L 168.940518 196.61672 
L 171.704114 199.059048 
L 174.478074 201.449559 
L 177.258943 203.788253 
L 180.05363 206.06822 
L 182.855226 208.29637 
L 185.667186 210.469247 
L 188.489509 212.586853 
L 191.322195 214.649187 
L 194.165245 216.656249 
L 197.015204 218.611494 
L 199.878981 220.511466 
L 202.749667 222.356167 
L 205.634171 224.145596 
L 208.525584 225.883207 
L 211.42736 227.565547 
L 214.3395 229.192614 
L 217.258549 230.76441 
L 220.191416 232.280933 
L 223.131192 233.745639 
L 226.084786 235.151619 
L 229.045288 236.505781 
L 232.016155 237.808126 
L 234.997384 239.051745 
L 237.988978 240.243546 
L 240.990934 241.37662 
L 243.9998 242.457878 
L 247.022484 243.487317 
L 250.052077 244.458031 
L 253.092033 245.376926 
L 256.142353 246.24055 
L 259.203036 247.048902 
L 262.274083 247.801982 
L 265.355493 248.499791 
L 268.447266 249.145781 
L 271.545949 249.7365 
L 274.654995 250.271947 
L 277.774405 250.752122 
L 280.907632 251.180479 
L 284.047769 251.55011 
L 287.194814 251.867924 
L 290.355678 252.13392 
L 293.526905 252.34119 
L 296.705041 252.493188 
L 299.893541 252.593368 
L 303.092404 252.638276 
L 306.30163 252.627913 
L 309.52122 252.565732 
L 312.751174 252.444825 
L 315.991491 252.2721 
L 319.238717 252.044103 
L 322.499761 251.760834 
L 325.767713 251.425748 
L 329.04603 251.031936 
L 332.33471 250.586306 
L 335.633753 250.085404 
L 338.94316 249.52923 
L 342.26293 248.921239 
L 345.58961 248.257976 
L 348.926653 247.535986 
L 352.277513 246.762179 
L 355.635283 245.936555 
L 359.003417 245.052204 
L 362.381913 244.116035 
L 365.767319 243.124595 
L 369.166543 242.077883 
L 372.572676 240.975899 
L 375.992626 239.822097 
L 379.419486 238.613024 
L 382.856709 237.345224 
L 386.304296 236.029061 
L 389.762246 234.654172 
L 393.23056 233.227465 
" style="fill:none;stroke:#fea952;stroke-linecap:square;"/>
   </g>
   <g id="line2d_15">
    <path clip-path="url(#pbd8ea9ced2)" d="M 97.700522 82.599813 
L 100.095226 86.703332 
L 102.497889 90.752469 
L 104.902235 94.735875 
L 107.324964 98.676495 
L 109.748272 102.553316 
L 112.178397 106.371105 
L 114.623722 110.141009 
L 117.080462 113.860587 
L 119.529104 117.507818 
L 121.994324 121.105868 
L 124.476473 124.659788 
L 126.945763 128.13612 
L 129.444477 131.57729 
L 131.93875 134.953163 
L 134.4451 138.278078 
L 136.950948 141.539251 
L 139.478766 144.758589 
L 141.995374 147.905671 
L 144.528633 151.003442 
L 147.075231 154.05176 
L 149.625238 157.042892 
L 152.177725 159.97554 
L 154.732095 162.846096 
L 157.310265 165.675159 
L 159.878919 168.437059 
L 162.472493 171.158096 
L 165.045322 173.801755 
L 167.653436 176.41103 
L 170.259197 178.961902 
L 172.858597 181.447961 
L 175.478433 183.887702 
L 178.090924 186.262653 
L 180.724618 188.591614 
L 183.371852 190.87424 
L 185.993869 193.081352 
L 188.654722 195.253514 
L 191.304197 197.362407 
L 193.96014 199.416485 
L 196.622524 201.415877 
L 199.291332 203.360719 
L 201.98239 205.262001 
L 204.654381 207.097171 
L 207.349039 208.886713 
L 210.033957 210.614116 
L 212.751786 212.30177 
L 215.456186 213.928986 
L 218.167105 215.502691 
L 220.890603 217.02628 
L 223.605274 218.49022 
L 226.353559 219.913046 
L 229.070307 221.269119 
L 231.832519 222.585784 
L 234.593058 223.850391 
L 237.336009 225.055252 
L 240.111359 226.214926 
L 242.8685 227.315788 
L 245.663952 228.372792 
L 248.454546 229.377668 
L 251.238769 230.328306 
L 254.050215 231.231106 
L 256.856295 232.081552 
L 259.670811 232.880661 
L 262.493971 233.62853 
L 265.32599 234.325243 
L 268.181574 234.973893 
L 271.034864 235.572241 
L 273.891186 236.118992 
L 276.757255 236.614819 
L 279.646112 237.061491 
L 282.523019 237.457244 
L 285.436156 237.802055 
L 288.353544 238.09861 
L 291.256891 238.345357 
L 294.187011 238.538983 
L 297.138978 238.68202 
L 300.087511 238.776747 
L 303.047782 238.820366 
L 306.034809 238.812506 
L 309.004332 238.75742 
L 312.015652 238.646431 
L 315.023674 238.488052 
L 318.042929 238.277958 
L 321.090296 238.014924 
L 324.119657 237.706399 
L 327.190592 237.339091 
L 330.260464 236.924895 
L 333.34364 236.458518 
L 336.453901 235.937312 
L 339.56112 235.369971 
L 342.667612 234.752474 
L 345.81752 234.072333 
L 348.978157 233.343875 
L 352.126122 232.571584 
L 355.313546 231.735992 
L 358.498331 230.855023 
L 361.700817 229.918528 
L 364.913088 228.930839 
L 368.155464 227.882966 
L 371.395098 226.791388 
L 374.637705 225.648795 
L 377.928429 224.435975 
L 381.198977 223.188798 
L 384.505534 221.875141 
L 387.973847 220.448435 
" style="fill:none;stroke:#ffffff;stroke-linecap:square;"/>
   </g>
   <g id="line2d_16">
    <path clip-path="url(#pbd8ea9ced2)" d="M 73.832727 96.530892 
L 76.329589 100.80798 
L 78.839219 105.035814 
L 81.360984 109.211927 
L 83.892002 113.327191 
L 86.436259 117.395709 
L 88.994426 121.412717 
L 91.565029 125.373975 
L 94.138034 129.268105 
L 96.732956 133.130948 
L 99.338936 136.932428 
L 101.948713 140.667494 
L 104.585168 144.376513 
L 107.219834 148.003241 
L 109.87276 151.591631 
L 112.534336 155.120436 
L 115.21714 158.609347 
L 117.898702 162.02264 
L 120.605291 165.404555 
L 123.322866 168.725238 
L 126.047828 171.984829 
L 128.7832 175.191062 
L 131.536818 178.352144 
L 134.30928 181.464775 
L 137.078669 184.501446 
L 139.878301 187.508553 
L 142.673741 190.439072 
L 145.503743 193.343333 
L 148.326096 196.164524 
L 151.164621 198.940485 
L 154.030233 201.677624 
L 156.896137 204.343627 
L 159.790111 206.970787 
L 162.683611 209.526482 
L 165.584297 212.024878 
L 168.524018 214.495154 
L 171.452539 216.882926 
L 174.406255 219.230332 
L 177.374232 221.52201 
L 180.356493 223.757829 
L 183.353058 225.937655 
L 186.3481 228.050497 
L 189.376028 230.125816 
L 192.408923 232.136219 
L 195.465377 234.098218 
L 198.516556 235.989421 
L 201.594982 237.837428 
L 204.687615 239.628402 
L 207.788397 241.358949 
L 210.911824 243.038599 
L 214.029272 244.64882 
L 217.192076 246.22216 
L 220.337052 247.717454 
L 223.497519 249.161172 
L 226.6963 250.561 
L 229.883409 251.888563 
L 233.109456 253.171303 
L 236.317917 254.380449 
L 239.545055 255.538087 
L 242.806199 256.646329 
L 246.053938 257.684955 
L 249.327771 258.672301 
L 252.613894 259.600439 
L 255.912101 260.469275 
L 259.222175 261.278722 
L 262.529411 262.025688 
L 265.859668 262.719321 
L 269.200712 263.354007 
L 272.552735 263.929075 
L 275.902698 264.442752 
L 279.292246 264.903714 
L 282.659381 265.298166 
L 286.036085 265.637237 
L 289.454465 265.922483 
L 292.8668 266.143396 
L 296.271104 266.304355 
L 299.699571 266.409989 
L 303.137026 266.456187 
L 306.568451 266.443319 
L 310.038109 266.374044 
L 313.486696 266.243218 
L 316.959307 266.056148 
L 320.434505 265.810248 
L 323.909225 265.506745 
L 327.41577 265.145098 
L 330.901468 264.724781 
L 334.408955 264.247717 
L 337.923867 263.71229 
L 341.432419 263.121148 
L 344.964741 262.472507 
L 348.511608 261.763478 
L 352.035785 260.999639 
L 355.57687 260.180484 
L 359.144445 259.301525 
L 362.693287 258.368416 
L 366.265495 257.377047 
L 369.833822 256.330662 
L 373.419998 255.224927 
L 376.989887 254.068832 
L 380.590155 252.852806 
L 384.201267 251.577252 
L 387.78499 250.254473 
L 391.409616 248.869324 
L 395.018959 247.433202 
L 398.487273 246.006496 
" style="fill:none;stroke:#ffffff;stroke-linecap:square;"/>
   </g>
   <g id="patch_3">
    <path d="M 57.6 307.584 
L 57.6 41.472 
" style="fill:none;stroke:#000000;stroke-linecap:square;stroke-linejoin:miter;stroke-width:0.8;"/>
   </g>
   <g id="patch_4">
    <path d="M 414.72 307.584 
L 414.72 41.472 
" style="fill:none;stroke:#000000;stroke-linecap:square;stroke-linejoin:miter;stroke-width:0.8;"/>
   </g>
   <g id="patch_5">
    <path d="M 57.6 307.584 
L 414.72 307.584 
" style="fill:none;stroke:#000000;stroke-linecap:square;stroke-linejoin:miter;stroke-width:0.8;"/>
   </g>
   <g id="patch_6">
    <path d="M 57.6 41.472 
L 414.72 41.472 
" style="fill:none;stroke:#000000;stroke-linecap:square;stroke-linejoin:miter;stroke-width:0.8;"/>
   </g>
  </g>
 </g>
 <defs>
  <clipPath id="pbd8ea9ced2">
   <rect height="266.112" width="357.12" x="57.6" y="41.472"/>
  </clipPath>
 </defs>
</svg>
