<?xml version="1.0" encoding="utf-8" standalone="no"?>
<!DOCTYPE svg PUBLIC "-//W3C//DTD SVG 1.1//EN"
  "http://www.w3.org/Graphics/SVG/1.1/DTD/svg11.dtd">
<!-- Created with matplotlib (https://matplotlib.org/) -->
<svg height="345.6pt" version="1.1" viewBox="0 0 460.8 345.6" width="460.8pt" xmlns="http://www.w3.org/2000/svg" xmlns:xlink="http://www.w3.org/1999/xlink">
 <metadata>
  <rdf:RDF xmlns:cc="http://creativecommons.org/ns#" xmlns:dc="http://purl.org/dc/elements/1.1/" xmlns:rdf="http://www.w3.org/1999/02/22-rdf-syntax-ns#">
   <cc:Work>
    <dc:type rdf:resource="http://purl.org/dc/dcmitype/StillImage"/>
    <dc:date>2021-01-10T14:59:25.308783</dc:date>
    <dc:format>image/svg+xml</dc:format>
    <dc:creator>
     <cc:Agent>
      <dc:title>Matplotlib v3.3.3, https://matplotlib.org/</dc:title>
     </cc:Agent>
    </dc:creator>
   </cc:Work>
  </rdf:RDF>
 </metadata>
 <defs>
  <style type="text/css">*{stroke-linecap:butt;stroke-linejoin:round;}</style>
 </defs>
 <g id="figure_1">
  <g id="patch_1">
   <path d="M 0 345.6 
L 460.8 345.6 
L 460.8 0 
L 0 0 
z
" style="fill:#ffffff;"/>
  </g>
  <g id="axes_1">
   <g id="patch_2">
    <path d="M 57.6 307.584 
L 414.72 307.584 
L 414.72 41.472 
L 57.6 41.472 
z
" style="fill:#7d9051;"/>
   </g>
   <g id="matplotlib.axis_1">
    <g id="xtick_1">
     <g id="line2d_1">
      <defs>
       <path d="M 0 0 
L 0 3.5 
" id="m7c33488957" style="stroke:#000000;stroke-width:0.8;"/>
      </defs>
      <g>
       <use style="stroke:#000000;stroke-width:0.8;" x="97.496913" xlink:href="#m7c33488957" y="307.584"/>
      </g>
     </g>
     <g id="text_1">
      <!-- 20 -->
      <g transform="translate(91.134413 322.182437)scale(0.1 -0.1)">
       <defs>
        <path d="M 19.1875 8.296875 
L 53.609375 8.296875 
L 53.609375 0 
L 7.328125 0 
L 7.328125 8.296875 
Q 12.9375 14.109375 22.625 23.890625 
Q 32.328125 33.6875 34.8125 36.53125 
Q 39.546875 41.84375 41.421875 45.53125 
Q 43.3125 49.21875 43.3125 52.78125 
Q 43.3125 58.59375 39.234375 62.25 
Q 35.15625 65.921875 28.609375 65.921875 
Q 23.96875 65.921875 18.8125 64.3125 
Q 13.671875 62.703125 7.8125 59.421875 
L 7.8125 69.390625 
Q 13.765625 71.78125 18.9375 73 
Q 24.125 74.21875 28.421875 74.21875 
Q 39.75 74.21875 46.484375 68.546875 
Q 53.21875 62.890625 53.21875 53.421875 
Q 53.21875 48.921875 51.53125 44.890625 
Q 49.859375 40.875 45.40625 35.40625 
Q 44.1875 33.984375 37.640625 27.21875 
Q 31.109375 20.453125 19.1875 8.296875 
z
" id="DejaVuSans-50"/>
        <path d="M 31.78125 66.40625 
Q 24.171875 66.40625 20.328125 58.90625 
Q 16.5 51.421875 16.5 36.375 
Q 16.5 21.390625 20.328125 13.890625 
Q 24.171875 6.390625 31.78125 6.390625 
Q 39.453125 6.390625 43.28125 13.890625 
Q 47.125 21.390625 47.125 36.375 
Q 47.125 51.421875 43.28125 58.90625 
Q 39.453125 66.40625 31.78125 66.40625 
z
M 31.78125 74.21875 
Q 44.046875 74.21875 50.515625 64.515625 
Q 56.984375 54.828125 56.984375 36.375 
Q 56.984375 17.96875 50.515625 8.265625 
Q 44.046875 -1.421875 31.78125 -1.421875 
Q 19.53125 -1.421875 13.0625 8.265625 
Q 6.59375 17.96875 6.59375 36.375 
Q 6.59375 54.828125 13.0625 64.515625 
Q 19.53125 74.21875 31.78125 74.21875 
z
" id="DejaVuSans-48"/>
       </defs>
       <use xlink:href="#DejaVuSans-50"/>
       <use x="63.623047" xlink:href="#DejaVuSans-48"/>
      </g>
     </g>
    </g>
    <g id="xtick_2">
     <g id="line2d_2">
      <g>
       <use style="stroke:#000000;stroke-width:0.8;" x="153.653047" xlink:href="#m7c33488957" y="307.584"/>
      </g>
     </g>
     <g id="text_2">
      <!-- 40 -->
      <g transform="translate(147.290547 322.182437)scale(0.1 -0.1)">
       <defs>
        <path d="M 37.796875 64.3125 
L 12.890625 25.390625 
L 37.796875 25.390625 
z
M 35.203125 72.90625 
L 47.609375 72.90625 
L 47.609375 25.390625 
L 58.015625 25.390625 
L 58.015625 17.1875 
L 47.609375 17.1875 
L 47.609375 0 
L 37.796875 0 
L 37.796875 17.1875 
L 4.890625 17.1875 
L 4.890625 26.703125 
z
" id="DejaVuSans-52"/>
       </defs>
       <use xlink:href="#DejaVuSans-52"/>
       <use x="63.623047" xlink:href="#DejaVuSans-48"/>
      </g>
     </g>
    </g>
    <g id="xtick_3">
     <g id="line2d_3">
      <g>
       <use style="stroke:#000000;stroke-width:0.8;" x="209.809181" xlink:href="#m7c33488957" y="307.584"/>
      </g>
     </g>
     <g id="text_3">
      <!-- 60 -->
      <g transform="translate(203.446681 322.182437)scale(0.1 -0.1)">
       <defs>
        <path d="M 33.015625 40.375 
Q 26.375 40.375 22.484375 35.828125 
Q 18.609375 31.296875 18.609375 23.390625 
Q 18.609375 15.53125 22.484375 10.953125 
Q 26.375 6.390625 33.015625 6.390625 
Q 39.65625 6.390625 43.53125 10.953125 
Q 47.40625 15.53125 47.40625 23.390625 
Q 47.40625 31.296875 43.53125 35.828125 
Q 39.65625 40.375 33.015625 40.375 
z
M 52.59375 71.296875 
L 52.59375 62.3125 
Q 48.875 64.0625 45.09375 64.984375 
Q 41.3125 65.921875 37.59375 65.921875 
Q 27.828125 65.921875 22.671875 59.328125 
Q 17.53125 52.734375 16.796875 39.40625 
Q 19.671875 43.65625 24.015625 45.921875 
Q 28.375 48.1875 33.59375 48.1875 
Q 44.578125 48.1875 50.953125 41.515625 
Q 57.328125 34.859375 57.328125 23.390625 
Q 57.328125 12.15625 50.6875 5.359375 
Q 44.046875 -1.421875 33.015625 -1.421875 
Q 20.359375 -1.421875 13.671875 8.265625 
Q 6.984375 17.96875 6.984375 36.375 
Q 6.984375 53.65625 15.1875 63.9375 
Q 23.390625 74.21875 37.203125 74.21875 
Q 40.921875 74.21875 44.703125 73.484375 
Q 48.484375 72.75 52.59375 71.296875 
z
" id="DejaVuSans-54"/>
       </defs>
       <use xlink:href="#DejaVuSans-54"/>
       <use x="63.623047" xlink:href="#DejaVuSans-48"/>
      </g>
     </g>
    </g>
    <g id="xtick_4">
     <g id="line2d_4">
      <g>
       <use style="stroke:#000000;stroke-width:0.8;" x="265.965315" xlink:href="#m7c33488957" y="307.584"/>
      </g>
     </g>
     <g id="text_4">
      <!-- 80 -->
      <g transform="translate(259.602815 322.182437)scale(0.1 -0.1)">
       <defs>
        <path d="M 31.78125 34.625 
Q 24.75 34.625 20.71875 30.859375 
Q 16.703125 27.09375 16.703125 20.515625 
Q 16.703125 13.921875 20.71875 10.15625 
Q 24.75 6.390625 31.78125 6.390625 
Q 38.8125 6.390625 42.859375 10.171875 
Q 46.921875 13.96875 46.921875 20.515625 
Q 46.921875 27.09375 42.890625 30.859375 
Q 38.875 34.625 31.78125 34.625 
z
M 21.921875 38.8125 
Q 15.578125 40.375 12.03125 44.71875 
Q 8.5 49.078125 8.5 55.328125 
Q 8.5 64.0625 14.71875 69.140625 
Q 20.953125 74.21875 31.78125 74.21875 
Q 42.671875 74.21875 48.875 69.140625 
Q 55.078125 64.0625 55.078125 55.328125 
Q 55.078125 49.078125 51.53125 44.71875 
Q 48 40.375 41.703125 38.8125 
Q 48.828125 37.15625 52.796875 32.3125 
Q 56.78125 27.484375 56.78125 20.515625 
Q 56.78125 9.90625 50.3125 4.234375 
Q 43.84375 -1.421875 31.78125 -1.421875 
Q 19.734375 -1.421875 13.25 4.234375 
Q 6.78125 9.90625 6.78125 20.515625 
Q 6.78125 27.484375 10.78125 32.3125 
Q 14.796875 37.15625 21.921875 38.8125 
z
M 18.3125 54.390625 
Q 18.3125 48.734375 21.84375 45.5625 
Q 25.390625 42.390625 31.78125 42.390625 
Q 38.140625 42.390625 41.71875 45.5625 
Q 45.3125 48.734375 45.3125 54.390625 
Q 45.3125 60.0625 41.71875 63.234375 
Q 38.140625 66.40625 31.78125 66.40625 
Q 25.390625 66.40625 21.84375 63.234375 
Q 18.3125 60.0625 18.3125 54.390625 
z
" id="DejaVuSans-56"/>
       </defs>
       <use xlink:href="#DejaVuSans-56"/>
       <use x="63.623047" xlink:href="#DejaVuSans-48"/>
      </g>
     </g>
    </g>
    <g id="xtick_5">
     <g id="line2d_5">
      <g>
       <use style="stroke:#000000;stroke-width:0.8;" x="322.121449" xlink:href="#m7c33488957" y="307.584"/>
      </g>
     </g>
     <g id="text_5">
      <!-- 100 -->
      <g transform="translate(312.577699 322.182437)scale(0.1 -0.1)">
       <defs>
        <path d="M 12.40625 8.296875 
L 28.515625 8.296875 
L 28.515625 63.921875 
L 10.984375 60.40625 
L 10.984375 69.390625 
L 28.421875 72.90625 
L 38.28125 72.90625 
L 38.28125 8.296875 
L 54.390625 8.296875 
L 54.390625 0 
L 12.40625 0 
z
" id="DejaVuSans-49"/>
       </defs>
       <use xlink:href="#DejaVuSans-49"/>
       <use x="63.623047" xlink:href="#DejaVuSans-48"/>
       <use x="127.246094" xlink:href="#DejaVuSans-48"/>
      </g>
     </g>
    </g>
    <g id="xtick_6">
     <g id="line2d_6">
      <g>
       <use style="stroke:#000000;stroke-width:0.8;" x="378.277583" xlink:href="#m7c33488957" y="307.584"/>
      </g>
     </g>
     <g id="text_6">
      <!-- 120 -->
      <g transform="translate(368.733833 322.182437)scale(0.1 -0.1)">
       <use xlink:href="#DejaVuSans-49"/>
       <use x="63.623047" xlink:href="#DejaVuSans-50"/>
       <use x="127.246094" xlink:href="#DejaVuSans-48"/>
      </g>
     </g>
    </g>
   </g>
   <g id="matplotlib.axis_2">
    <g id="ytick_1">
     <g id="line2d_7">
      <defs>
       <path d="M 0 0 
L -3.5 0 
" id="m8cb95f9d61" style="stroke:#000000;stroke-width:0.8;"/>
      </defs>
      <g>
       <use style="stroke:#000000;stroke-width:0.8;" x="57.6" xlink:href="#m8cb95f9d61" y="306.719702"/>
      </g>
     </g>
     <g id="text_7">
      <!-- 80 -->
      <g transform="translate(37.875 310.518921)scale(0.1 -0.1)">
       <use xlink:href="#DejaVuSans-56"/>
       <use x="63.623047" xlink:href="#DejaVuSans-48"/>
      </g>
     </g>
    </g>
    <g id="ytick_2">
     <g id="line2d_8">
      <g>
       <use style="stroke:#000000;stroke-width:0.8;" x="57.6" xlink:href="#m8cb95f9d61" y="250.563568"/>
      </g>
     </g>
     <g id="text_8">
      <!-- 100 -->
      <g transform="translate(31.5125 254.362787)scale(0.1 -0.1)">
       <use xlink:href="#DejaVuSans-49"/>
       <use x="63.623047" xlink:href="#DejaVuSans-48"/>
       <use x="127.246094" xlink:href="#DejaVuSans-48"/>
      </g>
     </g>
    </g>
    <g id="ytick_3">
     <g id="line2d_9">
      <g>
       <use style="stroke:#000000;stroke-width:0.8;" x="57.6" xlink:href="#m8cb95f9d61" y="194.407434"/>
      </g>
     </g>
     <g id="text_9">
      <!-- 120 -->
      <g transform="translate(31.5125 198.206653)scale(0.1 -0.1)">
       <use xlink:href="#DejaVuSans-49"/>
       <use x="63.623047" xlink:href="#DejaVuSans-50"/>
       <use x="127.246094" xlink:href="#DejaVuSans-48"/>
      </g>
     </g>
    </g>
    <g id="ytick_4">
     <g id="line2d_10">
      <g>
       <use style="stroke:#000000;stroke-width:0.8;" x="57.6" xlink:href="#m8cb95f9d61" y="138.2513"/>
      </g>
     </g>
     <g id="text_10">
      <!-- 140 -->
      <g transform="translate(31.5125 142.050519)scale(0.1 -0.1)">
       <use xlink:href="#DejaVuSans-49"/>
       <use x="63.623047" xlink:href="#DejaVuSans-52"/>
       <use x="127.246094" xlink:href="#DejaVuSans-48"/>
      </g>
     </g>
    </g>
    <g id="ytick_5">
     <g id="line2d_11">
      <g>
       <use style="stroke:#000000;stroke-width:0.8;" x="57.6" xlink:href="#m8cb95f9d61" y="82.095167"/>
      </g>
     </g>
     <g id="text_11">
      <!-- 160 -->
      <g transform="translate(31.5125 85.894385)scale(0.1 -0.1)">
       <use xlink:href="#DejaVuSans-49"/>
       <use x="63.623047" xlink:href="#DejaVuSans-54"/>
       <use x="127.246094" xlink:href="#DejaVuSans-48"/>
      </g>
     </g>
    </g>
   </g>
   <g id="line2d_12">
    <path clip-path="url(#p066ca9bc2f)" d="M 66.611039 284.257249 
L 89.491856 283.962429 
L 111.547178 283.445792 
L 132.771389 282.704531 
L 153.172912 281.741454 
L 172.743325 280.553752 
L 191.488242 279.141425 
L 209.404857 277.507281 
L 222.301113 276.134264 
L 234.731273 274.637703 
L 246.695337 273.011983 
L 258.196114 271.262719 
L 269.227986 269.387104 
L 279.796571 267.387946 
L 289.901867 265.259628 
L 299.538259 263.007768 
L 308.711364 260.629555 
L 317.418373 258.127799 
L 325.662093 255.496885 
L 333.43691 252.742426 
L 340.748438 249.861617 
L 347.593871 246.854456 
L 353.976016 243.723751 
L 359.889257 240.463888 
L 363.575907 238.223258 
L 367.054779 235.926472 
L 370.325874 233.570722 
L 373.389191 231.161624 
L 376.247538 228.69637 
L 378.898108 226.174959 
L 381.343708 223.600201 
L 383.578722 220.966478 
L 385.611574 218.276599 
L 387.43384 215.533372 
L 389.051137 212.733989 
L 390.460656 209.875641 
L 391.665205 206.963946 
L 392.659169 203.996094 
L 393.45097 200.972086 
L 394.032186 197.891922 
L 394.408432 194.75841 
L 394.576901 191.565934 
L 394.540399 188.317302 
L 394.29612 185.015321 
L 393.844063 181.657184 
L 393.187036 178.240083 
L 392.322232 174.769634 
L 391.24965 171.243029 
L 389.972098 167.660268 
L 388.486768 164.024158 
L 386.79366 160.329084 
L 384.895583 156.577855 
L 382.789728 152.773277 
L 379.243468 146.958309 
L 375.231112 141.019798 
L 370.752661 134.954935 
L 365.810921 128.763722 
L 360.403085 122.448964 
L 354.529154 116.005048 
L 348.191934 109.437588 
L 341.388618 102.743777 
L 334.119207 95.926422 
L 326.383699 88.979909 
L 318.184904 81.909851 
L 309.520012 74.713443 
L 300.389025 67.390683 
L 294.043382 62.44052 
L 294.043382 62.44052 
" style="fill:none;stroke:#fea952;stroke-linecap:square;"/>
   </g>
   <g id="line2d_13">
    <path clip-path="url(#p066ca9bc2f)" d="M 66.507706 273.026497 
L 89.277537 272.733247 
L 111.207526 272.219703 
L 132.296739 271.483339 
L 152.552021 270.527402 
L 171.964248 269.349578 
L 190.53671 267.950578 
L 208.265898 266.333955 
L 221.016578 264.976736 
L 233.276319 263.501116 
L 245.073284 261.898505 
L 256.384912 260.178496 
L 267.21583 258.337594 
L 277.555731 256.382534 
L 287.43154 254.303446 
L 296.814287 252.111877 
L 305.707517 249.807478 
L 314.103329 247.396959 
L 322.025885 244.870575 
L 329.447999 242.243424 
L 336.367838 239.519915 
L 342.792124 236.701442 
L 348.712201 233.802425 
L 354.149253 230.810245 
L 357.467685 228.798287 
L 362.061523 225.706725 
L 366.1568 222.569012 
L 368.61115 220.460714 
L 370.860073 218.330824 
L 372.876764 216.221087 
L 375.559319 212.993929 
L 377.102233 210.833774 
L 378.455448 208.676359 
L 379.630678 206.50335 
L 380.638319 204.314503 
L 381.479384 202.099175 
L 382.169201 199.828873 
L 382.696979 197.550277 
L 383.074111 195.173737 
L 383.294298 192.756413 
L 383.358354 190.257814 
L 383.258598 187.677909 
L 382.989797 185.007913 
L 382.541048 182.224019 
L 381.91666 179.364665 
L 381.104904 176.408196 
L 380.1033 173.35495 
L 378.898309 170.198328 
L 377.507108 166.969649 
L 375.022354 161.931339 
L 372.066897 156.693534 
L 368.649271 151.277545 
L 364.75778 145.686546 
L 360.38189 139.914045 
L 355.52665 133.975468 
L 350.194503 127.87915 
L 344.387748 121.629406 
L 338.104601 115.230194 
L 331.32979 108.675458 
L 324.089959 101.982078 
L 316.362883 95.139624 
L 308.171356 88.164404 
L 299.50193 81.05051 
L 290.355339 73.79514 
L 287.157247 71.313039 
L 287.157247 71.313039 
" style="fill:none;stroke:#ffffff;stroke-linecap:square;"/>
   </g>
   <g id="line2d_14">
    <path clip-path="url(#p066ca9bc2f)" d="M 66.714373 295.488 
L 89.706175 295.191611 
L 111.88683 294.671882 
L 133.246038 293.925724 
L 153.793803 292.955505 
L 173.522401 291.757925 
L 192.439774 290.332271 
L 206.096437 289.114947 
L 219.295991 287.768509 
L 232.03995 286.295204 
L 244.329358 284.6888 
L 256.168187 282.954171 
L 267.556396 281.087353 
L 278.484141 279.089386 
L 288.982877 276.956495 
L 299.023024 274.6893 
L 308.626105 272.283449 
L 317.771385 269.740591 
L 326.482103 267.052883 
L 334.763958 264.218723 
L 342.613784 261.232318 
L 350.023621 258.090118 
L 356.994116 254.789536 
L 361.413936 252.490079 
L 365.62926 250.11753 
L 369.684129 247.648229 
L 373.52981 245.103314 
L 377.164361 242.480018 
L 380.621582 239.754236 
L 383.883926 236.932026 
L 386.936143 234.019094 
L 389.810651 230.979314 
L 392.437096 227.870799 
L 394.876576 224.624842 
L 397.069676 221.303217 
L 399.044879 217.858984 
L 400.763015 214.347984 
L 402.253912 210.708241 
L 403.474855 207.022872 
L 404.449128 203.248262 
L 405.159937 199.412982 
L 405.613091 195.530463 
L 405.807975 191.624429 
L 405.752705 187.665646 
L 405.448492 183.686767 
L 404.901068 179.686629 
L 404.118538 175.662737 
L 403.105561 171.629529 
L 401.872316 167.596192 
L 400.411154 163.517014 
L 398.747411 159.456921 
L 396.860278 155.348758 
L 394.768812 151.22437 
L 392.469943 147.078201 
L 389.971648 142.911824 
L 387.265715 138.708144 
L 384.356519 134.472478 
L 379.616747 128.057948 
L 374.420963 121.552089 
L 368.778533 114.966163 
L 362.683599 108.281999 
L 356.138638 101.500943 
L 349.130444 94.607157 
L 341.683326 87.624341 
L 333.771358 80.520419 
L 325.411734 73.312562 
L 316.591859 65.988224 
L 307.319211 58.552528 
L 300.929516 53.568 
L 300.929516 53.568 
" style="fill:none;stroke:#ffffff;stroke-linecap:square;"/>
   </g>
   <g id="patch_3">
    <path d="M 57.6 307.584 
L 57.6 41.472 
" style="fill:none;stroke:#000000;stroke-linecap:square;stroke-linejoin:miter;stroke-width:0.8;"/>
   </g>
   <g id="patch_4">
    <path d="M 414.72 307.584 
L 414.72 41.472 
" style="fill:none;stroke:#000000;stroke-linecap:square;stroke-linejoin:miter;stroke-width:0.8;"/>
   </g>
   <g id="patch_5">
    <path d="M 57.6 307.584 
L 414.72 307.584 
" style="fill:none;stroke:#000000;stroke-linecap:square;stroke-linejoin:miter;stroke-width:0.8;"/>
   </g>
   <g id="patch_6">
    <path d="M 57.6 41.472 
L 414.72 41.472 
" style="fill:none;stroke:#000000;stroke-linecap:square;stroke-linejoin:miter;stroke-width:0.8;"/>
   </g>
  </g>
 </g>
 <defs>
  <clipPath id="p066ca9bc2f">
   <rect height="266.112" width="357.12" x="57.6" y="41.472"/>
  </clipPath>
 </defs>
</svg>
