<?xml version="1.0" encoding="utf-8" standalone="no"?>
<!DOCTYPE svg PUBLIC "-//W3C//DTD SVG 1.1//EN"
  "http://www.w3.org/Graphics/SVG/1.1/DTD/svg11.dtd">
<!-- Created with matplotlib (https://matplotlib.org/) -->
<svg height="345.6pt" version="1.1" viewBox="0 0 460.8 345.6" width="460.8pt" xmlns="http://www.w3.org/2000/svg" xmlns:xlink="http://www.w3.org/1999/xlink">
 <metadata>
  <rdf:RDF xmlns:cc="http://creativecommons.org/ns#" xmlns:dc="http://purl.org/dc/elements/1.1/" xmlns:rdf="http://www.w3.org/1999/02/22-rdf-syntax-ns#">
   <cc:Work>
    <dc:type rdf:resource="http://purl.org/dc/dcmitype/StillImage"/>
    <dc:date>2021-01-10T14:32:59.039745</dc:date>
    <dc:format>image/svg+xml</dc:format>
    <dc:creator>
     <cc:Agent>
      <dc:title>Matplotlib v3.3.3, https://matplotlib.org/</dc:title>
     </cc:Agent>
    </dc:creator>
   </cc:Work>
  </rdf:RDF>
 </metadata>
 <defs>
  <style type="text/css">*{stroke-linecap:butt;stroke-linejoin:round;}</style>
 </defs>
 <g id="figure_1">
  <g id="patch_1">
   <path d="M 0 345.6 
L 460.8 345.6 
L 460.8 0 
L 0 0 
z
" style="fill:#ffffff;"/>
  </g>
  <g id="axes_1">
   <g id="patch_2">
    <path d="M 57.6 307.584 
L 414.72 307.584 
L 414.72 41.472 
L 57.6 41.472 
z
" style="fill:#7d9051;"/>
   </g>
   <g id="matplotlib.axis_1">
    <g id="xtick_1">
     <g id="line2d_1">
      <defs>
       <path d="M 0 0 
L 0 3.5 
" id="me7fe78ba56" style="stroke:#000000;stroke-width:0.8;"/>
      </defs>
      <g>
       <use style="stroke:#000000;stroke-width:0.8;" x="111.181289" xlink:href="#me7fe78ba56" y="307.584"/>
      </g>
     </g>
     <g id="text_1">
      <!-- 0 -->
      <g transform="translate(108.000039 322.182437)scale(0.1 -0.1)">
       <defs>
        <path d="M 31.78125 66.40625 
Q 24.171875 66.40625 20.328125 58.90625 
Q 16.5 51.421875 16.5 36.375 
Q 16.5 21.390625 20.328125 13.890625 
Q 24.171875 6.390625 31.78125 6.390625 
Q 39.453125 6.390625 43.28125 13.890625 
Q 47.125 21.390625 47.125 36.375 
Q 47.125 51.421875 43.28125 58.90625 
Q 39.453125 66.40625 31.78125 66.40625 
z
M 31.78125 74.21875 
Q 44.046875 74.21875 50.515625 64.515625 
Q 56.984375 54.828125 56.984375 36.375 
Q 56.984375 17.96875 50.515625 8.265625 
Q 44.046875 -1.421875 31.78125 -1.421875 
Q 19.53125 -1.421875 13.0625 8.265625 
Q 6.59375 17.96875 6.59375 36.375 
Q 6.59375 54.828125 13.0625 64.515625 
Q 19.53125 74.21875 31.78125 74.21875 
z
" id="DejaVuSans-48"/>
       </defs>
       <use xlink:href="#DejaVuSans-48"/>
      </g>
     </g>
    </g>
    <g id="xtick_2">
     <g id="line2d_2">
      <g>
       <use style="stroke:#000000;stroke-width:0.8;" x="183.919446" xlink:href="#me7fe78ba56" y="307.584"/>
      </g>
     </g>
     <g id="text_2">
      <!-- 50 -->
      <g transform="translate(177.556946 322.182437)scale(0.1 -0.1)">
       <defs>
        <path d="M 10.796875 72.90625 
L 49.515625 72.90625 
L 49.515625 64.59375 
L 19.828125 64.59375 
L 19.828125 46.734375 
Q 21.96875 47.46875 24.109375 47.828125 
Q 26.265625 48.1875 28.421875 48.1875 
Q 40.625 48.1875 47.75 41.5 
Q 54.890625 34.8125 54.890625 23.390625 
Q 54.890625 11.625 47.5625 5.09375 
Q 40.234375 -1.421875 26.90625 -1.421875 
Q 22.3125 -1.421875 17.546875 -0.640625 
Q 12.796875 0.140625 7.71875 1.703125 
L 7.71875 11.625 
Q 12.109375 9.234375 16.796875 8.0625 
Q 21.484375 6.890625 26.703125 6.890625 
Q 35.15625 6.890625 40.078125 11.328125 
Q 45.015625 15.765625 45.015625 23.390625 
Q 45.015625 31 40.078125 35.4375 
Q 35.15625 39.890625 26.703125 39.890625 
Q 22.75 39.890625 18.8125 39.015625 
Q 14.890625 38.140625 10.796875 36.28125 
z
" id="DejaVuSans-53"/>
       </defs>
       <use xlink:href="#DejaVuSans-53"/>
       <use x="63.623047" xlink:href="#DejaVuSans-48"/>
      </g>
     </g>
    </g>
    <g id="xtick_3">
     <g id="line2d_3">
      <g>
       <use style="stroke:#000000;stroke-width:0.8;" x="256.657603" xlink:href="#me7fe78ba56" y="307.584"/>
      </g>
     </g>
     <g id="text_3">
      <!-- 100 -->
      <g transform="translate(247.113853 322.182437)scale(0.1 -0.1)">
       <defs>
        <path d="M 12.40625 8.296875 
L 28.515625 8.296875 
L 28.515625 63.921875 
L 10.984375 60.40625 
L 10.984375 69.390625 
L 28.421875 72.90625 
L 38.28125 72.90625 
L 38.28125 8.296875 
L 54.390625 8.296875 
L 54.390625 0 
L 12.40625 0 
z
" id="DejaVuSans-49"/>
       </defs>
       <use xlink:href="#DejaVuSans-49"/>
       <use x="63.623047" xlink:href="#DejaVuSans-48"/>
       <use x="127.246094" xlink:href="#DejaVuSans-48"/>
      </g>
     </g>
    </g>
    <g id="xtick_4">
     <g id="line2d_4">
      <g>
       <use style="stroke:#000000;stroke-width:0.8;" x="329.395759" xlink:href="#me7fe78ba56" y="307.584"/>
      </g>
     </g>
     <g id="text_4">
      <!-- 150 -->
      <g transform="translate(319.852009 322.182437)scale(0.1 -0.1)">
       <use xlink:href="#DejaVuSans-49"/>
       <use x="63.623047" xlink:href="#DejaVuSans-53"/>
       <use x="127.246094" xlink:href="#DejaVuSans-48"/>
      </g>
     </g>
    </g>
    <g id="xtick_5">
     <g id="line2d_5">
      <g>
       <use style="stroke:#000000;stroke-width:0.8;" x="402.133916" xlink:href="#me7fe78ba56" y="307.584"/>
      </g>
     </g>
     <g id="text_5">
      <!-- 200 -->
      <g transform="translate(392.590166 322.182437)scale(0.1 -0.1)">
       <defs>
        <path d="M 19.1875 8.296875 
L 53.609375 8.296875 
L 53.609375 0 
L 7.328125 0 
L 7.328125 8.296875 
Q 12.9375 14.109375 22.625 23.890625 
Q 32.328125 33.6875 34.8125 36.53125 
Q 39.546875 41.84375 41.421875 45.53125 
Q 43.3125 49.21875 43.3125 52.78125 
Q 43.3125 58.59375 39.234375 62.25 
Q 35.15625 65.921875 28.609375 65.921875 
Q 23.96875 65.921875 18.8125 64.3125 
Q 13.671875 62.703125 7.8125 59.421875 
L 7.8125 69.390625 
Q 13.765625 71.78125 18.9375 73 
Q 24.125 74.21875 28.421875 74.21875 
Q 39.75 74.21875 46.484375 68.546875 
Q 53.21875 62.890625 53.21875 53.421875 
Q 53.21875 48.921875 51.53125 44.890625 
Q 49.859375 40.875 45.40625 35.40625 
Q 44.1875 33.984375 37.640625 27.21875 
Q 31.109375 20.453125 19.1875 8.296875 
z
" id="DejaVuSans-50"/>
       </defs>
       <use xlink:href="#DejaVuSans-50"/>
       <use x="63.623047" xlink:href="#DejaVuSans-48"/>
       <use x="127.246094" xlink:href="#DejaVuSans-48"/>
      </g>
     </g>
    </g>
   </g>
   <g id="matplotlib.axis_2">
    <g id="ytick_1">
     <g id="line2d_6">
      <defs>
       <path d="M 0 0 
L -3.5 0 
" id="m19ddeb7a08" style="stroke:#000000;stroke-width:0.8;"/>
      </defs>
      <g>
       <use style="stroke:#000000;stroke-width:0.8;" x="57.6" xlink:href="#m19ddeb7a08" y="294.732607"/>
      </g>
     </g>
     <g id="text_6">
      <!-- 25 -->
      <g transform="translate(37.875 298.531826)scale(0.1 -0.1)">
       <use xlink:href="#DejaVuSans-50"/>
       <use x="63.623047" xlink:href="#DejaVuSans-53"/>
      </g>
     </g>
    </g>
    <g id="ytick_2">
     <g id="line2d_7">
      <g>
       <use style="stroke:#000000;stroke-width:0.8;" x="57.6" xlink:href="#m19ddeb7a08" y="258.363528"/>
      </g>
     </g>
     <g id="text_7">
      <!-- 50 -->
      <g transform="translate(37.875 262.162747)scale(0.1 -0.1)">
       <use xlink:href="#DejaVuSans-53"/>
       <use x="63.623047" xlink:href="#DejaVuSans-48"/>
      </g>
     </g>
    </g>
    <g id="ytick_3">
     <g id="line2d_8">
      <g>
       <use style="stroke:#000000;stroke-width:0.8;" x="57.6" xlink:href="#m19ddeb7a08" y="221.99445"/>
      </g>
     </g>
     <g id="text_8">
      <!-- 75 -->
      <g transform="translate(37.875 225.793669)scale(0.1 -0.1)">
       <defs>
        <path d="M 8.203125 72.90625 
L 55.078125 72.90625 
L 55.078125 68.703125 
L 28.609375 0 
L 18.3125 0 
L 43.21875 64.59375 
L 8.203125 64.59375 
z
" id="DejaVuSans-55"/>
       </defs>
       <use xlink:href="#DejaVuSans-55"/>
       <use x="63.623047" xlink:href="#DejaVuSans-53"/>
      </g>
     </g>
    </g>
    <g id="ytick_4">
     <g id="line2d_9">
      <g>
       <use style="stroke:#000000;stroke-width:0.8;" x="57.6" xlink:href="#m19ddeb7a08" y="185.625372"/>
      </g>
     </g>
     <g id="text_9">
      <!-- 100 -->
      <g transform="translate(31.5125 189.424591)scale(0.1 -0.1)">
       <use xlink:href="#DejaVuSans-49"/>
       <use x="63.623047" xlink:href="#DejaVuSans-48"/>
       <use x="127.246094" xlink:href="#DejaVuSans-48"/>
      </g>
     </g>
    </g>
    <g id="ytick_5">
     <g id="line2d_10">
      <g>
       <use style="stroke:#000000;stroke-width:0.8;" x="57.6" xlink:href="#m19ddeb7a08" y="149.256293"/>
      </g>
     </g>
     <g id="text_10">
      <!-- 125 -->
      <g transform="translate(31.5125 153.055512)scale(0.1 -0.1)">
       <use xlink:href="#DejaVuSans-49"/>
       <use x="63.623047" xlink:href="#DejaVuSans-50"/>
       <use x="127.246094" xlink:href="#DejaVuSans-53"/>
      </g>
     </g>
    </g>
    <g id="ytick_6">
     <g id="line2d_11">
      <g>
       <use style="stroke:#000000;stroke-width:0.8;" x="57.6" xlink:href="#m19ddeb7a08" y="112.887215"/>
      </g>
     </g>
     <g id="text_11">
      <!-- 150 -->
      <g transform="translate(31.5125 116.686434)scale(0.1 -0.1)">
       <use xlink:href="#DejaVuSans-49"/>
       <use x="63.623047" xlink:href="#DejaVuSans-53"/>
       <use x="127.246094" xlink:href="#DejaVuSans-48"/>
      </g>
     </g>
    </g>
    <g id="ytick_7">
     <g id="line2d_12">
      <g>
       <use style="stroke:#000000;stroke-width:0.8;" x="57.6" xlink:href="#m19ddeb7a08" y="76.518137"/>
      </g>
     </g>
     <g id="text_12">
      <!-- 175 -->
      <g transform="translate(31.5125 80.317356)scale(0.1 -0.1)">
       <use xlink:href="#DejaVuSans-49"/>
       <use x="63.623047" xlink:href="#DejaVuSans-55"/>
       <use x="127.246094" xlink:href="#DejaVuSans-53"/>
      </g>
     </g>
    </g>
   </g>
   <g id="line2d_13">
    <path clip-path="url(#pbc1832e4f6)" d="M 215.924235 59.060979 
L 207.042906 62.255639 
L 198.631466 65.508489 
L 190.689914 68.81953 
L 183.219705 72.188762 
L 176.22084 75.614729 
L 169.690408 79.100341 
L 164.806768 81.93131 
L 160.222809 84.798649 
L 155.941441 87.70381 
L 151.959755 90.646796 
L 148.280659 93.626151 
L 144.901244 96.64333 
L 141.82442 99.696878 
L 139.047277 102.788249 
L 136.572725 105.917445 
L 134.397854 109.08301 
L 132.525574 112.286398 
L 130.95443 115.526155 
L 129.682967 118.803737 
L 128.927945 121.287017 
L 128.341675 123.790665 
L 127.925613 126.314679 
L 127.678303 128.860514 
L 127.612839 132.287936 
L 127.761225 134.881779 
L 128.222385 138.374665 
L 128.984681 141.903921 
L 130.048112 145.471 
L 131.41268 149.074448 
L 133.078384 152.71572 
L 135.045224 156.393361 
L 137.3132 160.108826 
L 139.882311 163.862115 
L 142.754014 167.653228 
L 145.925397 171.48071 
L 149.397917 175.344561 
L 153.171572 179.24769 
L 157.246364 183.187189 
L 162.764281 188.162479 
L 168.752086 193.197414 
L 175.211234 198.29054 
L 182.140271 203.441856 
L 189.539196 208.651363 
L 197.409465 213.920515 
L 205.751076 219.246403 
L 214.561122 224.630481 
L 223.843965 230.07275 
L 235.602816 236.680284 
L 248.039586 243.372194 
L 261.154276 250.148481 
L 274.946885 257.007689 
L 289.417414 263.951274 
L 304.564407 270.97778 
L 320.389321 278.090117 
L 339.708575 286.491374 
L 348.271311 290.128282 
L 348.271311 290.128282 
" style="fill:none;stroke:#fea952;stroke-linecap:square;"/>
   </g>
   <g id="line2d_14">
    <path clip-path="url(#pbc1832e4f6)" d="M 217.844795 64.553958 
L 209.087626 67.70362 
L 200.81256 70.90332 
L 193.019377 74.151976 
L 185.710762 77.44766 
L 178.885713 80.787718 
L 172.549432 84.168611 
L 166.697804 87.592009 
L 162.37179 90.350355 
L 158.354037 93.131313 
L 154.653318 95.92563 
L 151.258058 98.739938 
L 148.175766 101.559923 
L 145.402376 104.386014 
L 142.935377 107.214024 
L 140.768569 110.04089 
L 138.899576 112.860724 
L 137.313608 115.687199 
L 136.010388 118.505077 
L 134.97979 121.321315 
L 134.211491 124.161941 
L 133.704196 126.999769 
L 133.450988 129.892511 
L 133.452932 132.818078 
L 133.716421 135.808246 
L 134.239966 138.8449 
L 135.040832 141.969704 
L 136.116285 145.159383 
L 137.483496 148.433346 
L 139.133426 151.765408 
L 141.088367 155.181447 
L 143.341645 158.664996 
L 145.89792 162.212218 
L 148.766088 165.829286 
L 151.930614 169.495888 
L 155.413983 173.229388 
L 159.199524 177.011694 
L 164.365938 181.815253 
L 170.017641 186.699412 
L 176.14727 191.656335 
L 182.760753 196.687535 
L 189.851142 201.787192 
L 197.420175 206.955383 
L 205.468593 212.190577 
L 213.994541 217.492242 
L 224.857328 223.939585 
L 236.408238 230.478446 
L 248.638927 237.107244 
L 261.560135 243.826749 
L 275.162592 250.633127 
L 289.448583 257.527932 
L 304.413624 264.50947 
L 320.066217 271.580079 
L 336.395935 278.734712 
L 350.537319 284.768563 
L 350.537319 284.768563 
" style="fill:none;stroke:#ffffff;stroke-linecap:square;"/>
   </g>
   <g id="line2d_15">
    <path clip-path="url(#pbc1832e4f6)" d="M 214.003675 53.568 
L 204.998186 56.807658 
L 196.450371 60.113659 
L 188.36045 63.487085 
L 180.728648 66.929864 
L 173.555966 70.441739 
L 168.143895 73.306329 
L 163.019251 76.222086 
L 158.191932 79.18554 
L 153.646938 82.207195 
L 149.394712 85.283591 
L 145.429319 88.421558 
L 141.757494 91.621505 
L 138.379344 94.887627 
L 135.296573 98.223055 
L 132.509149 101.63761 
L 130.033106 105.119389 
L 128.376782 107.785392 
L 126.896687 110.497474 
L 125.597516 113.253525 
L 124.4839 116.048655 
L 123.557475 118.886265 
L 122.826822 121.746411 
L 122.285989 124.646587 
L 121.93965 127.573038 
L 121.789631 130.520549 
L 121.833846 133.483144 
L 122.072196 136.455686 
L 122.500866 139.435609 
L 123.116278 142.409642 
L 123.917768 145.393579 
L 124.900468 148.378403 
L 126.064127 151.366685 
L 127.888602 155.34774 
L 130.018849 159.325413 
L 132.448301 163.301652 
L 135.183131 167.294182 
L 138.21348 171.292587 
L 141.541598 175.307415 
L 145.158437 179.330559 
L 149.078192 183.383583 
L 153.288793 187.453218 
L 158.958676 192.564608 
L 165.093316 197.72232 
L 171.686294 202.920461 
L 178.741803 208.165392 
L 186.258003 213.457104 
L 194.237078 218.798766 
L 202.677862 224.187731 
L 211.583717 229.630124 
L 220.952359 235.122501 
L 232.80737 241.783896 
L 245.335448 248.524768 
L 258.530465 255.342419 
L 272.401319 262.24042 
L 286.940721 269.216952 
L 302.152882 276.273619 
L 318.04087 283.414227 
L 337.423963 291.843188 
L 346.005304 295.488 
L 346.005304 295.488 
" style="fill:none;stroke:#ffffff;stroke-linecap:square;"/>
   </g>
   <g id="patch_3">
    <path d="M 57.6 307.584 
L 57.6 41.472 
" style="fill:none;stroke:#000000;stroke-linecap:square;stroke-linejoin:miter;stroke-width:0.8;"/>
   </g>
   <g id="patch_4">
    <path d="M 414.72 307.584 
L 414.72 41.472 
" style="fill:none;stroke:#000000;stroke-linecap:square;stroke-linejoin:miter;stroke-width:0.8;"/>
   </g>
   <g id="patch_5">
    <path d="M 57.6 307.584 
L 414.72 307.584 
" style="fill:none;stroke:#000000;stroke-linecap:square;stroke-linejoin:miter;stroke-width:0.8;"/>
   </g>
   <g id="patch_6">
    <path d="M 57.6 41.472 
L 414.72 41.472 
" style="fill:none;stroke:#000000;stroke-linecap:square;stroke-linejoin:miter;stroke-width:0.8;"/>
   </g>
  </g>
 </g>
 <defs>
  <clipPath id="pbc1832e4f6">
   <rect height="266.112" width="357.12" x="57.6" y="41.472"/>
  </clipPath>
 </defs>
</svg>
