<?xml version="1.0" encoding="utf-8" standalone="no"?>
<!DOCTYPE svg PUBLIC "-//W3C//DTD SVG 1.1//EN"
  "http://www.w3.org/Graphics/SVG/1.1/DTD/svg11.dtd">
<!-- Created with matplotlib (https://matplotlib.org/) -->
<svg height="345.6pt" version="1.1" viewBox="0 0 460.8 345.6" width="460.8pt" xmlns="http://www.w3.org/2000/svg" xmlns:xlink="http://www.w3.org/1999/xlink">
 <metadata>
  <rdf:RDF xmlns:cc="http://creativecommons.org/ns#" xmlns:dc="http://purl.org/dc/elements/1.1/" xmlns:rdf="http://www.w3.org/1999/02/22-rdf-syntax-ns#">
   <cc:Work>
    <dc:type rdf:resource="http://purl.org/dc/dcmitype/StillImage"/>
    <dc:date>2021-01-09T17:21:53.824671</dc:date>
    <dc:format>image/svg+xml</dc:format>
    <dc:creator>
     <cc:Agent>
      <dc:title>Matplotlib v3.3.3, https://matplotlib.org/</dc:title>
     </cc:Agent>
    </dc:creator>
   </cc:Work>
  </rdf:RDF>
 </metadata>
 <defs>
  <style type="text/css">*{stroke-linecap:butt;stroke-linejoin:round;}</style>
 </defs>
 <g id="figure_1">
  <g id="patch_1">
   <path d="M 0 345.6 
L 460.8 345.6 
L 460.8 0 
L 0 0 
z
" style="fill:#ffffff;"/>
  </g>
  <g id="axes_1">
   <g id="patch_2">
    <path d="M 57.6 307.584 
L 414.72 307.584 
L 414.72 41.472 
L 57.6 41.472 
z
" style="fill:#7d9051;"/>
   </g>
   <g id="matplotlib.axis_1">
    <g id="xtick_1">
     <g id="line2d_1">
      <defs>
       <path d="M 0 0 
L 0 3.5 
" id="mc0faf35b14" style="stroke:#000000;stroke-width:0.8;"/>
      </defs>
      <g>
       <use style="stroke:#000000;stroke-width:0.8;" x="108.871392" xlink:href="#mc0faf35b14" y="307.584"/>
      </g>
     </g>
     <g id="text_1">
      <!-- 100 -->
      <g transform="translate(99.327642 322.182437)scale(0.1 -0.1)">
       <defs>
        <path d="M 12.40625 8.296875 
L 28.515625 8.296875 
L 28.515625 63.921875 
L 10.984375 60.40625 
L 10.984375 69.390625 
L 28.421875 72.90625 
L 38.28125 72.90625 
L 38.28125 8.296875 
L 54.390625 8.296875 
L 54.390625 0 
L 12.40625 0 
z
" id="DejaVuSans-49"/>
        <path d="M 31.78125 66.40625 
Q 24.171875 66.40625 20.328125 58.90625 
Q 16.5 51.421875 16.5 36.375 
Q 16.5 21.390625 20.328125 13.890625 
Q 24.171875 6.390625 31.78125 6.390625 
Q 39.453125 6.390625 43.28125 13.890625 
Q 47.125 21.390625 47.125 36.375 
Q 47.125 51.421875 43.28125 58.90625 
Q 39.453125 66.40625 31.78125 66.40625 
z
M 31.78125 74.21875 
Q 44.046875 74.21875 50.515625 64.515625 
Q 56.984375 54.828125 56.984375 36.375 
Q 56.984375 17.96875 50.515625 8.265625 
Q 44.046875 -1.421875 31.78125 -1.421875 
Q 19.53125 -1.421875 13.0625 8.265625 
Q 6.59375 17.96875 6.59375 36.375 
Q 6.59375 54.828125 13.0625 64.515625 
Q 19.53125 74.21875 31.78125 74.21875 
z
" id="DejaVuSans-48"/>
       </defs>
       <use xlink:href="#DejaVuSans-49"/>
       <use x="63.623047" xlink:href="#DejaVuSans-48"/>
       <use x="127.246094" xlink:href="#DejaVuSans-48"/>
      </g>
     </g>
    </g>
    <g id="xtick_2">
     <g id="line2d_2">
      <g>
       <use style="stroke:#000000;stroke-width:0.8;" x="164.733572" xlink:href="#mc0faf35b14" y="307.584"/>
      </g>
     </g>
     <g id="text_2">
      <!-- 120 -->
      <g transform="translate(155.189822 322.182437)scale(0.1 -0.1)">
       <defs>
        <path d="M 19.1875 8.296875 
L 53.609375 8.296875 
L 53.609375 0 
L 7.328125 0 
L 7.328125 8.296875 
Q 12.9375 14.109375 22.625 23.890625 
Q 32.328125 33.6875 34.8125 36.53125 
Q 39.546875 41.84375 41.421875 45.53125 
Q 43.3125 49.21875 43.3125 52.78125 
Q 43.3125 58.59375 39.234375 62.25 
Q 35.15625 65.921875 28.609375 65.921875 
Q 23.96875 65.921875 18.8125 64.3125 
Q 13.671875 62.703125 7.8125 59.421875 
L 7.8125 69.390625 
Q 13.765625 71.78125 18.9375 73 
Q 24.125 74.21875 28.421875 74.21875 
Q 39.75 74.21875 46.484375 68.546875 
Q 53.21875 62.890625 53.21875 53.421875 
Q 53.21875 48.921875 51.53125 44.890625 
Q 49.859375 40.875 45.40625 35.40625 
Q 44.1875 33.984375 37.640625 27.21875 
Q 31.109375 20.453125 19.1875 8.296875 
z
" id="DejaVuSans-50"/>
       </defs>
       <use xlink:href="#DejaVuSans-49"/>
       <use x="63.623047" xlink:href="#DejaVuSans-50"/>
       <use x="127.246094" xlink:href="#DejaVuSans-48"/>
      </g>
     </g>
    </g>
    <g id="xtick_3">
     <g id="line2d_3">
      <g>
       <use style="stroke:#000000;stroke-width:0.8;" x="220.595752" xlink:href="#mc0faf35b14" y="307.584"/>
      </g>
     </g>
     <g id="text_3">
      <!-- 140 -->
      <g transform="translate(211.052002 322.182437)scale(0.1 -0.1)">
       <defs>
        <path d="M 37.796875 64.3125 
L 12.890625 25.390625 
L 37.796875 25.390625 
z
M 35.203125 72.90625 
L 47.609375 72.90625 
L 47.609375 25.390625 
L 58.015625 25.390625 
L 58.015625 17.1875 
L 47.609375 17.1875 
L 47.609375 0 
L 37.796875 0 
L 37.796875 17.1875 
L 4.890625 17.1875 
L 4.890625 26.703125 
z
" id="DejaVuSans-52"/>
       </defs>
       <use xlink:href="#DejaVuSans-49"/>
       <use x="63.623047" xlink:href="#DejaVuSans-52"/>
       <use x="127.246094" xlink:href="#DejaVuSans-48"/>
      </g>
     </g>
    </g>
    <g id="xtick_4">
     <g id="line2d_4">
      <g>
       <use style="stroke:#000000;stroke-width:0.8;" x="276.457932" xlink:href="#mc0faf35b14" y="307.584"/>
      </g>
     </g>
     <g id="text_4">
      <!-- 160 -->
      <g transform="translate(266.914182 322.182437)scale(0.1 -0.1)">
       <defs>
        <path d="M 33.015625 40.375 
Q 26.375 40.375 22.484375 35.828125 
Q 18.609375 31.296875 18.609375 23.390625 
Q 18.609375 15.53125 22.484375 10.953125 
Q 26.375 6.390625 33.015625 6.390625 
Q 39.65625 6.390625 43.53125 10.953125 
Q 47.40625 15.53125 47.40625 23.390625 
Q 47.40625 31.296875 43.53125 35.828125 
Q 39.65625 40.375 33.015625 40.375 
z
M 52.59375 71.296875 
L 52.59375 62.3125 
Q 48.875 64.0625 45.09375 64.984375 
Q 41.3125 65.921875 37.59375 65.921875 
Q 27.828125 65.921875 22.671875 59.328125 
Q 17.53125 52.734375 16.796875 39.40625 
Q 19.671875 43.65625 24.015625 45.921875 
Q 28.375 48.1875 33.59375 48.1875 
Q 44.578125 48.1875 50.953125 41.515625 
Q 57.328125 34.859375 57.328125 23.390625 
Q 57.328125 12.15625 50.6875 5.359375 
Q 44.046875 -1.421875 33.015625 -1.421875 
Q 20.359375 -1.421875 13.671875 8.265625 
Q 6.984375 17.96875 6.984375 36.375 
Q 6.984375 53.65625 15.1875 63.9375 
Q 23.390625 74.21875 37.203125 74.21875 
Q 40.921875 74.21875 44.703125 73.484375 
Q 48.484375 72.75 52.59375 71.296875 
z
" id="DejaVuSans-54"/>
       </defs>
       <use xlink:href="#DejaVuSans-49"/>
       <use x="63.623047" xlink:href="#DejaVuSans-54"/>
       <use x="127.246094" xlink:href="#DejaVuSans-48"/>
      </g>
     </g>
    </g>
    <g id="xtick_5">
     <g id="line2d_5">
      <g>
       <use style="stroke:#000000;stroke-width:0.8;" x="332.320112" xlink:href="#mc0faf35b14" y="307.584"/>
      </g>
     </g>
     <g id="text_5">
      <!-- 180 -->
      <g transform="translate(322.776362 322.182437)scale(0.1 -0.1)">
       <defs>
        <path d="M 31.78125 34.625 
Q 24.75 34.625 20.71875 30.859375 
Q 16.703125 27.09375 16.703125 20.515625 
Q 16.703125 13.921875 20.71875 10.15625 
Q 24.75 6.390625 31.78125 6.390625 
Q 38.8125 6.390625 42.859375 10.171875 
Q 46.921875 13.96875 46.921875 20.515625 
Q 46.921875 27.09375 42.890625 30.859375 
Q 38.875 34.625 31.78125 34.625 
z
M 21.921875 38.8125 
Q 15.578125 40.375 12.03125 44.71875 
Q 8.5 49.078125 8.5 55.328125 
Q 8.5 64.0625 14.71875 69.140625 
Q 20.953125 74.21875 31.78125 74.21875 
Q 42.671875 74.21875 48.875 69.140625 
Q 55.078125 64.0625 55.078125 55.328125 
Q 55.078125 49.078125 51.53125 44.71875 
Q 48 40.375 41.703125 38.8125 
Q 48.828125 37.15625 52.796875 32.3125 
Q 56.78125 27.484375 56.78125 20.515625 
Q 56.78125 9.90625 50.3125 4.234375 
Q 43.84375 -1.421875 31.78125 -1.421875 
Q 19.734375 -1.421875 13.25 4.234375 
Q 6.78125 9.90625 6.78125 20.515625 
Q 6.78125 27.484375 10.78125 32.3125 
Q 14.796875 37.15625 21.921875 38.8125 
z
M 18.3125 54.390625 
Q 18.3125 48.734375 21.84375 45.5625 
Q 25.390625 42.390625 31.78125 42.390625 
Q 38.140625 42.390625 41.71875 45.5625 
Q 45.3125 48.734375 45.3125 54.390625 
Q 45.3125 60.0625 41.71875 63.234375 
Q 38.140625 66.40625 31.78125 66.40625 
Q 25.390625 66.40625 21.84375 63.234375 
Q 18.3125 60.0625 18.3125 54.390625 
z
" id="DejaVuSans-56"/>
       </defs>
       <use xlink:href="#DejaVuSans-49"/>
       <use x="63.623047" xlink:href="#DejaVuSans-56"/>
       <use x="127.246094" xlink:href="#DejaVuSans-48"/>
      </g>
     </g>
    </g>
    <g id="xtick_6">
     <g id="line2d_6">
      <g>
       <use style="stroke:#000000;stroke-width:0.8;" x="388.182292" xlink:href="#mc0faf35b14" y="307.584"/>
      </g>
     </g>
     <g id="text_6">
      <!-- 200 -->
      <g transform="translate(378.638542 322.182437)scale(0.1 -0.1)">
       <use xlink:href="#DejaVuSans-50"/>
       <use x="63.623047" xlink:href="#DejaVuSans-48"/>
       <use x="127.246094" xlink:href="#DejaVuSans-48"/>
      </g>
     </g>
    </g>
   </g>
   <g id="matplotlib.axis_2">
    <g id="ytick_1">
     <g id="line2d_7">
      <defs>
       <path d="M 0 0 
L -3.5 0 
" id="m3bd8d8e911" style="stroke:#000000;stroke-width:0.8;"/>
      </defs>
      <g>
       <use style="stroke:#000000;stroke-width:0.8;" x="57.6" xlink:href="#m3bd8d8e911" y="260.135671"/>
      </g>
     </g>
     <g id="text_7">
      <!-- 80 -->
      <g transform="translate(37.875 263.934889)scale(0.1 -0.1)">
       <use xlink:href="#DejaVuSans-56"/>
       <use x="63.623047" xlink:href="#DejaVuSans-48"/>
      </g>
     </g>
    </g>
    <g id="ytick_2">
     <g id="line2d_8">
      <g>
       <use style="stroke:#000000;stroke-width:0.8;" x="57.6" xlink:href="#m3bd8d8e911" y="204.273491"/>
      </g>
     </g>
     <g id="text_8">
      <!-- 100 -->
      <g transform="translate(31.5125 208.072709)scale(0.1 -0.1)">
       <use xlink:href="#DejaVuSans-49"/>
       <use x="63.623047" xlink:href="#DejaVuSans-48"/>
       <use x="127.246094" xlink:href="#DejaVuSans-48"/>
      </g>
     </g>
    </g>
    <g id="ytick_3">
     <g id="line2d_9">
      <g>
       <use style="stroke:#000000;stroke-width:0.8;" x="57.6" xlink:href="#m3bd8d8e911" y="148.411311"/>
      </g>
     </g>
     <g id="text_9">
      <!-- 120 -->
      <g transform="translate(31.5125 152.210529)scale(0.1 -0.1)">
       <use xlink:href="#DejaVuSans-49"/>
       <use x="63.623047" xlink:href="#DejaVuSans-50"/>
       <use x="127.246094" xlink:href="#DejaVuSans-48"/>
      </g>
     </g>
    </g>
    <g id="ytick_4">
     <g id="line2d_10">
      <g>
       <use style="stroke:#000000;stroke-width:0.8;" x="57.6" xlink:href="#m3bd8d8e911" y="92.54913"/>
      </g>
     </g>
     <g id="text_10">
      <!-- 140 -->
      <g transform="translate(31.5125 96.348349)scale(0.1 -0.1)">
       <use xlink:href="#DejaVuSans-49"/>
       <use x="63.623047" xlink:href="#DejaVuSans-52"/>
       <use x="127.246094" xlink:href="#DejaVuSans-48"/>
      </g>
     </g>
    </g>
   </g>
   <g id="line2d_11">
    <path clip-path="url(#pdca29c02af)" d="M 170.31979 56.238713 
L 169.194167 60.811033 
L 168.107647 65.335869 
L 167.057439 69.813223 
L 166.049126 74.245887 
L 165.079917 78.631068 
L 164.152605 82.97156 
L 163.261603 87.264568 
L 162.409705 91.512887 
L 161.59691 95.713723 
L 160.826012 99.867076 
L 160.091425 103.975739 
L 159.398734 108.039713 
L 158.742353 112.056204 
L 158.127869 116.025212 
L 157.552489 119.946737 
L 157.016212 123.826365 
L 156.519038 127.655718 
L 156.060968 131.44038 
L 155.642002 135.17756 
L 155.262139 138.87005 
L 154.92138 142.515057 
L 154.619724 146.115375 
L 154.359965 149.66821 
L 154.136516 153.176354 
L 153.954964 156.637017 
L 153.809723 160.050196 
L 153.706377 163.418685 
L 153.642136 166.739692 
L 153.616998 170.016009 
L 153.630964 173.244843 
L 153.684033 176.428987 
L 153.776205 179.565648 
L 153.907481 182.654827 
L 154.077861 185.699316 
L 154.287344 188.699115 
L 154.538724 191.648638 
L 154.826414 194.556264 
L 155.153208 197.413615 
L 155.521898 200.226276 
L 155.929692 202.994247 
L 156.373797 205.714735 
L 156.859798 208.38774 
L 157.384902 211.016056 
L 157.94911 213.596888 
L 158.552422 216.133031 
L 159.194837 218.621692 
L 159.876355 221.062869 
L 160.596977 223.459356 
L 161.359496 225.811154 
L 162.158325 228.112676 
L 162.999051 230.372301 
L 163.876087 232.58165 
L 164.79502 234.74631 
L 165.750263 236.86628 
L 166.747403 238.938766 
L 167.783647 240.96377 
L 168.858994 242.944085 
L 169.973444 244.879709 
L 171.126998 246.765058 
L 172.319656 248.605717 
L 173.551417 250.401686 
L 174.825075 252.150172 
L 176.135043 253.851175 
L 177.484114 255.507489 
L 178.875083 257.119113 
L 180.305155 258.680461 
L 181.771537 260.199912 
L 183.279816 261.669087 
L 184.827198 263.093573 
L 186.413684 264.473369 
L 188.039273 265.805682 
L 189.703966 267.090512 
L 191.407763 268.330652 
L 193.150663 269.52331 
L 194.932666 270.671278 
L 196.753773 271.771763 
L 198.616777 272.824765 
L 200.516091 273.833077 
L 202.457302 274.7967 
L 204.437616 275.710046 
L 206.454241 276.581496 
L 208.512762 277.40267 
L 210.610387 278.179155 
L 212.747116 278.910949 
L 214.922948 279.595261 
L 217.137883 280.23209 
L 219.391922 280.824229 
L 221.685064 281.368885 
L 224.020104 281.868852 
L 226.391453 282.321335 
L 228.801906 282.729129 
L 231.254256 283.08944 
L 233.742916 283.402269 
L 236.273473 283.670407 
L 238.843133 283.891063 
L 241.451897 284.067029 
L 244.099764 284.195512 
L 246.786735 284.279305 
L 249.512809 284.315615 
L 252.277987 284.307236 
L 255.082269 284.248581 
L 257.925654 284.148029 
L 260.810935 283.999994 
L 263.732527 283.804476 
L 266.693223 283.561476 
L 269.695815 283.273786 
L 272.737511 282.941406 
L 275.815517 282.561543 
L 278.93542 282.134197 
L 282.094426 281.662162 
L 285.292536 281.142643 
L 288.529749 280.578435 
L 291.806066 279.966745 
L 295.121486 279.310364 
L 298.47601 278.6065 
L 301.872431 277.855154 
L 305.305162 277.059118 
L 308.779789 276.215599 
L 312.290727 275.327391 
L 315.843562 274.391699 
L 319.432707 273.411318 
L 323.063749 272.383454 
L 326.733894 271.308107 
" style="fill:none;stroke:#fea952;stroke-linecap:square;"/>
   </g>
   <g id="line2d_12">
    <path clip-path="url(#pdca29c02af)" d="M 181.16832 58.909427 
L 180.057797 63.419645 
L 178.984866 67.887232 
L 177.951576 72.291348 
L 176.958286 76.65702 
L 176.005791 80.965296 
L 175.091915 85.241983 
L 174.215969 89.461203 
L 173.378709 93.635214 
L 172.581732 97.7526 
L 171.82405 101.833415 
L 171.105022 105.852971 
L 170.424904 109.841625 
L 169.783251 113.765562 
L 169.181953 117.647107 
L 168.619693 121.476545 
L 168.095658 125.264834 
L 167.61053 128.998156 
L 167.163851 132.685098 
L 166.755783 136.320884 
L 166.386071 139.909989 
L 166.054806 143.447881 
L 165.762418 146.930053 
L 165.509807 150.378391 
L 165.293609 153.761674 
L 165.117299 157.112009 
L 164.976904 160.392804 
L 164.876724 163.634764 
L 164.814243 166.825411 
L 164.789329 169.967685 
L 164.801848 173.058661 
L 164.851648 176.10082 
L 164.938567 179.091298 
L 165.062463 182.030557 
L 165.223155 184.921013 
L 165.419423 187.750358 
L 165.65687 190.548572 
L 165.926489 193.286754 
L 166.230878 195.961527 
L 166.575025 198.597863 
L 166.956173 201.194236 
L 167.36602 203.716149 
L 167.81572 206.198884 
L 168.299563 208.62995 
L 168.818239 211.011281 
L 169.370248 213.340551 
L 169.955789 215.61749 
L 170.575547 217.845629 
L 171.224754 220.013533 
L 171.914243 222.147735 
L 172.629475 224.216735 
L 173.383226 226.250138 
L 174.160216 228.215872 
L 174.981144 230.156515 
L 175.818022 232.022358 
L 176.693256 233.849234 
L 177.601917 235.63227 
L 178.541278 237.369436 
L 179.503539 239.048703 
L 180.503223 240.68972 
L 181.533313 242.286552 
L 182.581976 243.823515 
L 183.676832 245.333302 
L 184.797631 246.795476 
L 185.941978 248.207635 
L 187.113948 249.57296 
L 188.344404 250.921994 
L 189.567216 252.196743 
L 190.846757 253.449311 
L 192.159048 254.66343 
L 193.495767 255.832337 
L 194.865562 256.961186 
L 196.278798 258.057522 
L 197.717187 259.110322 
L 199.201168 260.131041 
L 200.711003 261.109157 
L 202.251252 262.045455 
L 203.855554 262.956708 
L 205.483738 263.825789 
L 207.13648 264.651326 
L 208.869493 265.454229 
L 210.593867 266.20427 
L 212.391292 266.925059 
L 214.230347 267.609424 
L 216.099044 268.253187 
L 218.010131 268.857821 
L 219.976579 269.426298 
L 221.973721 269.954195 
L 224.02423 270.444068 
L 226.114165 270.894416 
L 228.255094 271.30543 
L 230.425979 271.675365 
L 232.647682 272.004239 
L 234.92016 272.292029 
L 237.229327 272.538935 
L 239.595026 272.743956 
L 241.993382 272.907722 
L 244.448008 273.028504 
L 246.935535 273.10786 
L 249.478954 273.143231 
L 252.044352 273.137243 
L 254.68742 273.083124 
L 257.353184 272.990269 
L 260.064927 272.852492 
L 262.818617 272.669482 
L 265.627628 272.439973 
L 268.482176 272.167463 
L 271.36908 271.853091 
L 274.29934 271.492463 
L 277.284306 271.084439 
L 280.302998 270.634283 
L 283.37423 270.136126 
L 286.479277 269.595772 
L 289.636282 269.007029 
L 292.827189 268.376036 
L 296.062818 267.697796 
L 299.348562 266.971524 
L 302.669439 266.202033 
L 306.039674 265.38439 
L 309.445327 264.523362 
L 312.899642 263.614099 
L 316.389624 262.661296 
L 319.922309 261.661761 
L 323.592455 260.586414 
" style="fill:none;stroke:#ffffff;stroke-linecap:square;"/>
   </g>
   <g id="line2d_13">
    <path clip-path="url(#pdca29c02af)" d="M 159.471259 53.568 
L 158.330536 58.20242 
L 157.230429 62.784507 
L 156.163301 67.335099 
L 155.139966 71.834754 
L 154.154044 76.296841 
L 153.213295 80.701137 
L 152.307238 85.067933 
L 151.440701 89.39056 
L 150.612089 93.674846 
L 149.827974 97.900737 
L 149.077827 102.098508 
L 148.372563 106.237801 
L 147.701455 110.346846 
L 147.073785 114.403316 
L 146.485284 118.416929 
L 145.936765 122.387896 
L 145.427547 126.313279 
L 144.958086 130.195662 
L 144.528221 134.034236 
L 144.138208 137.830112 
L 143.787954 141.582234 
L 143.47703 145.300697 
L 143.210123 148.958029 
L 142.979423 152.591035 
L 142.79263 156.162024 
L 142.642541 159.707587 
L 142.536031 163.202606 
L 142.470029 166.653972 
L 142.444666 170.064332 
L 142.460079 173.431024 
L 142.516417 176.757154 
L 142.613844 180.039998 
L 142.7525 183.279097 
L 142.932567 186.477618 
L 143.155265 189.647872 
L 143.420578 192.748704 
L 143.726339 195.825774 
L 144.075538 198.865703 
L 144.468772 201.854688 
L 144.903211 204.794257 
L 145.381573 207.713321 
L 145.903875 210.576596 
L 146.470241 213.402161 
L 147.079981 216.182496 
L 147.734595 218.925512 
L 148.433884 221.625893 
L 149.177164 224.280108 
L 149.969201 226.905179 
L 150.804749 229.474574 
L 151.687176 232.008617 
L 152.614876 234.494464 
L 153.591959 236.947429 
L 154.608897 239.336105 
L 155.682505 241.710201 
L 156.801551 244.028299 
L 157.965377 246.295271 
L 159.17671 248.518733 
L 160.44335 250.710715 
L 161.750774 252.840396 
L 163.105998 254.924881 
L 164.520858 256.979857 
L 165.973318 258.967042 
L 167.472455 260.906875 
L 169.026251 262.807343 
L 170.636217 264.665265 
L 172.265905 266.438927 
L 173.975857 268.203081 
L 175.712874 269.888864 
L 177.495348 271.523716 
L 179.331601 273.114401 
L 181.212985 274.650178 
L 183.129134 276.123502 
L 185.098338 277.550983 
L 187.100157 278.915579 
L 189.15433 280.233398 
L 191.256295 281.49807 
L 193.378 282.692821 
L 195.548445 283.840365 
L 197.778124 284.942074 
L 200.005739 285.965864 
L 202.314615 286.958723 
L 204.634233 287.880282 
L 206.990427 288.748886 
L 209.395188 289.568712 
L 211.835764 290.332701 
L 214.299187 291.037881 
L 216.810123 291.694263 
L 219.345899 292.293703 
L 221.926042 292.843287 
L 224.527812 293.337241 
L 227.177834 293.782894 
L 229.86083 294.174642 
L 232.565672 294.512508 
L 235.317618 294.801879 
L 238.09124 295.038169 
L 240.910411 295.226335 
L 243.751521 295.362519 
L 246.637935 295.45075 
L 249.546665 295.488 
L 252.511623 295.477229 
L 255.477118 295.414037 
L 258.498123 295.305789 
L 261.556944 295.147496 
L 264.646437 294.939471 
L 267.758818 294.682979 
L 270.909454 294.380109 
L 274.105942 294.02972 
L 277.331693 293.630623 
L 280.586533 293.183955 
L 283.885854 292.690041 
L 287.210842 292.149161 
L 290.580221 291.561099 
L 293.97585 290.92646 
L 297.415783 290.244692 
L 300.889202 289.515205 
L 304.3963 288.738785 
L 307.940885 287.916203 
L 311.519904 287.046809 
L 315.136128 286.131419 
L 318.787482 285.169299 
L 322.47579 284.16134 
L 326.205188 283.105146 
L 329.875334 282.029799 
" style="fill:none;stroke:#ffffff;stroke-linecap:square;"/>
   </g>
   <g id="patch_3">
    <path d="M 57.6 307.584 
L 57.6 41.472 
" style="fill:none;stroke:#000000;stroke-linecap:square;stroke-linejoin:miter;stroke-width:0.8;"/>
   </g>
   <g id="patch_4">
    <path d="M 414.72 307.584 
L 414.72 41.472 
" style="fill:none;stroke:#000000;stroke-linecap:square;stroke-linejoin:miter;stroke-width:0.8;"/>
   </g>
   <g id="patch_5">
    <path d="M 57.6 307.584 
L 414.72 307.584 
" style="fill:none;stroke:#000000;stroke-linecap:square;stroke-linejoin:miter;stroke-width:0.8;"/>
   </g>
   <g id="patch_6">
    <path d="M 57.6 41.472 
L 414.72 41.472 
" style="fill:none;stroke:#000000;stroke-linecap:square;stroke-linejoin:miter;stroke-width:0.8;"/>
   </g>
  </g>
 </g>
 <defs>
  <clipPath id="pdca29c02af">
   <rect height="266.112" width="357.12" x="57.6" y="41.472"/>
  </clipPath>
 </defs>
</svg>
