<?xml version="1.0" encoding="utf-8" standalone="no"?>
<!DOCTYPE svg PUBLIC "-//W3C//DTD SVG 1.1//EN"
  "http://www.w3.org/Graphics/SVG/1.1/DTD/svg11.dtd">
<!-- Created with matplotlib (https://matplotlib.org/) -->
<svg height="345.6pt" version="1.1" viewBox="0 0 460.8 345.6" width="460.8pt" xmlns="http://www.w3.org/2000/svg" xmlns:xlink="http://www.w3.org/1999/xlink">
 <metadata>
  <rdf:RDF xmlns:cc="http://creativecommons.org/ns#" xmlns:dc="http://purl.org/dc/elements/1.1/" xmlns:rdf="http://www.w3.org/1999/02/22-rdf-syntax-ns#">
   <cc:Work>
    <dc:type rdf:resource="http://purl.org/dc/dcmitype/StillImage"/>
    <dc:date>2021-01-09T17:33:30.962929</dc:date>
    <dc:format>image/svg+xml</dc:format>
    <dc:creator>
     <cc:Agent>
      <dc:title>Matplotlib v3.3.3, https://matplotlib.org/</dc:title>
     </cc:Agent>
    </dc:creator>
   </cc:Work>
  </rdf:RDF>
 </metadata>
 <defs>
  <style type="text/css">*{stroke-linecap:butt;stroke-linejoin:round;}</style>
 </defs>
 <g id="figure_1">
  <g id="patch_1">
   <path d="M 0 345.6 
L 460.8 345.6 
L 460.8 0 
L 0 0 
z
" style="fill:#ffffff;"/>
  </g>
  <g id="axes_1">
   <g id="patch_2">
    <path d="M 57.6 307.584 
L 414.72 307.584 
L 414.72 41.472 
L 57.6 41.472 
z
" style="fill:#7d9051;"/>
   </g>
   <g id="matplotlib.axis_1">
    <g id="xtick_1">
     <g id="line2d_1">
      <defs>
       <path d="M 0 0 
L 0 3.5 
" id="m1ec56e87de" style="stroke:#000000;stroke-width:0.8;"/>
      </defs>
      <g>
       <use style="stroke:#000000;stroke-width:0.8;" x="85.053751" xlink:href="#m1ec56e87de" y="307.584"/>
      </g>
     </g>
     <g id="text_1">
      <!-- 80 -->
      <g transform="translate(78.691251 322.182437)scale(0.1 -0.1)">
       <defs>
        <path d="M 31.78125 34.625 
Q 24.75 34.625 20.71875 30.859375 
Q 16.703125 27.09375 16.703125 20.515625 
Q 16.703125 13.921875 20.71875 10.15625 
Q 24.75 6.390625 31.78125 6.390625 
Q 38.8125 6.390625 42.859375 10.171875 
Q 46.921875 13.96875 46.921875 20.515625 
Q 46.921875 27.09375 42.890625 30.859375 
Q 38.875 34.625 31.78125 34.625 
z
M 21.921875 38.8125 
Q 15.578125 40.375 12.03125 44.71875 
Q 8.5 49.078125 8.5 55.328125 
Q 8.5 64.0625 14.71875 69.140625 
Q 20.953125 74.21875 31.78125 74.21875 
Q 42.671875 74.21875 48.875 69.140625 
Q 55.078125 64.0625 55.078125 55.328125 
Q 55.078125 49.078125 51.53125 44.71875 
Q 48 40.375 41.703125 38.8125 
Q 48.828125 37.15625 52.796875 32.3125 
Q 56.78125 27.484375 56.78125 20.515625 
Q 56.78125 9.90625 50.3125 4.234375 
Q 43.84375 -1.421875 31.78125 -1.421875 
Q 19.734375 -1.421875 13.25 4.234375 
Q 6.78125 9.90625 6.78125 20.515625 
Q 6.78125 27.484375 10.78125 32.3125 
Q 14.796875 37.15625 21.921875 38.8125 
z
M 18.3125 54.390625 
Q 18.3125 48.734375 21.84375 45.5625 
Q 25.390625 42.390625 31.78125 42.390625 
Q 38.140625 42.390625 41.71875 45.5625 
Q 45.3125 48.734375 45.3125 54.390625 
Q 45.3125 60.0625 41.71875 63.234375 
Q 38.140625 66.40625 31.78125 66.40625 
Q 25.390625 66.40625 21.84375 63.234375 
Q 18.3125 60.0625 18.3125 54.390625 
z
" id="DejaVuSans-56"/>
        <path d="M 31.78125 66.40625 
Q 24.171875 66.40625 20.328125 58.90625 
Q 16.5 51.421875 16.5 36.375 
Q 16.5 21.390625 20.328125 13.890625 
Q 24.171875 6.390625 31.78125 6.390625 
Q 39.453125 6.390625 43.28125 13.890625 
Q 47.125 21.390625 47.125 36.375 
Q 47.125 51.421875 43.28125 58.90625 
Q 39.453125 66.40625 31.78125 66.40625 
z
M 31.78125 74.21875 
Q 44.046875 74.21875 50.515625 64.515625 
Q 56.984375 54.828125 56.984375 36.375 
Q 56.984375 17.96875 50.515625 8.265625 
Q 44.046875 -1.421875 31.78125 -1.421875 
Q 19.53125 -1.421875 13.0625 8.265625 
Q 6.59375 17.96875 6.59375 36.375 
Q 6.59375 54.828125 13.0625 64.515625 
Q 19.53125 74.21875 31.78125 74.21875 
z
" id="DejaVuSans-48"/>
       </defs>
       <use xlink:href="#DejaVuSans-56"/>
       <use x="63.623047" xlink:href="#DejaVuSans-48"/>
      </g>
     </g>
    </g>
    <g id="xtick_2">
     <g id="line2d_2">
      <g>
       <use style="stroke:#000000;stroke-width:0.8;" x="153.208748" xlink:href="#m1ec56e87de" y="307.584"/>
      </g>
     </g>
     <g id="text_2">
      <!-- 100 -->
      <g transform="translate(143.664998 322.182437)scale(0.1 -0.1)">
       <defs>
        <path d="M 12.40625 8.296875 
L 28.515625 8.296875 
L 28.515625 63.921875 
L 10.984375 60.40625 
L 10.984375 69.390625 
L 28.421875 72.90625 
L 38.28125 72.90625 
L 38.28125 8.296875 
L 54.390625 8.296875 
L 54.390625 0 
L 12.40625 0 
z
" id="DejaVuSans-49"/>
       </defs>
       <use xlink:href="#DejaVuSans-49"/>
       <use x="63.623047" xlink:href="#DejaVuSans-48"/>
       <use x="127.246094" xlink:href="#DejaVuSans-48"/>
      </g>
     </g>
    </g>
    <g id="xtick_3">
     <g id="line2d_3">
      <g>
       <use style="stroke:#000000;stroke-width:0.8;" x="221.363746" xlink:href="#m1ec56e87de" y="307.584"/>
      </g>
     </g>
     <g id="text_3">
      <!-- 120 -->
      <g transform="translate(211.819996 322.182437)scale(0.1 -0.1)">
       <defs>
        <path d="M 19.1875 8.296875 
L 53.609375 8.296875 
L 53.609375 0 
L 7.328125 0 
L 7.328125 8.296875 
Q 12.9375 14.109375 22.625 23.890625 
Q 32.328125 33.6875 34.8125 36.53125 
Q 39.546875 41.84375 41.421875 45.53125 
Q 43.3125 49.21875 43.3125 52.78125 
Q 43.3125 58.59375 39.234375 62.25 
Q 35.15625 65.921875 28.609375 65.921875 
Q 23.96875 65.921875 18.8125 64.3125 
Q 13.671875 62.703125 7.8125 59.421875 
L 7.8125 69.390625 
Q 13.765625 71.78125 18.9375 73 
Q 24.125 74.21875 28.421875 74.21875 
Q 39.75 74.21875 46.484375 68.546875 
Q 53.21875 62.890625 53.21875 53.421875 
Q 53.21875 48.921875 51.53125 44.890625 
Q 49.859375 40.875 45.40625 35.40625 
Q 44.1875 33.984375 37.640625 27.21875 
Q 31.109375 20.453125 19.1875 8.296875 
z
" id="DejaVuSans-50"/>
       </defs>
       <use xlink:href="#DejaVuSans-49"/>
       <use x="63.623047" xlink:href="#DejaVuSans-50"/>
       <use x="127.246094" xlink:href="#DejaVuSans-48"/>
      </g>
     </g>
    </g>
    <g id="xtick_4">
     <g id="line2d_4">
      <g>
       <use style="stroke:#000000;stroke-width:0.8;" x="289.518743" xlink:href="#m1ec56e87de" y="307.584"/>
      </g>
     </g>
     <g id="text_4">
      <!-- 140 -->
      <g transform="translate(279.974993 322.182437)scale(0.1 -0.1)">
       <defs>
        <path d="M 37.796875 64.3125 
L 12.890625 25.390625 
L 37.796875 25.390625 
z
M 35.203125 72.90625 
L 47.609375 72.90625 
L 47.609375 25.390625 
L 58.015625 25.390625 
L 58.015625 17.1875 
L 47.609375 17.1875 
L 47.609375 0 
L 37.796875 0 
L 37.796875 17.1875 
L 4.890625 17.1875 
L 4.890625 26.703125 
z
" id="DejaVuSans-52"/>
       </defs>
       <use xlink:href="#DejaVuSans-49"/>
       <use x="63.623047" xlink:href="#DejaVuSans-52"/>
       <use x="127.246094" xlink:href="#DejaVuSans-48"/>
      </g>
     </g>
    </g>
    <g id="xtick_5">
     <g id="line2d_5">
      <g>
       <use style="stroke:#000000;stroke-width:0.8;" x="357.673741" xlink:href="#m1ec56e87de" y="307.584"/>
      </g>
     </g>
     <g id="text_5">
      <!-- 160 -->
      <g transform="translate(348.129991 322.182437)scale(0.1 -0.1)">
       <defs>
        <path d="M 33.015625 40.375 
Q 26.375 40.375 22.484375 35.828125 
Q 18.609375 31.296875 18.609375 23.390625 
Q 18.609375 15.53125 22.484375 10.953125 
Q 26.375 6.390625 33.015625 6.390625 
Q 39.65625 6.390625 43.53125 10.953125 
Q 47.40625 15.53125 47.40625 23.390625 
Q 47.40625 31.296875 43.53125 35.828125 
Q 39.65625 40.375 33.015625 40.375 
z
M 52.59375 71.296875 
L 52.59375 62.3125 
Q 48.875 64.0625 45.09375 64.984375 
Q 41.3125 65.921875 37.59375 65.921875 
Q 27.828125 65.921875 22.671875 59.328125 
Q 17.53125 52.734375 16.796875 39.40625 
Q 19.671875 43.65625 24.015625 45.921875 
Q 28.375 48.1875 33.59375 48.1875 
Q 44.578125 48.1875 50.953125 41.515625 
Q 57.328125 34.859375 57.328125 23.390625 
Q 57.328125 12.15625 50.6875 5.359375 
Q 44.046875 -1.421875 33.015625 -1.421875 
Q 20.359375 -1.421875 13.671875 8.265625 
Q 6.984375 17.96875 6.984375 36.375 
Q 6.984375 53.65625 15.1875 63.9375 
Q 23.390625 74.21875 37.203125 74.21875 
Q 40.921875 74.21875 44.703125 73.484375 
Q 48.484375 72.75 52.59375 71.296875 
z
" id="DejaVuSans-54"/>
       </defs>
       <use xlink:href="#DejaVuSans-49"/>
       <use x="63.623047" xlink:href="#DejaVuSans-54"/>
       <use x="127.246094" xlink:href="#DejaVuSans-48"/>
      </g>
     </g>
    </g>
   </g>
   <g id="matplotlib.axis_2">
    <g id="ytick_1">
     <g id="line2d_6">
      <defs>
       <path d="M 0 0 
L -3.5 0 
" id="m6aa9862d02" style="stroke:#000000;stroke-width:0.8;"/>
      </defs>
      <g>
       <use style="stroke:#000000;stroke-width:0.8;" x="57.6" xlink:href="#m6aa9862d02" y="278.037161"/>
      </g>
     </g>
     <g id="text_6">
      <!-- 20 -->
      <g transform="translate(37.875 281.83638)scale(0.1 -0.1)">
       <use xlink:href="#DejaVuSans-50"/>
       <use x="63.623047" xlink:href="#DejaVuSans-48"/>
      </g>
     </g>
    </g>
    <g id="ytick_2">
     <g id="line2d_7">
      <g>
       <use style="stroke:#000000;stroke-width:0.8;" x="57.6" xlink:href="#m6aa9862d02" y="243.959662"/>
      </g>
     </g>
     <g id="text_7">
      <!-- 30 -->
      <g transform="translate(37.875 247.758881)scale(0.1 -0.1)">
       <defs>
        <path d="M 40.578125 39.3125 
Q 47.65625 37.796875 51.625 33 
Q 55.609375 28.21875 55.609375 21.1875 
Q 55.609375 10.40625 48.1875 4.484375 
Q 40.765625 -1.421875 27.09375 -1.421875 
Q 22.515625 -1.421875 17.65625 -0.515625 
Q 12.796875 0.390625 7.625 2.203125 
L 7.625 11.71875 
Q 11.71875 9.328125 16.59375 8.109375 
Q 21.484375 6.890625 26.8125 6.890625 
Q 36.078125 6.890625 40.9375 10.546875 
Q 45.796875 14.203125 45.796875 21.1875 
Q 45.796875 27.640625 41.28125 31.265625 
Q 36.765625 34.90625 28.71875 34.90625 
L 20.21875 34.90625 
L 20.21875 43.015625 
L 29.109375 43.015625 
Q 36.375 43.015625 40.234375 45.921875 
Q 44.09375 48.828125 44.09375 54.296875 
Q 44.09375 59.90625 40.109375 62.90625 
Q 36.140625 65.921875 28.71875 65.921875 
Q 24.65625 65.921875 20.015625 65.03125 
Q 15.375 64.15625 9.8125 62.3125 
L 9.8125 71.09375 
Q 15.4375 72.65625 20.34375 73.4375 
Q 25.25 74.21875 29.59375 74.21875 
Q 40.828125 74.21875 47.359375 69.109375 
Q 53.90625 64.015625 53.90625 55.328125 
Q 53.90625 49.265625 50.4375 45.09375 
Q 46.96875 40.921875 40.578125 39.3125 
z
" id="DejaVuSans-51"/>
       </defs>
       <use xlink:href="#DejaVuSans-51"/>
       <use x="63.623047" xlink:href="#DejaVuSans-48"/>
      </g>
     </g>
    </g>
    <g id="ytick_3">
     <g id="line2d_8">
      <g>
       <use style="stroke:#000000;stroke-width:0.8;" x="57.6" xlink:href="#m6aa9862d02" y="209.882163"/>
      </g>
     </g>
     <g id="text_8">
      <!-- 40 -->
      <g transform="translate(37.875 213.681382)scale(0.1 -0.1)">
       <use xlink:href="#DejaVuSans-52"/>
       <use x="63.623047" xlink:href="#DejaVuSans-48"/>
      </g>
     </g>
    </g>
    <g id="ytick_4">
     <g id="line2d_9">
      <g>
       <use style="stroke:#000000;stroke-width:0.8;" x="57.6" xlink:href="#m6aa9862d02" y="175.804665"/>
      </g>
     </g>
     <g id="text_9">
      <!-- 50 -->
      <g transform="translate(37.875 179.603883)scale(0.1 -0.1)">
       <defs>
        <path d="M 10.796875 72.90625 
L 49.515625 72.90625 
L 49.515625 64.59375 
L 19.828125 64.59375 
L 19.828125 46.734375 
Q 21.96875 47.46875 24.109375 47.828125 
Q 26.265625 48.1875 28.421875 48.1875 
Q 40.625 48.1875 47.75 41.5 
Q 54.890625 34.8125 54.890625 23.390625 
Q 54.890625 11.625 47.5625 5.09375 
Q 40.234375 -1.421875 26.90625 -1.421875 
Q 22.3125 -1.421875 17.546875 -0.640625 
Q 12.796875 0.140625 7.71875 1.703125 
L 7.71875 11.625 
Q 12.109375 9.234375 16.796875 8.0625 
Q 21.484375 6.890625 26.703125 6.890625 
Q 35.15625 6.890625 40.078125 11.328125 
Q 45.015625 15.765625 45.015625 23.390625 
Q 45.015625 31 40.078125 35.4375 
Q 35.15625 39.890625 26.703125 39.890625 
Q 22.75 39.890625 18.8125 39.015625 
Q 14.890625 38.140625 10.796875 36.28125 
z
" id="DejaVuSans-53"/>
       </defs>
       <use xlink:href="#DejaVuSans-53"/>
       <use x="63.623047" xlink:href="#DejaVuSans-48"/>
      </g>
     </g>
    </g>
    <g id="ytick_5">
     <g id="line2d_10">
      <g>
       <use style="stroke:#000000;stroke-width:0.8;" x="57.6" xlink:href="#m6aa9862d02" y="141.727166"/>
      </g>
     </g>
     <g id="text_10">
      <!-- 60 -->
      <g transform="translate(37.875 145.526384)scale(0.1 -0.1)">
       <use xlink:href="#DejaVuSans-54"/>
       <use x="63.623047" xlink:href="#DejaVuSans-48"/>
      </g>
     </g>
    </g>
    <g id="ytick_6">
     <g id="line2d_11">
      <g>
       <use style="stroke:#000000;stroke-width:0.8;" x="57.6" xlink:href="#m6aa9862d02" y="107.649667"/>
      </g>
     </g>
     <g id="text_11">
      <!-- 70 -->
      <g transform="translate(37.875 111.448886)scale(0.1 -0.1)">
       <defs>
        <path d="M 8.203125 72.90625 
L 55.078125 72.90625 
L 55.078125 68.703125 
L 28.609375 0 
L 18.3125 0 
L 43.21875 64.59375 
L 8.203125 64.59375 
z
" id="DejaVuSans-55"/>
       </defs>
       <use xlink:href="#DejaVuSans-55"/>
       <use x="63.623047" xlink:href="#DejaVuSans-48"/>
      </g>
     </g>
    </g>
    <g id="ytick_7">
     <g id="line2d_12">
      <g>
       <use style="stroke:#000000;stroke-width:0.8;" x="57.6" xlink:href="#m6aa9862d02" y="73.572168"/>
      </g>
     </g>
     <g id="text_12">
      <!-- 80 -->
      <g transform="translate(37.875 77.371387)scale(0.1 -0.1)">
       <use xlink:href="#DejaVuSans-56"/>
       <use x="63.623047" xlink:href="#DejaVuSans-48"/>
      </g>
     </g>
    </g>
   </g>
   <g id="line2d_13">
    <path clip-path="url(#p9e23b50071)" d="M 102.0925 243.959662 
L 105.554774 246.270116 
L 108.996601 248.509008 
L 112.417982 250.676337 
L 115.818917 252.768695 
L 119.199405 254.789491 
L 122.562854 256.738724 
L 125.902449 258.612987 
L 129.225005 260.415686 
L 132.527114 262.146823 
L 135.808778 263.80299 
L 139.069994 265.387593 
L 142.314172 266.897226 
L 145.534496 268.338705 
L 148.737781 269.705212 
L 151.920619 270.99675 
L 155.083011 272.216724 
L 158.224956 273.365136 
L 161.346455 274.441985 
L 164.447507 275.443863 
L 167.531521 276.374179 
L 170.595088 277.229524 
L 173.634801 278.013307 
L 176.657475 278.725526 
L 179.659703 279.366183 
L 182.644892 279.93187 
L 185.606226 280.422586 
L 188.547115 280.845147 
L 191.470964 281.192737 
L 194.374367 281.468765 
L 197.257323 281.669822 
L 200.119833 281.799317 
L 202.961897 281.857248 
L 205.786921 281.84021 
L 208.588092 281.751608 
L 211.372223 281.591444 
L 214.135908 281.356309 
L 216.879147 281.049612 
L 219.601939 280.671351 
L 222.304285 280.218121 
L 224.986184 279.693327 
L 227.651044 279.096971 
L 230.295458 278.425644 
L 232.916018 277.682755 
L 235.519539 276.868303 
L 238.102613 275.97888 
L 240.668649 275.017894 
L 243.21083 273.985346 
L 245.735973 272.877827 
L 248.237261 271.698746 
L 250.721511 270.444694 
L 253.185314 269.122487 
L 255.628671 267.721902 
L 258.051581 266.253162 
L 260.457452 264.709451 
L 262.83947 263.094178 
L 265.204448 261.403934 
L 267.54898 259.645535 
L 269.873065 257.808758 
L 272.176704 255.903825 
L 274.459897 253.923923 
L 276.72605 251.872457 
L 278.96835 249.746021 
L 281.19361 247.548023 
L 283.398425 245.278461 
L 285.582792 242.937337 
L 287.746713 240.521242 
L 289.890188 238.030177 
L 292.016624 235.470957 
L 294.119206 232.836766 
L 296.204749 230.131013 
L 298.269845 227.350289 
L 300.314495 224.498002 
L 302.338698 221.574153 
L 304.342455 218.575333 
L 306.329174 215.504951 
L 308.292038 212.363005 
L 310.237863 209.146089 
L 312.163241 205.857611 
L 314.068174 202.497569 
L 315.952659 199.062557 
L 317.816698 195.555983 
L 319.663699 191.974438 
L 321.486845 188.324738 
L 323.292952 184.600067 
L 325.078613 180.800426 
L 326.843828 176.929222 
L 328.588596 172.986455 
L 330.312917 168.972126 
L 332.0202 164.882826 
L 333.703628 160.721964 
L 335.370018 156.48613 
L 337.015961 152.182142 
L 338.641458 147.799776 
L 340.246508 143.349255 
L 341.831112 138.823763 
L 343.398677 134.226708 
L 344.945795 129.554683 
L 346.469059 124.814503 
L 347.975285 119.995945 
L 349.461064 115.109231 
L 350.926396 110.147548 
L 352.37469 105.114301 
L 353.799129 100.006084 
L 355.20653 94.826304 
L 356.590077 89.574962 
L 357.956584 84.248649 
L 359.302645 78.850773 
L 360.631668 73.381334 
L 361.936836 67.836925 
L 363.221558 62.220953 
L 364.489241 56.533419 
" style="fill:none;stroke:#fea952;stroke-linecap:square;"/>
   </g>
   <g id="line2d_14">
    <path clip-path="url(#p9e23b50071)" d="M 109.658768 232.62142 
L 112.987486 234.843877 
L 116.290988 236.993971 
L 119.560656 239.066584 
L 122.81292 241.068778 
L 126.03421 242.995867 
L 129.234084 244.851805 
L 132.402976 246.631864 
L 135.554073 248.343112 
L 138.668532 249.977717 
L 141.765992 251.542658 
L 144.82084 253.029117 
L 147.883208 254.455764 
L 150.883075 255.800888 
L 153.863097 257.074485 
L 156.826717 258.279267 
L 159.762487 259.414121 
L 162.670269 260.479355 
L 165.53704 261.471127 
L 168.384186 262.393702 
L 171.197095 263.24529 
L 173.99849 264.030244 
L 176.761005 264.745639 
L 179.502198 265.394671 
L 182.197581 265.973524 
L 184.873266 266.484249 
L 187.544884 266.930153 
L 190.156252 267.30946 
L 192.761052 267.622924 
L 195.322689 267.870793 
L 197.873334 268.052749 
L 200.397626 268.171148 
L 202.879685 268.226497 
L 205.355986 268.216024 
L 207.805228 268.143108 
L 210.216671 268.009513 
L 212.621382 267.80971 
L 215.003492 267.548276 
L 217.347273 267.228114 
L 219.686619 266.840828 
L 222.009396 266.391339 
L 224.296991 265.885065 
L 226.577771 265.311417 
L 228.846354 264.673451 
L 231.081725 263.979938 
L 233.322024 263.213689 
L 235.539162 262.38886 
L 237.735783 261.502238 
L 239.923845 260.548054 
L 242.0946 259.530268 
L 244.275904 258.433937 
L 246.406465 257.296611 
L 248.56261 256.065361 
L 250.690373 254.780727 
L 252.807179 253.427719 
L 254.913589 252.004337 
L 257.025848 250.499134 
L 259.097017 248.951215 
L 261.186515 247.304092 
L 263.246421 245.605564 
L 265.311893 243.818569 
L 267.346401 241.981738 
L 269.389365 240.048228 
L 271.416585 238.049922 
L 273.431964 235.979332 
L 275.428904 233.843234 
L 277.414268 231.630533 
L 279.405988 229.318938 
L 281.363196 226.967509 
L 283.323041 224.515289 
L 285.261447 222.004002 
L 287.191275 219.408662 
L 289.107194 216.739102 
L 291.004953 214.001151 
L 292.898275 211.170275 
L 294.768701 208.28279 
L 296.6287 205.308169 
L 298.474761 202.258885 
L 300.305345 199.134929 
L 302.117473 195.941282 
L 303.916576 192.664367 
L 305.70179 189.308332 
L 307.469486 185.883024 
L 309.221746 182.377343 
L 310.956362 178.802423 
L 312.676147 175.145076 
L 314.378794 171.413148 
L 316.064134 167.606678 
L 317.734181 163.720504 
L 319.384217 159.770479 
L 321.018913 155.731758 
L 322.638255 151.617214 
L 324.235787 147.441751 
L 325.818853 143.175391 
L 327.38138 138.844522 
L 328.929564 134.424421 
L 330.458706 129.9417 
L 331.968403 125.384378 
L 333.458871 120.747669 
L 334.933763 116.03074 
L 336.38825 111.248442 
L 337.826915 106.378232 
L 339.244624 101.452948 
L 340.645045 96.431981 
L 342.025335 91.353517 
L 343.386689 86.187528 
L 344.73061 80.950505 
L 346.057077 75.632223 
L 347.36334 70.257936 
L 348.649091 64.797192 
L 349.917031 59.255535 
L 351.184714 53.568 
" style="fill:none;stroke:#ffffff;stroke-linecap:square;"/>
   </g>
   <g id="line2d_15">
    <path clip-path="url(#p9e23b50071)" d="M 94.526232 255.297904 
L 98.122062 257.696356 
L 101.702215 260.024045 
L 105.275309 262.28609 
L 108.824914 264.468613 
L 112.364599 266.583116 
L 115.891624 268.625643 
L 119.401922 270.594109 
L 122.895936 272.48826 
L 126.385697 274.315929 
L 129.851563 276.063322 
L 133.319149 277.746069 
L 136.745136 279.338689 
L 140.185916 280.876521 
L 143.612464 282.33594 
L 147.014521 283.714232 
L 150.403534 285.019327 
L 153.779643 286.250916 
L 157.15587 287.412842 
L 160.510829 288.494024 
L 163.865947 289.503067 
L 167.191686 290.428804 
L 170.508598 291.280974 
L 173.812752 292.056381 
L 177.121825 292.758842 
L 180.416517 293.37949 
L 183.667569 293.915019 
L 186.937977 294.380834 
L 190.180876 294.76255 
L 193.426045 295.066737 
L 196.641313 295.286895 
L 199.842041 295.427485 
L 203.044109 295.488 
L 206.217857 295.464396 
L 209.370955 295.360108 
L 212.527776 295.173375 
L 215.650435 294.902909 
L 218.754802 294.550947 
L 221.856606 294.114589 
L 224.921951 293.595414 
L 227.962972 292.995315 
L 231.005098 292.308877 
L 234.013146 291.539871 
L 236.985682 290.692058 
L 239.957353 289.756668 
L 242.883203 288.744071 
L 245.798136 287.646929 
L 248.685878 286.468455 
L 251.548101 285.207601 
L 254.379923 283.867224 
L 257.167118 282.455452 
L 259.964164 280.948363 
L 262.694731 279.378442 
L 265.412789 277.725597 
L 268.107725 275.991183 
L 270.76535 274.184018 
L 273.383048 272.308733 
L 276.000942 270.339855 
L 278.559616 268.313423 
L 281.106988 266.202087 
L 283.607901 264.029276 
L 286.105699 261.763177 
L 288.547334 259.443815 
L 290.970636 257.046124 
L 293.364886 254.57759 
L 295.73668 252.03144 
L 298.079159 249.411952 
L 300.374388 246.741417 
L 302.670052 243.974405 
L 304.91537 241.158243 
L 307.14805 238.258024 
L 309.348415 235.291916 
L 311.521796 232.256903 
L 313.672444 229.147156 
L 315.786636 225.980391 
L 317.889647 222.727112 
L 319.955375 219.417842 
L 322.000964 216.033294 
L 324.021138 212.580292 
L 326.018874 209.053856 
L 327.988743 205.460748 
L 329.931607 201.803633 
L 331.857912 198.065851 
L 333.751944 194.272132 
L 335.629543 190.397711 
L 337.481079 186.455776 
L 339.308862 182.445296 
L 341.113058 178.366233 
L 342.891654 174.223748 
L 344.656183 169.995173 
L 346.388343 165.712169 
L 348.101781 161.355047 
L 349.796135 156.922533 
L 351.464063 152.424161 
L 353.111637 147.853987 
L 354.73266 143.223105 
L 356.338648 138.511717 
L 357.923187 133.724988 
L 359.479248 128.881337 
L 361.016807 123.96115 
L 362.533877 118.970021 
L 364.025877 113.916863 
L 365.504756 108.775654 
L 366.953214 103.580187 
L 368.387725 98.299091 
L 369.793464 92.962395 
L 371.182558 87.546792 
L 372.548214 82.069322 
L 373.899996 76.504733 
L 375.224581 70.876658 
L 376.526085 65.186372 
L 377.793768 59.498838 
" style="fill:none;stroke:#ffffff;stroke-linecap:square;"/>
   </g>
   <g id="patch_3">
    <path d="M 57.6 307.584 
L 57.6 41.472 
" style="fill:none;stroke:#000000;stroke-linecap:square;stroke-linejoin:miter;stroke-width:0.8;"/>
   </g>
   <g id="patch_4">
    <path d="M 414.72 307.584 
L 414.72 41.472 
" style="fill:none;stroke:#000000;stroke-linecap:square;stroke-linejoin:miter;stroke-width:0.8;"/>
   </g>
   <g id="patch_5">
    <path d="M 57.6 307.584 
L 414.72 307.584 
" style="fill:none;stroke:#000000;stroke-linecap:square;stroke-linejoin:miter;stroke-width:0.8;"/>
   </g>
   <g id="patch_6">
    <path d="M 57.6 41.472 
L 414.72 41.472 
" style="fill:none;stroke:#000000;stroke-linecap:square;stroke-linejoin:miter;stroke-width:0.8;"/>
   </g>
  </g>
 </g>
 <defs>
  <clipPath id="p9e23b50071">
   <rect height="266.112" width="357.12" x="57.6" y="41.472"/>
  </clipPath>
 </defs>
</svg>
