<?xml version="1.0" encoding="utf-8" standalone="no"?>
<!DOCTYPE svg PUBLIC "-//W3C//DTD SVG 1.1//EN"
  "http://www.w3.org/Graphics/SVG/1.1/DTD/svg11.dtd">
<!-- Created with matplotlib (https://matplotlib.org/) -->
<svg height="345.6pt" version="1.1" viewBox="0 0 460.8 345.6" width="460.8pt" xmlns="http://www.w3.org/2000/svg" xmlns:xlink="http://www.w3.org/1999/xlink">
 <metadata>
  <rdf:RDF xmlns:cc="http://creativecommons.org/ns#" xmlns:dc="http://purl.org/dc/elements/1.1/" xmlns:rdf="http://www.w3.org/1999/02/22-rdf-syntax-ns#">
   <cc:Work>
    <dc:type rdf:resource="http://purl.org/dc/dcmitype/StillImage"/>
    <dc:date>2021-01-10T14:43:31.424436</dc:date>
    <dc:format>image/svg+xml</dc:format>
    <dc:creator>
     <cc:Agent>
      <dc:title>Matplotlib v3.3.3, https://matplotlib.org/</dc:title>
     </cc:Agent>
    </dc:creator>
   </cc:Work>
  </rdf:RDF>
 </metadata>
 <defs>
  <style type="text/css">*{stroke-linecap:butt;stroke-linejoin:round;}</style>
 </defs>
 <g id="figure_1">
  <g id="patch_1">
   <path d="M 0 345.6 
L 460.8 345.6 
L 460.8 0 
L 0 0 
z
" style="fill:#ffffff;"/>
  </g>
  <g id="axes_1">
   <g id="patch_2">
    <path d="M 57.6 307.584 
L 414.72 307.584 
L 414.72 41.472 
L 57.6 41.472 
z
" style="fill:#7d9051;"/>
   </g>
   <g id="matplotlib.axis_1">
    <g id="xtick_1">
     <g id="line2d_1">
      <defs>
       <path d="M 0 0 
L 0 3.5 
" id="m62bbf91965" style="stroke:#000000;stroke-width:0.8;"/>
      </defs>
      <g>
       <use style="stroke:#000000;stroke-width:0.8;" x="82.773329" xlink:href="#m62bbf91965" y="307.584"/>
      </g>
     </g>
     <g id="text_1">
      <!-- 100 -->
      <g transform="translate(73.229579 322.182437)scale(0.1 -0.1)">
       <defs>
        <path d="M 12.40625 8.296875 
L 28.515625 8.296875 
L 28.515625 63.921875 
L 10.984375 60.40625 
L 10.984375 69.390625 
L 28.421875 72.90625 
L 38.28125 72.90625 
L 38.28125 8.296875 
L 54.390625 8.296875 
L 54.390625 0 
L 12.40625 0 
z
" id="DejaVuSans-49"/>
        <path d="M 31.78125 66.40625 
Q 24.171875 66.40625 20.328125 58.90625 
Q 16.5 51.421875 16.5 36.375 
Q 16.5 21.390625 20.328125 13.890625 
Q 24.171875 6.390625 31.78125 6.390625 
Q 39.453125 6.390625 43.28125 13.890625 
Q 47.125 21.390625 47.125 36.375 
Q 47.125 51.421875 43.28125 58.90625 
Q 39.453125 66.40625 31.78125 66.40625 
z
M 31.78125 74.21875 
Q 44.046875 74.21875 50.515625 64.515625 
Q 56.984375 54.828125 56.984375 36.375 
Q 56.984375 17.96875 50.515625 8.265625 
Q 44.046875 -1.421875 31.78125 -1.421875 
Q 19.53125 -1.421875 13.0625 8.265625 
Q 6.59375 17.96875 6.59375 36.375 
Q 6.59375 54.828125 13.0625 64.515625 
Q 19.53125 74.21875 31.78125 74.21875 
z
" id="DejaVuSans-48"/>
       </defs>
       <use xlink:href="#DejaVuSans-49"/>
       <use x="63.623047" xlink:href="#DejaVuSans-48"/>
       <use x="127.246094" xlink:href="#DejaVuSans-48"/>
      </g>
     </g>
    </g>
    <g id="xtick_2">
     <g id="line2d_2">
      <g>
       <use style="stroke:#000000;stroke-width:0.8;" x="130.954666" xlink:href="#m62bbf91965" y="307.584"/>
      </g>
     </g>
     <g id="text_2">
      <!-- 120 -->
      <g transform="translate(121.410916 322.182437)scale(0.1 -0.1)">
       <defs>
        <path d="M 19.1875 8.296875 
L 53.609375 8.296875 
L 53.609375 0 
L 7.328125 0 
L 7.328125 8.296875 
Q 12.9375 14.109375 22.625 23.890625 
Q 32.328125 33.6875 34.8125 36.53125 
Q 39.546875 41.84375 41.421875 45.53125 
Q 43.3125 49.21875 43.3125 52.78125 
Q 43.3125 58.59375 39.234375 62.25 
Q 35.15625 65.921875 28.609375 65.921875 
Q 23.96875 65.921875 18.8125 64.3125 
Q 13.671875 62.703125 7.8125 59.421875 
L 7.8125 69.390625 
Q 13.765625 71.78125 18.9375 73 
Q 24.125 74.21875 28.421875 74.21875 
Q 39.75 74.21875 46.484375 68.546875 
Q 53.21875 62.890625 53.21875 53.421875 
Q 53.21875 48.921875 51.53125 44.890625 
Q 49.859375 40.875 45.40625 35.40625 
Q 44.1875 33.984375 37.640625 27.21875 
Q 31.109375 20.453125 19.1875 8.296875 
z
" id="DejaVuSans-50"/>
       </defs>
       <use xlink:href="#DejaVuSans-49"/>
       <use x="63.623047" xlink:href="#DejaVuSans-50"/>
       <use x="127.246094" xlink:href="#DejaVuSans-48"/>
      </g>
     </g>
    </g>
    <g id="xtick_3">
     <g id="line2d_3">
      <g>
       <use style="stroke:#000000;stroke-width:0.8;" x="179.136002" xlink:href="#m62bbf91965" y="307.584"/>
      </g>
     </g>
     <g id="text_3">
      <!-- 140 -->
      <g transform="translate(169.592252 322.182437)scale(0.1 -0.1)">
       <defs>
        <path d="M 37.796875 64.3125 
L 12.890625 25.390625 
L 37.796875 25.390625 
z
M 35.203125 72.90625 
L 47.609375 72.90625 
L 47.609375 25.390625 
L 58.015625 25.390625 
L 58.015625 17.1875 
L 47.609375 17.1875 
L 47.609375 0 
L 37.796875 0 
L 37.796875 17.1875 
L 4.890625 17.1875 
L 4.890625 26.703125 
z
" id="DejaVuSans-52"/>
       </defs>
       <use xlink:href="#DejaVuSans-49"/>
       <use x="63.623047" xlink:href="#DejaVuSans-52"/>
       <use x="127.246094" xlink:href="#DejaVuSans-48"/>
      </g>
     </g>
    </g>
    <g id="xtick_4">
     <g id="line2d_4">
      <g>
       <use style="stroke:#000000;stroke-width:0.8;" x="227.317339" xlink:href="#m62bbf91965" y="307.584"/>
      </g>
     </g>
     <g id="text_4">
      <!-- 160 -->
      <g transform="translate(217.773589 322.182437)scale(0.1 -0.1)">
       <defs>
        <path d="M 33.015625 40.375 
Q 26.375 40.375 22.484375 35.828125 
Q 18.609375 31.296875 18.609375 23.390625 
Q 18.609375 15.53125 22.484375 10.953125 
Q 26.375 6.390625 33.015625 6.390625 
Q 39.65625 6.390625 43.53125 10.953125 
Q 47.40625 15.53125 47.40625 23.390625 
Q 47.40625 31.296875 43.53125 35.828125 
Q 39.65625 40.375 33.015625 40.375 
z
M 52.59375 71.296875 
L 52.59375 62.3125 
Q 48.875 64.0625 45.09375 64.984375 
Q 41.3125 65.921875 37.59375 65.921875 
Q 27.828125 65.921875 22.671875 59.328125 
Q 17.53125 52.734375 16.796875 39.40625 
Q 19.671875 43.65625 24.015625 45.921875 
Q 28.375 48.1875 33.59375 48.1875 
Q 44.578125 48.1875 50.953125 41.515625 
Q 57.328125 34.859375 57.328125 23.390625 
Q 57.328125 12.15625 50.6875 5.359375 
Q 44.046875 -1.421875 33.015625 -1.421875 
Q 20.359375 -1.421875 13.671875 8.265625 
Q 6.984375 17.96875 6.984375 36.375 
Q 6.984375 53.65625 15.1875 63.9375 
Q 23.390625 74.21875 37.203125 74.21875 
Q 40.921875 74.21875 44.703125 73.484375 
Q 48.484375 72.75 52.59375 71.296875 
z
" id="DejaVuSans-54"/>
       </defs>
       <use xlink:href="#DejaVuSans-49"/>
       <use x="63.623047" xlink:href="#DejaVuSans-54"/>
       <use x="127.246094" xlink:href="#DejaVuSans-48"/>
      </g>
     </g>
    </g>
    <g id="xtick_5">
     <g id="line2d_5">
      <g>
       <use style="stroke:#000000;stroke-width:0.8;" x="275.498676" xlink:href="#m62bbf91965" y="307.584"/>
      </g>
     </g>
     <g id="text_5">
      <!-- 180 -->
      <g transform="translate(265.954926 322.182437)scale(0.1 -0.1)">
       <defs>
        <path d="M 31.78125 34.625 
Q 24.75 34.625 20.71875 30.859375 
Q 16.703125 27.09375 16.703125 20.515625 
Q 16.703125 13.921875 20.71875 10.15625 
Q 24.75 6.390625 31.78125 6.390625 
Q 38.8125 6.390625 42.859375 10.171875 
Q 46.921875 13.96875 46.921875 20.515625 
Q 46.921875 27.09375 42.890625 30.859375 
Q 38.875 34.625 31.78125 34.625 
z
M 21.921875 38.8125 
Q 15.578125 40.375 12.03125 44.71875 
Q 8.5 49.078125 8.5 55.328125 
Q 8.5 64.0625 14.71875 69.140625 
Q 20.953125 74.21875 31.78125 74.21875 
Q 42.671875 74.21875 48.875 69.140625 
Q 55.078125 64.0625 55.078125 55.328125 
Q 55.078125 49.078125 51.53125 44.71875 
Q 48 40.375 41.703125 38.8125 
Q 48.828125 37.15625 52.796875 32.3125 
Q 56.78125 27.484375 56.78125 20.515625 
Q 56.78125 9.90625 50.3125 4.234375 
Q 43.84375 -1.421875 31.78125 -1.421875 
Q 19.734375 -1.421875 13.25 4.234375 
Q 6.78125 9.90625 6.78125 20.515625 
Q 6.78125 27.484375 10.78125 32.3125 
Q 14.796875 37.15625 21.921875 38.8125 
z
M 18.3125 54.390625 
Q 18.3125 48.734375 21.84375 45.5625 
Q 25.390625 42.390625 31.78125 42.390625 
Q 38.140625 42.390625 41.71875 45.5625 
Q 45.3125 48.734375 45.3125 54.390625 
Q 45.3125 60.0625 41.71875 63.234375 
Q 38.140625 66.40625 31.78125 66.40625 
Q 25.390625 66.40625 21.84375 63.234375 
Q 18.3125 60.0625 18.3125 54.390625 
z
" id="DejaVuSans-56"/>
       </defs>
       <use xlink:href="#DejaVuSans-49"/>
       <use x="63.623047" xlink:href="#DejaVuSans-56"/>
       <use x="127.246094" xlink:href="#DejaVuSans-48"/>
      </g>
     </g>
    </g>
    <g id="xtick_6">
     <g id="line2d_6">
      <g>
       <use style="stroke:#000000;stroke-width:0.8;" x="323.680012" xlink:href="#m62bbf91965" y="307.584"/>
      </g>
     </g>
     <g id="text_6">
      <!-- 200 -->
      <g transform="translate(314.136262 322.182437)scale(0.1 -0.1)">
       <use xlink:href="#DejaVuSans-50"/>
       <use x="63.623047" xlink:href="#DejaVuSans-48"/>
       <use x="127.246094" xlink:href="#DejaVuSans-48"/>
      </g>
     </g>
    </g>
    <g id="xtick_7">
     <g id="line2d_7">
      <g>
       <use style="stroke:#000000;stroke-width:0.8;" x="371.861349" xlink:href="#m62bbf91965" y="307.584"/>
      </g>
     </g>
     <g id="text_7">
      <!-- 220 -->
      <g transform="translate(362.317599 322.182437)scale(0.1 -0.1)">
       <use xlink:href="#DejaVuSans-50"/>
       <use x="63.623047" xlink:href="#DejaVuSans-50"/>
       <use x="127.246094" xlink:href="#DejaVuSans-48"/>
      </g>
     </g>
    </g>
   </g>
   <g id="matplotlib.axis_2">
    <g id="ytick_1">
     <g id="line2d_8">
      <defs>
       <path d="M 0 0 
L -3.5 0 
" id="m27c3b30aaa" style="stroke:#000000;stroke-width:0.8;"/>
      </defs>
      <g>
       <use style="stroke:#000000;stroke-width:0.8;" x="57.6" xlink:href="#m27c3b30aaa" y="281.270454"/>
      </g>
     </g>
     <g id="text_8">
      <!-- 80 -->
      <g transform="translate(37.875 285.069672)scale(0.1 -0.1)">
       <use xlink:href="#DejaVuSans-56"/>
       <use x="63.623047" xlink:href="#DejaVuSans-48"/>
      </g>
     </g>
    </g>
    <g id="ytick_2">
     <g id="line2d_9">
      <g>
       <use style="stroke:#000000;stroke-width:0.8;" x="57.6" xlink:href="#m27c3b30aaa" y="233.089117"/>
      </g>
     </g>
     <g id="text_9">
      <!-- 100 -->
      <g transform="translate(31.5125 236.888336)scale(0.1 -0.1)">
       <use xlink:href="#DejaVuSans-49"/>
       <use x="63.623047" xlink:href="#DejaVuSans-48"/>
       <use x="127.246094" xlink:href="#DejaVuSans-48"/>
      </g>
     </g>
    </g>
    <g id="ytick_3">
     <g id="line2d_10">
      <g>
       <use style="stroke:#000000;stroke-width:0.8;" x="57.6" xlink:href="#m27c3b30aaa" y="184.90778"/>
      </g>
     </g>
     <g id="text_10">
      <!-- 120 -->
      <g transform="translate(31.5125 188.706999)scale(0.1 -0.1)">
       <use xlink:href="#DejaVuSans-49"/>
       <use x="63.623047" xlink:href="#DejaVuSans-50"/>
       <use x="127.246094" xlink:href="#DejaVuSans-48"/>
      </g>
     </g>
    </g>
    <g id="ytick_4">
     <g id="line2d_11">
      <g>
       <use style="stroke:#000000;stroke-width:0.8;" x="57.6" xlink:href="#m27c3b30aaa" y="136.726444"/>
      </g>
     </g>
     <g id="text_11">
      <!-- 140 -->
      <g transform="translate(31.5125 140.525662)scale(0.1 -0.1)">
       <use xlink:href="#DejaVuSans-49"/>
       <use x="63.623047" xlink:href="#DejaVuSans-52"/>
       <use x="127.246094" xlink:href="#DejaVuSans-48"/>
      </g>
     </g>
    </g>
    <g id="ytick_5">
     <g id="line2d_12">
      <g>
       <use style="stroke:#000000;stroke-width:0.8;" x="57.6" xlink:href="#m27c3b30aaa" y="88.545107"/>
      </g>
     </g>
     <g id="text_12">
      <!-- 160 -->
      <g transform="translate(31.5125 92.344326)scale(0.1 -0.1)">
       <use xlink:href="#DejaVuSans-49"/>
       <use x="63.623047" xlink:href="#DejaVuSans-54"/>
       <use x="127.246094" xlink:href="#DejaVuSans-48"/>
      </g>
     </g>
    </g>
   </g>
   <g id="line2d_13">
    <path clip-path="url(#p24e36718a8)" d="M 280.316809 290.906721 
L 281.557479 288.61088 
L 282.759603 286.317449 
L 283.920773 284.031244 
L 285.043398 281.749858 
L 286.125069 279.470881 
L 287.165786 277.199131 
L 288.165549 274.932199 
L 289.126767 272.670085 
L 290.049439 270.41038 
L 290.928749 268.157903 
L 291.769513 265.910244 
L 292.571732 263.667402 
L 293.332997 261.42697 
L 294.053308 259.193765 
L 294.732665 256.965378 
L 295.373477 254.74181 
L 295.975744 252.523059 
L 296.534647 250.309127 
L 297.055006 248.100012 
L 297.536819 245.893307 
L 297.975269 243.693829 
L 298.377583 241.499169 
L 298.736534 239.309328 
L 299.05694 237.124304 
L 299.336392 234.944098 
L 299.577299 232.768711 
L 299.777251 230.598142 
L 299.93625 228.432391 
L 300.056703 226.271458 
L 300.136202 224.115343 
L 300.174747 221.964046 
L 300.174747 219.817568 
L 300.133793 217.675907 
L 300.054294 215.539065 
L 299.933841 213.407041 
L 299.772433 211.279835 
L 299.572481 209.157447 
L 299.331574 207.039877 
L 299.049713 204.927126 
L 298.729307 202.819192 
L 298.367947 200.716077 
L 297.968042 198.620189 
L 297.527183 196.52671 
L 297.045369 194.438049 
L 296.525011 192.354206 
L 295.963698 190.275181 
L 295.361432 188.200975 
L 294.72062 186.131586 
L 294.038854 184.069425 
L 293.316134 182.009673 
L 292.554869 179.954739 
L 291.75265 177.904623 
L 290.911885 175.861734 
L 290.030167 173.821255 
L 289.107494 171.785593 
L 288.146277 169.75475 
L 287.144105 167.731134 
L 286.103388 165.709927 
L 285.019308 163.693538 
L 283.899092 161.684376 
L 282.735512 159.677623 
L 281.533388 157.675689 
L 280.29031 155.680981 
L 279.008686 153.688683 
L 277.686108 151.701203 
L 276.322577 149.72095 
L 274.9205 147.743106 
L 273.477469 145.77249 
L 271.995893 143.804282 
L 270.473362 141.843302 
L 268.909878 139.88473 
L 267.305439 137.930977 
L 265.662456 135.984451 
L 263.980927 134.040334 
L 262.258444 132.103444 
L 260.495007 130.168964 
L 258.690616 128.24171 
L 256.84768 126.316866 
L 254.96379 124.399249 
L 253.041355 122.48645 
L 251.077965 120.57606 
L 249.073622 118.672897 
L 247.030733 116.772143 
L 244.94689 114.878616 
L 242.822093 112.987499 
L 240.658751 111.103609 
L 238.454455 109.224537 
L 236.211614 107.347874 
L 233.927818 105.478438 
L 231.603069 103.61382 
L 229.237365 101.751611 
L 226.833117 99.89663 
L 224.390323 98.046467 
L 221.906575 96.198712 
L 219.381873 94.358185 
L 216.816217 92.522476 
L 214.212015 90.691585 
L 211.56686 88.863104 
L 208.88316 87.041849 
L 206.158505 85.225413 
L 203.392896 83.413795 
L 200.588742 81.604585 
L 197.743635 79.802603 
L 194.857572 78.00544 
L 191.932965 76.213094 
L 188.967404 74.425566 
L 185.963298 72.642857 
L 182.918237 70.864965 
L 179.832223 69.089483 
L 176.707663 67.321228 
L 173.542149 65.557791 
L 170.335681 63.799172 
L 167.090668 62.045372 
" style="fill:none;stroke:#fea952;stroke-linecap:square;"/>
   </g>
   <g id="line2d_14">
    <path clip-path="url(#p24e36718a8)" d="M 271.839219 286.325442 
L 273.022598 284.13724 
L 274.167995 281.953745 
L 275.274618 279.776642 
L 276.337927 277.61798 
L 277.364345 275.457484 
L 278.348885 273.310699 
L 279.296739 271.163663 
L 280.205527 269.027404 
L 281.072905 266.906172 
L 281.903251 264.781806 
L 282.696181 262.664895 
L 283.447779 260.56722 
L 284.161986 258.468898 
L 284.835872 256.383693 
L 285.473245 254.2969 
L 286.073732 252.217449 
L 286.632598 250.164398 
L 287.155076 248.099762 
L 287.640532 246.044451 
L 288.086489 244.009452 
L 288.496943 241.956309 
L 288.868221 239.940429 
L 289.202228 237.911243 
L 289.498869 235.899181 
L 289.758675 233.883443 
L 289.98166 231.884762 
L 290.166848 229.892595 
L 290.314918 227.896085 
L 290.426979 225.916395 
L 290.501481 223.942716 
L 290.53848 221.964046 
L 290.540241 220.001805 
L 290.504188 218.034168 
L 290.433369 216.08262 
L 290.325194 214.136123 
L 290.178648 212.183676 
L 289.997974 210.246697 
L 289.779932 208.314156 
L 289.522871 206.375206 
L 289.232209 204.450996 
L 288.902442 202.522139 
L 288.53859 200.605908 
L 288.137506 198.692725 
L 287.696182 196.772644 
L 287.221851 194.865951 
L 286.709638 192.962191 
L 286.156402 191.051426 
L 285.5714 189.156387 
L 284.946072 187.259875 
L 284.279992 185.357177 
L 283.581164 183.466188 
L 282.841552 181.572044 
L 282.066142 179.684098 
L 281.253369 177.799378 
L 280.397573 175.908083 
L 279.510952 174.031292 
L 278.576827 172.142414 
L 277.616004 170.273036 
L 276.602845 168.38617 
L 275.562812 166.518017 
L 274.474236 164.638366 
L 273.355198 162.772242 
L 272.186081 160.894342 
L 270.986342 159.027189 
L 269.749366 157.166162 
L 268.461217 155.293802 
L 267.145839 153.436287 
L 265.778644 151.567811 
L 264.384451 149.713902 
L 262.94238 147.855119 
L 261.462877 146.00027 
L 259.941645 144.146457 
L 258.37418 142.288313 
L 256.780174 140.443989 
L 255.137019 138.595204 
L 253.460606 136.754922 
L 251.730263 134.905878 
L 249.973628 133.070017 
L 248.167062 131.230217 
L 246.321338 129.392898 
L 244.442757 127.564025 
L 242.509596 125.727768 
L 240.55032 123.903895 
L 238.540345 122.076799 
L 236.493772 120.254548 
L 234.407375 118.436954 
L 232.270644 116.614945 
L 230.107852 114.804531 
L 227.898595 112.995493 
L 225.642767 111.185639 
L 223.350952 109.381014 
L 221.015058 107.578286 
L 218.638602 105.777919 
L 216.229963 103.985478 
L 213.774643 102.195061 
L 211.274041 100.405492 
L 208.732588 98.618346 
L 206.155732 96.836644 
L 203.53792 95.059708 
L 200.878255 93.28622 
L 198.168658 91.511015 
L 195.432674 89.745384 
L 192.649933 87.98257 
L 189.822342 86.221528 
L 186.958396 84.466051 
L 184.049712 82.712541 
L 181.104587 80.96455 
L 178.112754 79.217509 
L 175.086154 77.475929 
L 172.01809 75.739396 
L 168.908245 74.006731 
L 165.753998 72.276544 
L 162.508985 70.522743 
" style="fill:none;stroke:#ffffff;stroke-linecap:square;"/>
   </g>
   <g id="line2d_15">
    <path clip-path="url(#p24e36718a8)" d="M 288.794399 295.488 
L 290.09236 293.084521 
L 291.351211 290.681153 
L 292.566929 288.285847 
L 293.74887 285.881736 
L 294.885794 283.484277 
L 295.982688 281.087562 
L 297.034359 278.700735 
L 298.048007 276.312766 
L 299.025974 273.914589 
L 299.954247 271.534 
L 300.842845 269.155592 
L 301.695685 266.767584 
L 302.504009 264.385042 
L 303.270745 262.003838 
L 303.992086 259.633857 
L 304.673222 257.26617 
L 305.318889 254.88172 
L 305.914218 252.518491 
L 306.469479 250.155574 
L 306.987149 247.777163 
L 307.453596 245.431349 
L 307.886946 243.05791 
L 308.270841 240.707412 
L 308.615011 238.349427 
L 308.914109 236.004754 
L 309.172937 233.65266 
L 309.387655 231.303689 
L 309.557581 228.968697 
L 309.686427 226.62652 
L 309.770923 224.28797 
L 309.811015 221.964046 
L 309.809253 219.633331 
L 309.763398 217.317647 
L 309.675219 214.99551 
L 309.542487 212.677959 
L 309.366219 210.375994 
L 309.146987 208.068197 
L 308.883216 205.765599 
L 308.576555 203.479046 
L 308.226405 201.187389 
L 307.833452 198.910015 
L 307.397494 196.63447 
L 306.916859 194.360694 
L 306.394557 192.103454 
L 305.828171 189.842461 
L 305.217759 187.588172 
L 304.566462 185.350523 
L 303.86984 183.106786 
L 303.131636 180.878975 
L 302.352276 178.662169 
L 301.528573 176.443289 
L 300.663748 174.237202 
L 299.757629 172.03937 
L 298.806965 169.843132 
L 297.817416 167.663104 
L 296.781602 165.478208 
L 295.711383 163.319854 
L 294.590771 161.146817 
L 293.435771 159.000905 
L 292.235372 156.850735 
L 290.996789 154.716881 
L 289.711578 152.579136 
L 288.394538 150.467621 
L 287.03103 148.350178 
L 285.62285 146.236244 
L 284.183936 144.148098 
L 282.69516 142.049926 
L 281.176293 139.977169 
L 279.607334 137.894662 
L 278.004345 135.831484 
L 276.356879 133.769191 
L 274.669233 131.715497 
L 272.950732 129.680589 
L 271.181681 127.636679 
L 269.37987 125.611684 
L 267.529409 123.583005 
L 265.650969 121.577542 
L 263.721732 119.563714 
L 261.760518 117.56828 
L 259.761371 115.580001 
L 257.713173 113.588094 
L 255.637647 111.618025 
L 253.511146 109.640391 
L 251.353435 107.680434 
L 249.150414 105.72045 
L 246.910127 103.770264 
L 244.638266 101.834129 
L 242.315376 99.891216 
L 239.957042 97.961383 
L 237.563371 96.042001 
L 235.123778 94.122208 
L 232.651176 92.214974 
L 230.142043 90.315014 
L 227.583187 88.411946 
L 224.989102 86.521309 
L 222.358392 84.639461 
L 219.691443 82.764825 
L 216.977988 80.889564 
L 214.228399 79.02399 
L 211.438755 77.164606 
L 208.617134 75.316574 
L 205.744811 73.463787 
L 202.837336 71.622637 
L 199.892803 69.789351 
L 196.907534 67.960136 
L 193.885096 66.138591 
L 190.822008 64.321163 
L 187.723721 62.512422 
L 184.578292 60.703037 
L 181.397236 58.90306 
L 178.176053 57.108851 
L 174.917364 55.321801 
L 171.672351 53.568 
" style="fill:none;stroke:#ffffff;stroke-linecap:square;"/>
   </g>
   <g id="patch_3">
    <path d="M 57.6 307.584 
L 57.6 41.472 
" style="fill:none;stroke:#000000;stroke-linecap:square;stroke-linejoin:miter;stroke-width:0.8;"/>
   </g>
   <g id="patch_4">
    <path d="M 414.72 307.584 
L 414.72 41.472 
" style="fill:none;stroke:#000000;stroke-linecap:square;stroke-linejoin:miter;stroke-width:0.8;"/>
   </g>
   <g id="patch_5">
    <path d="M 57.6 307.584 
L 414.72 307.584 
" style="fill:none;stroke:#000000;stroke-linecap:square;stroke-linejoin:miter;stroke-width:0.8;"/>
   </g>
   <g id="patch_6">
    <path d="M 57.6 41.472 
L 414.72 41.472 
" style="fill:none;stroke:#000000;stroke-linecap:square;stroke-linejoin:miter;stroke-width:0.8;"/>
   </g>
  </g>
 </g>
 <defs>
  <clipPath id="p24e36718a8">
   <rect height="266.112" width="357.12" x="57.6" y="41.472"/>
  </clipPath>
 </defs>
</svg>
