<?xml version="1.0" encoding="utf-8" standalone="no"?>
<!DOCTYPE svg PUBLIC "-//W3C//DTD SVG 1.1//EN"
  "http://www.w3.org/Graphics/SVG/1.1/DTD/svg11.dtd">
<!-- Created with matplotlib (https://matplotlib.org/) -->
<svg height="345.6pt" version="1.1" viewBox="0 0 460.8 345.6" width="460.8pt" xmlns="http://www.w3.org/2000/svg" xmlns:xlink="http://www.w3.org/1999/xlink">
 <metadata>
  <rdf:RDF xmlns:cc="http://creativecommons.org/ns#" xmlns:dc="http://purl.org/dc/elements/1.1/" xmlns:rdf="http://www.w3.org/1999/02/22-rdf-syntax-ns#">
   <cc:Work>
    <dc:type rdf:resource="http://purl.org/dc/dcmitype/StillImage"/>
    <dc:date>2021-01-10T14:45:53.471151</dc:date>
    <dc:format>image/svg+xml</dc:format>
    <dc:creator>
     <cc:Agent>
      <dc:title>Matplotlib v3.3.3, https://matplotlib.org/</dc:title>
     </cc:Agent>
    </dc:creator>
   </cc:Work>
  </rdf:RDF>
 </metadata>
 <defs>
  <style type="text/css">*{stroke-linecap:butt;stroke-linejoin:round;}</style>
 </defs>
 <g id="figure_1">
  <g id="patch_1">
   <path d="M 0 345.6 
L 460.8 345.6 
L 460.8 0 
L 0 0 
z
" style="fill:#ffffff;"/>
  </g>
  <g id="axes_1">
   <g id="patch_2">
    <path d="M 57.6 307.584 
L 414.72 307.584 
L 414.72 41.472 
L 57.6 41.472 
z
" style="fill:#7d9051;"/>
   </g>
   <g id="matplotlib.axis_1">
    <g id="xtick_1">
     <g id="line2d_1">
      <defs>
       <path d="M 0 0 
L 0 3.5 
" id="md16e2252ad" style="stroke:#000000;stroke-width:0.8;"/>
      </defs>
      <g>
       <use style="stroke:#000000;stroke-width:0.8;" x="69.669457" xlink:href="#md16e2252ad" y="307.584"/>
      </g>
     </g>
     <g id="text_1">
      <!-- 40 -->
      <g transform="translate(63.306957 322.182437)scale(0.1 -0.1)">
       <defs>
        <path d="M 37.796875 64.3125 
L 12.890625 25.390625 
L 37.796875 25.390625 
z
M 35.203125 72.90625 
L 47.609375 72.90625 
L 47.609375 25.390625 
L 58.015625 25.390625 
L 58.015625 17.1875 
L 47.609375 17.1875 
L 47.609375 0 
L 37.796875 0 
L 37.796875 17.1875 
L 4.890625 17.1875 
L 4.890625 26.703125 
z
" id="DejaVuSans-52"/>
        <path d="M 31.78125 66.40625 
Q 24.171875 66.40625 20.328125 58.90625 
Q 16.5 51.421875 16.5 36.375 
Q 16.5 21.390625 20.328125 13.890625 
Q 24.171875 6.390625 31.78125 6.390625 
Q 39.453125 6.390625 43.28125 13.890625 
Q 47.125 21.390625 47.125 36.375 
Q 47.125 51.421875 43.28125 58.90625 
Q 39.453125 66.40625 31.78125 66.40625 
z
M 31.78125 74.21875 
Q 44.046875 74.21875 50.515625 64.515625 
Q 56.984375 54.828125 56.984375 36.375 
Q 56.984375 17.96875 50.515625 8.265625 
Q 44.046875 -1.421875 31.78125 -1.421875 
Q 19.53125 -1.421875 13.0625 8.265625 
Q 6.59375 17.96875 6.59375 36.375 
Q 6.59375 54.828125 13.0625 64.515625 
Q 19.53125 74.21875 31.78125 74.21875 
z
" id="DejaVuSans-48"/>
       </defs>
       <use xlink:href="#DejaVuSans-52"/>
       <use x="63.623047" xlink:href="#DejaVuSans-48"/>
      </g>
     </g>
    </g>
    <g id="xtick_2">
     <g id="line2d_2">
      <g>
       <use style="stroke:#000000;stroke-width:0.8;" x="111.777003" xlink:href="#md16e2252ad" y="307.584"/>
      </g>
     </g>
     <g id="text_2">
      <!-- 60 -->
      <g transform="translate(105.414503 322.182437)scale(0.1 -0.1)">
       <defs>
        <path d="M 33.015625 40.375 
Q 26.375 40.375 22.484375 35.828125 
Q 18.609375 31.296875 18.609375 23.390625 
Q 18.609375 15.53125 22.484375 10.953125 
Q 26.375 6.390625 33.015625 6.390625 
Q 39.65625 6.390625 43.53125 10.953125 
Q 47.40625 15.53125 47.40625 23.390625 
Q 47.40625 31.296875 43.53125 35.828125 
Q 39.65625 40.375 33.015625 40.375 
z
M 52.59375 71.296875 
L 52.59375 62.3125 
Q 48.875 64.0625 45.09375 64.984375 
Q 41.3125 65.921875 37.59375 65.921875 
Q 27.828125 65.921875 22.671875 59.328125 
Q 17.53125 52.734375 16.796875 39.40625 
Q 19.671875 43.65625 24.015625 45.921875 
Q 28.375 48.1875 33.59375 48.1875 
Q 44.578125 48.1875 50.953125 41.515625 
Q 57.328125 34.859375 57.328125 23.390625 
Q 57.328125 12.15625 50.6875 5.359375 
Q 44.046875 -1.421875 33.015625 -1.421875 
Q 20.359375 -1.421875 13.671875 8.265625 
Q 6.984375 17.96875 6.984375 36.375 
Q 6.984375 53.65625 15.1875 63.9375 
Q 23.390625 74.21875 37.203125 74.21875 
Q 40.921875 74.21875 44.703125 73.484375 
Q 48.484375 72.75 52.59375 71.296875 
z
" id="DejaVuSans-54"/>
       </defs>
       <use xlink:href="#DejaVuSans-54"/>
       <use x="63.623047" xlink:href="#DejaVuSans-48"/>
      </g>
     </g>
    </g>
    <g id="xtick_3">
     <g id="line2d_3">
      <g>
       <use style="stroke:#000000;stroke-width:0.8;" x="153.88455" xlink:href="#md16e2252ad" y="307.584"/>
      </g>
     </g>
     <g id="text_3">
      <!-- 80 -->
      <g transform="translate(147.52205 322.182437)scale(0.1 -0.1)">
       <defs>
        <path d="M 31.78125 34.625 
Q 24.75 34.625 20.71875 30.859375 
Q 16.703125 27.09375 16.703125 20.515625 
Q 16.703125 13.921875 20.71875 10.15625 
Q 24.75 6.390625 31.78125 6.390625 
Q 38.8125 6.390625 42.859375 10.171875 
Q 46.921875 13.96875 46.921875 20.515625 
Q 46.921875 27.09375 42.890625 30.859375 
Q 38.875 34.625 31.78125 34.625 
z
M 21.921875 38.8125 
Q 15.578125 40.375 12.03125 44.71875 
Q 8.5 49.078125 8.5 55.328125 
Q 8.5 64.0625 14.71875 69.140625 
Q 20.953125 74.21875 31.78125 74.21875 
Q 42.671875 74.21875 48.875 69.140625 
Q 55.078125 64.0625 55.078125 55.328125 
Q 55.078125 49.078125 51.53125 44.71875 
Q 48 40.375 41.703125 38.8125 
Q 48.828125 37.15625 52.796875 32.3125 
Q 56.78125 27.484375 56.78125 20.515625 
Q 56.78125 9.90625 50.3125 4.234375 
Q 43.84375 -1.421875 31.78125 -1.421875 
Q 19.734375 -1.421875 13.25 4.234375 
Q 6.78125 9.90625 6.78125 20.515625 
Q 6.78125 27.484375 10.78125 32.3125 
Q 14.796875 37.15625 21.921875 38.8125 
z
M 18.3125 54.390625 
Q 18.3125 48.734375 21.84375 45.5625 
Q 25.390625 42.390625 31.78125 42.390625 
Q 38.140625 42.390625 41.71875 45.5625 
Q 45.3125 48.734375 45.3125 54.390625 
Q 45.3125 60.0625 41.71875 63.234375 
Q 38.140625 66.40625 31.78125 66.40625 
Q 25.390625 66.40625 21.84375 63.234375 
Q 18.3125 60.0625 18.3125 54.390625 
z
" id="DejaVuSans-56"/>
       </defs>
       <use xlink:href="#DejaVuSans-56"/>
       <use x="63.623047" xlink:href="#DejaVuSans-48"/>
      </g>
     </g>
    </g>
    <g id="xtick_4">
     <g id="line2d_4">
      <g>
       <use style="stroke:#000000;stroke-width:0.8;" x="195.992096" xlink:href="#md16e2252ad" y="307.584"/>
      </g>
     </g>
     <g id="text_4">
      <!-- 100 -->
      <g transform="translate(186.448346 322.182437)scale(0.1 -0.1)">
       <defs>
        <path d="M 12.40625 8.296875 
L 28.515625 8.296875 
L 28.515625 63.921875 
L 10.984375 60.40625 
L 10.984375 69.390625 
L 28.421875 72.90625 
L 38.28125 72.90625 
L 38.28125 8.296875 
L 54.390625 8.296875 
L 54.390625 0 
L 12.40625 0 
z
" id="DejaVuSans-49"/>
       </defs>
       <use xlink:href="#DejaVuSans-49"/>
       <use x="63.623047" xlink:href="#DejaVuSans-48"/>
       <use x="127.246094" xlink:href="#DejaVuSans-48"/>
      </g>
     </g>
    </g>
    <g id="xtick_5">
     <g id="line2d_5">
      <g>
       <use style="stroke:#000000;stroke-width:0.8;" x="238.099643" xlink:href="#md16e2252ad" y="307.584"/>
      </g>
     </g>
     <g id="text_5">
      <!-- 120 -->
      <g transform="translate(228.555893 322.182437)scale(0.1 -0.1)">
       <defs>
        <path d="M 19.1875 8.296875 
L 53.609375 8.296875 
L 53.609375 0 
L 7.328125 0 
L 7.328125 8.296875 
Q 12.9375 14.109375 22.625 23.890625 
Q 32.328125 33.6875 34.8125 36.53125 
Q 39.546875 41.84375 41.421875 45.53125 
Q 43.3125 49.21875 43.3125 52.78125 
Q 43.3125 58.59375 39.234375 62.25 
Q 35.15625 65.921875 28.609375 65.921875 
Q 23.96875 65.921875 18.8125 64.3125 
Q 13.671875 62.703125 7.8125 59.421875 
L 7.8125 69.390625 
Q 13.765625 71.78125 18.9375 73 
Q 24.125 74.21875 28.421875 74.21875 
Q 39.75 74.21875 46.484375 68.546875 
Q 53.21875 62.890625 53.21875 53.421875 
Q 53.21875 48.921875 51.53125 44.890625 
Q 49.859375 40.875 45.40625 35.40625 
Q 44.1875 33.984375 37.640625 27.21875 
Q 31.109375 20.453125 19.1875 8.296875 
z
" id="DejaVuSans-50"/>
       </defs>
       <use xlink:href="#DejaVuSans-49"/>
       <use x="63.623047" xlink:href="#DejaVuSans-50"/>
       <use x="127.246094" xlink:href="#DejaVuSans-48"/>
      </g>
     </g>
    </g>
    <g id="xtick_6">
     <g id="line2d_6">
      <g>
       <use style="stroke:#000000;stroke-width:0.8;" x="280.207189" xlink:href="#md16e2252ad" y="307.584"/>
      </g>
     </g>
     <g id="text_6">
      <!-- 140 -->
      <g transform="translate(270.663439 322.182437)scale(0.1 -0.1)">
       <use xlink:href="#DejaVuSans-49"/>
       <use x="63.623047" xlink:href="#DejaVuSans-52"/>
       <use x="127.246094" xlink:href="#DejaVuSans-48"/>
      </g>
     </g>
    </g>
    <g id="xtick_7">
     <g id="line2d_7">
      <g>
       <use style="stroke:#000000;stroke-width:0.8;" x="322.314736" xlink:href="#md16e2252ad" y="307.584"/>
      </g>
     </g>
     <g id="text_7">
      <!-- 160 -->
      <g transform="translate(312.770986 322.182437)scale(0.1 -0.1)">
       <use xlink:href="#DejaVuSans-49"/>
       <use x="63.623047" xlink:href="#DejaVuSans-54"/>
       <use x="127.246094" xlink:href="#DejaVuSans-48"/>
      </g>
     </g>
    </g>
    <g id="xtick_8">
     <g id="line2d_8">
      <g>
       <use style="stroke:#000000;stroke-width:0.8;" x="364.422282" xlink:href="#md16e2252ad" y="307.584"/>
      </g>
     </g>
     <g id="text_8">
      <!-- 180 -->
      <g transform="translate(354.878532 322.182437)scale(0.1 -0.1)">
       <use xlink:href="#DejaVuSans-49"/>
       <use x="63.623047" xlink:href="#DejaVuSans-56"/>
       <use x="127.246094" xlink:href="#DejaVuSans-48"/>
      </g>
     </g>
    </g>
    <g id="xtick_9">
     <g id="line2d_9">
      <g>
       <use style="stroke:#000000;stroke-width:0.8;" x="406.529829" xlink:href="#md16e2252ad" y="307.584"/>
      </g>
     </g>
     <g id="text_9">
      <!-- 200 -->
      <g transform="translate(396.986079 322.182437)scale(0.1 -0.1)">
       <use xlink:href="#DejaVuSans-50"/>
       <use x="63.623047" xlink:href="#DejaVuSans-48"/>
       <use x="127.246094" xlink:href="#DejaVuSans-48"/>
      </g>
     </g>
    </g>
   </g>
   <g id="matplotlib.axis_2">
    <g id="ytick_1">
     <g id="line2d_10">
      <defs>
       <path d="M 0 0 
L -3.5 0 
" id="m9e4bbeda3f" style="stroke:#000000;stroke-width:0.8;"/>
      </defs>
      <g>
       <use style="stroke:#000000;stroke-width:0.8;" x="57.6" xlink:href="#m9e4bbeda3f" y="278.240039"/>
      </g>
     </g>
     <g id="text_10">
      <!-- 20 -->
      <g transform="translate(37.875 282.039258)scale(0.1 -0.1)">
       <use xlink:href="#DejaVuSans-50"/>
       <use x="63.623047" xlink:href="#DejaVuSans-48"/>
      </g>
     </g>
    </g>
    <g id="ytick_2">
     <g id="line2d_11">
      <g>
       <use style="stroke:#000000;stroke-width:0.8;" x="57.6" xlink:href="#m9e4bbeda3f" y="236.132493"/>
      </g>
     </g>
     <g id="text_11">
      <!-- 40 -->
      <g transform="translate(37.875 239.931712)scale(0.1 -0.1)">
       <use xlink:href="#DejaVuSans-52"/>
       <use x="63.623047" xlink:href="#DejaVuSans-48"/>
      </g>
     </g>
    </g>
    <g id="ytick_3">
     <g id="line2d_12">
      <g>
       <use style="stroke:#000000;stroke-width:0.8;" x="57.6" xlink:href="#m9e4bbeda3f" y="194.024946"/>
      </g>
     </g>
     <g id="text_12">
      <!-- 60 -->
      <g transform="translate(37.875 197.824165)scale(0.1 -0.1)">
       <use xlink:href="#DejaVuSans-54"/>
       <use x="63.623047" xlink:href="#DejaVuSans-48"/>
      </g>
     </g>
    </g>
    <g id="ytick_4">
     <g id="line2d_13">
      <g>
       <use style="stroke:#000000;stroke-width:0.8;" x="57.6" xlink:href="#m9e4bbeda3f" y="151.9174"/>
      </g>
     </g>
     <g id="text_13">
      <!-- 80 -->
      <g transform="translate(37.875 155.716619)scale(0.1 -0.1)">
       <use xlink:href="#DejaVuSans-56"/>
       <use x="63.623047" xlink:href="#DejaVuSans-48"/>
      </g>
     </g>
    </g>
    <g id="ytick_5">
     <g id="line2d_14">
      <g>
       <use style="stroke:#000000;stroke-width:0.8;" x="57.6" xlink:href="#m9e4bbeda3f" y="109.809854"/>
      </g>
     </g>
     <g id="text_14">
      <!-- 100 -->
      <g transform="translate(31.5125 113.609072)scale(0.1 -0.1)">
       <use xlink:href="#DejaVuSans-49"/>
       <use x="63.623047" xlink:href="#DejaVuSans-48"/>
       <use x="127.246094" xlink:href="#DejaVuSans-48"/>
      </g>
     </g>
    </g>
    <g id="ytick_6">
     <g id="line2d_15">
      <g>
       <use style="stroke:#000000;stroke-width:0.8;" x="57.6" xlink:href="#m9e4bbeda3f" y="67.702307"/>
      </g>
     </g>
     <g id="text_15">
      <!-- 120 -->
      <g transform="translate(31.5125 71.501526)scale(0.1 -0.1)">
       <use xlink:href="#DejaVuSans-49"/>
       <use x="63.623047" xlink:href="#DejaVuSans-50"/>
       <use x="127.246094" xlink:href="#DejaVuSans-48"/>
      </g>
     </g>
    </g>
   </g>
   <g id="line2d_16">
    <path clip-path="url(#p801f26f78f)" d="M 381.265301 63.491552 
L 383.370678 74.80585 
L 385.189724 85.812763 
L 386.720333 96.516501 
L 387.964611 106.91496 
L 388.920453 117.006033 
L 389.587857 126.793932 
L 389.968931 136.274446 
L 390.061567 145.449681 
L 389.867873 154.319635 
L 389.385741 162.886416 
L 388.836238 169.109911 
L 388.12462 175.160766 
L 387.250889 181.041084 
L 386.215043 186.748762 
L 385.017083 192.283799 
L 383.659115 197.648301 
L 382.139032 202.842267 
L 380.456836 207.863592 
L 378.612525 212.712276 
L 376.606101 217.388319 
L 374.439667 221.893826 
L 372.109015 226.228798 
L 369.618353 230.391129 
L 366.965578 234.380819 
L 364.150689 238.197868 
L 361.17579 241.844382 
L 358.036673 245.32036 
L 354.737546 248.623697 
L 351.276306 251.754393 
L 347.652952 254.712448 
L 343.869589 257.499967 
L 339.922006 260.116951 
L 335.814415 262.561294 
L 331.542605 264.832997 
L 327.110785 266.934163 
L 322.518957 268.862689 
L 317.76291 270.618573 
L 312.846854 272.203923 
L 307.766578 273.616631 
L 302.526294 274.858803 
L 297.123896 275.928335 
L 291.561489 276.825226 
L 285.834863 277.551581 
L 279.948228 278.107401 
L 273.897373 278.488474 
L 267.68651 278.699012 
L 261.313533 278.739014 
L 254.780547 278.606375 
L 248.083342 278.301095 
L 238.903897 277.627375 
L 229.436015 276.648374 
L 219.681802 275.364094 
L 209.639152 273.774534 
L 199.310171 271.879694 
L 188.692753 269.679575 
L 177.786899 267.174176 
L 166.594713 264.363497 
L 155.11409 261.245434 
L 143.347136 257.824195 
L 131.291746 254.095572 
L 118.950024 250.063775 
L 106.319865 245.724592 
L 93.40127 241.082235 
L 80.196344 236.132493 
L 76.850899 234.848213 
L 76.850899 234.848213 
" style="fill:none;stroke:#fea952;stroke-linecap:square;"/>
   </g>
   <g id="line2d_17">
    <path clip-path="url(#p801f26f78f)" d="M 389.532965 61.889197 
L 391.668431 73.367406 
L 393.51591 84.549256 
L 395.072627 95.439002 
L 396.340977 106.044149 
L 397.316309 116.349214 
L 397.998469 126.365648 
L 398.388447 136.091248 
L 398.482707 145.528604 
L 398.360125 152.423768 
L 398.067798 159.148676 
L 397.608267 165.720105 
L 396.979713 172.123711 
L 396.180109 178.383383 
L 395.208413 184.468164 
L 394.064538 190.395155 
L 392.74718 196.159713 
L 391.252005 201.769321 
L 389.582171 207.207145 
L 387.730653 212.490267 
L 385.700931 217.610379 
L 383.48777 222.569965 
L 381.100765 227.340188 
L 378.52449 231.956725 
L 375.766985 236.399734 
L 372.829539 240.661307 
L 369.701934 244.759151 
L 366.396714 248.669627 
L 362.911521 252.395327 
L 359.254044 255.928577 
L 355.415254 259.280088 
L 351.398305 262.447723 
L 347.221225 265.413562 
L 342.878603 268.186758 
L 338.357946 270.775916 
L 333.688244 273.164093 
L 328.853312 275.362624 
L 323.86716 277.367225 
L 318.727497 279.180697 
L 313.431183 280.807013 
L 307.973525 282.246423 
L 302.385343 283.493382 
L 296.628094 284.560451 
L 290.721089 285.444165 
L 284.681137 286.140021 
L 278.483826 286.657125 
L 272.129006 286.995783 
L 265.63121 287.154058 
L 258.982415 287.133522 
L 252.176809 286.936791 
L 242.884685 286.398926 
L 235.726851 285.792341 
L 225.954077 284.70882 
L 215.908484 283.317934 
L 205.584497 281.617376 
L 194.995737 279.610491 
L 184.12975 277.2943 
L 172.980963 274.67233 
L 161.568021 271.745147 
L 149.865209 268.511443 
L 137.88851 264.971796 
L 125.633753 261.127043 
L 113.101926 256.97792 
L 100.2825 252.523954 
L 87.181478 247.763192 
L 73.832727 242.710303 
L 73.832727 242.710303 
" style="fill:none;stroke:#ffffff;stroke-linecap:square;"/>
   </g>
   <g id="line2d_18">
    <path clip-path="url(#p801f26f78f)" d="M 372.997636 65.093907 
L 375.072926 76.244295 
L 376.863538 87.07627 
L 378.368039 97.594001 
L 379.588245 107.78577 
L 380.524596 117.662852 
L 381.177245 127.222216 
L 381.549414 136.457645 
L 381.640428 145.370757 
L 381.454374 153.952412 
L 380.990704 162.219205 
L 380.250633 170.167911 
L 379.521733 175.896257 
L 378.636487 181.458424 
L 377.603401 186.828888 
L 376.419571 192.024924 
L 375.08933 197.030629 
L 373.609519 201.862836 
L 371.987165 206.504462 
L 370.222997 210.968027 
L 368.318039 215.251048 
L 366.258487 219.378149 
L 364.068189 223.313655 
L 361.739102 227.077407 
L 359.261518 230.681523 
L 356.654075 234.108299 
L 353.900018 237.377158 
L 351.001708 240.485514 
L 347.951452 243.441036 
L 344.758282 246.237227 
L 341.423253 248.876223 
L 337.919917 251.371733 
L 334.262105 253.714604 
L 330.458101 255.900442 
L 326.478912 257.941978 
L 322.344937 259.827879 
L 318.033743 261.566639 
L 313.556042 263.151246 
L 308.910764 264.581938 
L 304.102603 265.854253 
L 299.100736 266.973739 
L 293.94792 267.932043 
L 288.620632 268.732631 
L 283.097851 269.371584 
L 277.412412 269.848218 
L 271.564466 270.162228 
L 263.481625 270.323857 
L 255.092537 270.190647 
L 246.403763 269.761178 
L 237.402794 269.032911 
L 228.096639 268.002633 
L 218.48643 266.673372 
L 208.581951 265.043223 
L 198.369583 263.108841 
L 187.857569 260.868996 
L 177.051481 258.328581 
L 165.936886 255.478608 
L 154.535287 252.328809 
L 142.830702 248.870181 
L 130.831512 245.106101 
L 118.536729 241.035831 
L 105.952673 236.664055 
L 93.073339 231.984305 
L 79.869071 226.986123 
L 79.869071 226.986123 
" style="fill:none;stroke:#ffffff;stroke-linecap:square;"/>
   </g>
   <g id="patch_3">
    <path d="M 57.6 307.584 
L 57.6 41.472 
" style="fill:none;stroke:#000000;stroke-linecap:square;stroke-linejoin:miter;stroke-width:0.8;"/>
   </g>
   <g id="patch_4">
    <path d="M 414.72 307.584 
L 414.72 41.472 
" style="fill:none;stroke:#000000;stroke-linecap:square;stroke-linejoin:miter;stroke-width:0.8;"/>
   </g>
   <g id="patch_5">
    <path d="M 57.6 307.584 
L 414.72 307.584 
" style="fill:none;stroke:#000000;stroke-linecap:square;stroke-linejoin:miter;stroke-width:0.8;"/>
   </g>
   <g id="patch_6">
    <path d="M 57.6 41.472 
L 414.72 41.472 
" style="fill:none;stroke:#000000;stroke-linecap:square;stroke-linejoin:miter;stroke-width:0.8;"/>
   </g>
  </g>
 </g>
 <defs>
  <clipPath id="p801f26f78f">
   <rect height="266.112" width="357.12" x="57.6" y="41.472"/>
  </clipPath>
 </defs>
</svg>
