<?xml version="1.0" encoding="utf-8" standalone="no"?>
<!DOCTYPE svg PUBLIC "-//W3C//DTD SVG 1.1//EN"
  "http://www.w3.org/Graphics/SVG/1.1/DTD/svg11.dtd">
<!-- Created with matplotlib (https://matplotlib.org/) -->
<svg height="345.6pt" version="1.1" viewBox="0 0 460.8 345.6" width="460.8pt" xmlns="http://www.w3.org/2000/svg" xmlns:xlink="http://www.w3.org/1999/xlink">
 <metadata>
  <rdf:RDF xmlns:cc="http://creativecommons.org/ns#" xmlns:dc="http://purl.org/dc/elements/1.1/" xmlns:rdf="http://www.w3.org/1999/02/22-rdf-syntax-ns#">
   <cc:Work>
    <dc:type rdf:resource="http://purl.org/dc/dcmitype/StillImage"/>
    <dc:date>2021-01-10T15:04:45.397966</dc:date>
    <dc:format>image/svg+xml</dc:format>
    <dc:creator>
     <cc:Agent>
      <dc:title>Matplotlib v3.3.3, https://matplotlib.org/</dc:title>
     </cc:Agent>
    </dc:creator>
   </cc:Work>
  </rdf:RDF>
 </metadata>
 <defs>
  <style type="text/css">*{stroke-linecap:butt;stroke-linejoin:round;}</style>
 </defs>
 <g id="figure_1">
  <g id="patch_1">
   <path d="M 0 345.6 
L 460.8 345.6 
L 460.8 0 
L 0 0 
z
" style="fill:#ffffff;"/>
  </g>
  <g id="axes_1">
   <g id="patch_2">
    <path d="M 57.6 307.584 
L 414.72 307.584 
L 414.72 41.472 
L 57.6 41.472 
z
" style="fill:#7d9051;"/>
   </g>
   <g id="matplotlib.axis_1">
    <g id="xtick_1">
     <g id="line2d_1">
      <defs>
       <path d="M 0 0 
L 0 3.5 
" id="me9769da6ef" style="stroke:#000000;stroke-width:0.8;"/>
      </defs>
      <g>
       <use style="stroke:#000000;stroke-width:0.8;" x="83.585014" xlink:href="#me9769da6ef" y="307.584"/>
      </g>
     </g>
     <g id="text_1">
      <!-- 100 -->
      <g transform="translate(74.041264 322.182437)scale(0.1 -0.1)">
       <defs>
        <path d="M 12.40625 8.296875 
L 28.515625 8.296875 
L 28.515625 63.921875 
L 10.984375 60.40625 
L 10.984375 69.390625 
L 28.421875 72.90625 
L 38.28125 72.90625 
L 38.28125 8.296875 
L 54.390625 8.296875 
L 54.390625 0 
L 12.40625 0 
z
" id="DejaVuSans-49"/>
        <path d="M 31.78125 66.40625 
Q 24.171875 66.40625 20.328125 58.90625 
Q 16.5 51.421875 16.5 36.375 
Q 16.5 21.390625 20.328125 13.890625 
Q 24.171875 6.390625 31.78125 6.390625 
Q 39.453125 6.390625 43.28125 13.890625 
Q 47.125 21.390625 47.125 36.375 
Q 47.125 51.421875 43.28125 58.90625 
Q 39.453125 66.40625 31.78125 66.40625 
z
M 31.78125 74.21875 
Q 44.046875 74.21875 50.515625 64.515625 
Q 56.984375 54.828125 56.984375 36.375 
Q 56.984375 17.96875 50.515625 8.265625 
Q 44.046875 -1.421875 31.78125 -1.421875 
Q 19.53125 -1.421875 13.0625 8.265625 
Q 6.59375 17.96875 6.59375 36.375 
Q 6.59375 54.828125 13.0625 64.515625 
Q 19.53125 74.21875 31.78125 74.21875 
z
" id="DejaVuSans-48"/>
       </defs>
       <use xlink:href="#DejaVuSans-49"/>
       <use x="63.623047" xlink:href="#DejaVuSans-48"/>
       <use x="127.246094" xlink:href="#DejaVuSans-48"/>
      </g>
     </g>
    </g>
    <g id="xtick_2">
     <g id="line2d_2">
      <g>
       <use style="stroke:#000000;stroke-width:0.8;" x="151.71955" xlink:href="#me9769da6ef" y="307.584"/>
      </g>
     </g>
     <g id="text_2">
      <!-- 120 -->
      <g transform="translate(142.1758 322.182437)scale(0.1 -0.1)">
       <defs>
        <path d="M 19.1875 8.296875 
L 53.609375 8.296875 
L 53.609375 0 
L 7.328125 0 
L 7.328125 8.296875 
Q 12.9375 14.109375 22.625 23.890625 
Q 32.328125 33.6875 34.8125 36.53125 
Q 39.546875 41.84375 41.421875 45.53125 
Q 43.3125 49.21875 43.3125 52.78125 
Q 43.3125 58.59375 39.234375 62.25 
Q 35.15625 65.921875 28.609375 65.921875 
Q 23.96875 65.921875 18.8125 64.3125 
Q 13.671875 62.703125 7.8125 59.421875 
L 7.8125 69.390625 
Q 13.765625 71.78125 18.9375 73 
Q 24.125 74.21875 28.421875 74.21875 
Q 39.75 74.21875 46.484375 68.546875 
Q 53.21875 62.890625 53.21875 53.421875 
Q 53.21875 48.921875 51.53125 44.890625 
Q 49.859375 40.875 45.40625 35.40625 
Q 44.1875 33.984375 37.640625 27.21875 
Q 31.109375 20.453125 19.1875 8.296875 
z
" id="DejaVuSans-50"/>
       </defs>
       <use xlink:href="#DejaVuSans-49"/>
       <use x="63.623047" xlink:href="#DejaVuSans-50"/>
       <use x="127.246094" xlink:href="#DejaVuSans-48"/>
      </g>
     </g>
    </g>
    <g id="xtick_3">
     <g id="line2d_3">
      <g>
       <use style="stroke:#000000;stroke-width:0.8;" x="219.854086" xlink:href="#me9769da6ef" y="307.584"/>
      </g>
     </g>
     <g id="text_3">
      <!-- 140 -->
      <g transform="translate(210.310336 322.182437)scale(0.1 -0.1)">
       <defs>
        <path d="M 37.796875 64.3125 
L 12.890625 25.390625 
L 37.796875 25.390625 
z
M 35.203125 72.90625 
L 47.609375 72.90625 
L 47.609375 25.390625 
L 58.015625 25.390625 
L 58.015625 17.1875 
L 47.609375 17.1875 
L 47.609375 0 
L 37.796875 0 
L 37.796875 17.1875 
L 4.890625 17.1875 
L 4.890625 26.703125 
z
" id="DejaVuSans-52"/>
       </defs>
       <use xlink:href="#DejaVuSans-49"/>
       <use x="63.623047" xlink:href="#DejaVuSans-52"/>
       <use x="127.246094" xlink:href="#DejaVuSans-48"/>
      </g>
     </g>
    </g>
    <g id="xtick_4">
     <g id="line2d_4">
      <g>
       <use style="stroke:#000000;stroke-width:0.8;" x="287.988623" xlink:href="#me9769da6ef" y="307.584"/>
      </g>
     </g>
     <g id="text_4">
      <!-- 160 -->
      <g transform="translate(278.444873 322.182437)scale(0.1 -0.1)">
       <defs>
        <path d="M 33.015625 40.375 
Q 26.375 40.375 22.484375 35.828125 
Q 18.609375 31.296875 18.609375 23.390625 
Q 18.609375 15.53125 22.484375 10.953125 
Q 26.375 6.390625 33.015625 6.390625 
Q 39.65625 6.390625 43.53125 10.953125 
Q 47.40625 15.53125 47.40625 23.390625 
Q 47.40625 31.296875 43.53125 35.828125 
Q 39.65625 40.375 33.015625 40.375 
z
M 52.59375 71.296875 
L 52.59375 62.3125 
Q 48.875 64.0625 45.09375 64.984375 
Q 41.3125 65.921875 37.59375 65.921875 
Q 27.828125 65.921875 22.671875 59.328125 
Q 17.53125 52.734375 16.796875 39.40625 
Q 19.671875 43.65625 24.015625 45.921875 
Q 28.375 48.1875 33.59375 48.1875 
Q 44.578125 48.1875 50.953125 41.515625 
Q 57.328125 34.859375 57.328125 23.390625 
Q 57.328125 12.15625 50.6875 5.359375 
Q 44.046875 -1.421875 33.015625 -1.421875 
Q 20.359375 -1.421875 13.671875 8.265625 
Q 6.984375 17.96875 6.984375 36.375 
Q 6.984375 53.65625 15.1875 63.9375 
Q 23.390625 74.21875 37.203125 74.21875 
Q 40.921875 74.21875 44.703125 73.484375 
Q 48.484375 72.75 52.59375 71.296875 
z
" id="DejaVuSans-54"/>
       </defs>
       <use xlink:href="#DejaVuSans-49"/>
       <use x="63.623047" xlink:href="#DejaVuSans-54"/>
       <use x="127.246094" xlink:href="#DejaVuSans-48"/>
      </g>
     </g>
    </g>
    <g id="xtick_5">
     <g id="line2d_5">
      <g>
       <use style="stroke:#000000;stroke-width:0.8;" x="356.123159" xlink:href="#me9769da6ef" y="307.584"/>
      </g>
     </g>
     <g id="text_5">
      <!-- 180 -->
      <g transform="translate(346.579409 322.182437)scale(0.1 -0.1)">
       <defs>
        <path d="M 31.78125 34.625 
Q 24.75 34.625 20.71875 30.859375 
Q 16.703125 27.09375 16.703125 20.515625 
Q 16.703125 13.921875 20.71875 10.15625 
Q 24.75 6.390625 31.78125 6.390625 
Q 38.8125 6.390625 42.859375 10.171875 
Q 46.921875 13.96875 46.921875 20.515625 
Q 46.921875 27.09375 42.890625 30.859375 
Q 38.875 34.625 31.78125 34.625 
z
M 21.921875 38.8125 
Q 15.578125 40.375 12.03125 44.71875 
Q 8.5 49.078125 8.5 55.328125 
Q 8.5 64.0625 14.71875 69.140625 
Q 20.953125 74.21875 31.78125 74.21875 
Q 42.671875 74.21875 48.875 69.140625 
Q 55.078125 64.0625 55.078125 55.328125 
Q 55.078125 49.078125 51.53125 44.71875 
Q 48 40.375 41.703125 38.8125 
Q 48.828125 37.15625 52.796875 32.3125 
Q 56.78125 27.484375 56.78125 20.515625 
Q 56.78125 9.90625 50.3125 4.234375 
Q 43.84375 -1.421875 31.78125 -1.421875 
Q 19.734375 -1.421875 13.25 4.234375 
Q 6.78125 9.90625 6.78125 20.515625 
Q 6.78125 27.484375 10.78125 32.3125 
Q 14.796875 37.15625 21.921875 38.8125 
z
M 18.3125 54.390625 
Q 18.3125 48.734375 21.84375 45.5625 
Q 25.390625 42.390625 31.78125 42.390625 
Q 38.140625 42.390625 41.71875 45.5625 
Q 45.3125 48.734375 45.3125 54.390625 
Q 45.3125 60.0625 41.71875 63.234375 
Q 38.140625 66.40625 31.78125 66.40625 
Q 25.390625 66.40625 21.84375 63.234375 
Q 18.3125 60.0625 18.3125 54.390625 
z
" id="DejaVuSans-56"/>
       </defs>
       <use xlink:href="#DejaVuSans-49"/>
       <use x="63.623047" xlink:href="#DejaVuSans-56"/>
       <use x="127.246094" xlink:href="#DejaVuSans-48"/>
      </g>
     </g>
    </g>
   </g>
   <g id="matplotlib.axis_2">
    <g id="ytick_1">
     <g id="line2d_6">
      <defs>
       <path d="M 0 0 
L -3.5 0 
" id="m37a90e8446" style="stroke:#000000;stroke-width:0.8;"/>
      </defs>
      <g>
       <use style="stroke:#000000;stroke-width:0.8;" x="57.6" xlink:href="#m37a90e8446" y="289.523118"/>
      </g>
     </g>
     <g id="text_6">
      <!-- 40 -->
      <g transform="translate(37.875 293.322337)scale(0.1 -0.1)">
       <use xlink:href="#DejaVuSans-52"/>
       <use x="63.623047" xlink:href="#DejaVuSans-48"/>
      </g>
     </g>
    </g>
    <g id="ytick_2">
     <g id="line2d_7">
      <g>
       <use style="stroke:#000000;stroke-width:0.8;" x="57.6" xlink:href="#m37a90e8446" y="255.45585"/>
      </g>
     </g>
     <g id="text_7">
      <!-- 50 -->
      <g transform="translate(37.875 259.255068)scale(0.1 -0.1)">
       <defs>
        <path d="M 10.796875 72.90625 
L 49.515625 72.90625 
L 49.515625 64.59375 
L 19.828125 64.59375 
L 19.828125 46.734375 
Q 21.96875 47.46875 24.109375 47.828125 
Q 26.265625 48.1875 28.421875 48.1875 
Q 40.625 48.1875 47.75 41.5 
Q 54.890625 34.8125 54.890625 23.390625 
Q 54.890625 11.625 47.5625 5.09375 
Q 40.234375 -1.421875 26.90625 -1.421875 
Q 22.3125 -1.421875 17.546875 -0.640625 
Q 12.796875 0.140625 7.71875 1.703125 
L 7.71875 11.625 
Q 12.109375 9.234375 16.796875 8.0625 
Q 21.484375 6.890625 26.703125 6.890625 
Q 35.15625 6.890625 40.078125 11.328125 
Q 45.015625 15.765625 45.015625 23.390625 
Q 45.015625 31 40.078125 35.4375 
Q 35.15625 39.890625 26.703125 39.890625 
Q 22.75 39.890625 18.8125 39.015625 
Q 14.890625 38.140625 10.796875 36.28125 
z
" id="DejaVuSans-53"/>
       </defs>
       <use xlink:href="#DejaVuSans-53"/>
       <use x="63.623047" xlink:href="#DejaVuSans-48"/>
      </g>
     </g>
    </g>
    <g id="ytick_3">
     <g id="line2d_8">
      <g>
       <use style="stroke:#000000;stroke-width:0.8;" x="57.6" xlink:href="#m37a90e8446" y="221.388582"/>
      </g>
     </g>
     <g id="text_8">
      <!-- 60 -->
      <g transform="translate(37.875 225.1878)scale(0.1 -0.1)">
       <use xlink:href="#DejaVuSans-54"/>
       <use x="63.623047" xlink:href="#DejaVuSans-48"/>
      </g>
     </g>
    </g>
    <g id="ytick_4">
     <g id="line2d_9">
      <g>
       <use style="stroke:#000000;stroke-width:0.8;" x="57.6" xlink:href="#m37a90e8446" y="187.321313"/>
      </g>
     </g>
     <g id="text_9">
      <!-- 70 -->
      <g transform="translate(37.875 191.120532)scale(0.1 -0.1)">
       <defs>
        <path d="M 8.203125 72.90625 
L 55.078125 72.90625 
L 55.078125 68.703125 
L 28.609375 0 
L 18.3125 0 
L 43.21875 64.59375 
L 8.203125 64.59375 
z
" id="DejaVuSans-55"/>
       </defs>
       <use xlink:href="#DejaVuSans-55"/>
       <use x="63.623047" xlink:href="#DejaVuSans-48"/>
      </g>
     </g>
    </g>
    <g id="ytick_5">
     <g id="line2d_10">
      <g>
       <use style="stroke:#000000;stroke-width:0.8;" x="57.6" xlink:href="#m37a90e8446" y="153.254045"/>
      </g>
     </g>
     <g id="text_10">
      <!-- 80 -->
      <g transform="translate(37.875 157.053264)scale(0.1 -0.1)">
       <use xlink:href="#DejaVuSans-56"/>
       <use x="63.623047" xlink:href="#DejaVuSans-48"/>
      </g>
     </g>
    </g>
    <g id="ytick_6">
     <g id="line2d_11">
      <g>
       <use style="stroke:#000000;stroke-width:0.8;" x="57.6" xlink:href="#m37a90e8446" y="119.186777"/>
      </g>
     </g>
     <g id="text_11">
      <!-- 90 -->
      <g transform="translate(37.875 122.985996)scale(0.1 -0.1)">
       <defs>
        <path d="M 10.984375 1.515625 
L 10.984375 10.5 
Q 14.703125 8.734375 18.5 7.8125 
Q 22.3125 6.890625 25.984375 6.890625 
Q 35.75 6.890625 40.890625 13.453125 
Q 46.046875 20.015625 46.78125 33.40625 
Q 43.953125 29.203125 39.59375 26.953125 
Q 35.25 24.703125 29.984375 24.703125 
Q 19.046875 24.703125 12.671875 31.3125 
Q 6.296875 37.9375 6.296875 49.421875 
Q 6.296875 60.640625 12.9375 67.421875 
Q 19.578125 74.21875 30.609375 74.21875 
Q 43.265625 74.21875 49.921875 64.515625 
Q 56.59375 54.828125 56.59375 36.375 
Q 56.59375 19.140625 48.40625 8.859375 
Q 40.234375 -1.421875 26.421875 -1.421875 
Q 22.703125 -1.421875 18.890625 -0.6875 
Q 15.09375 0.046875 10.984375 1.515625 
z
M 30.609375 32.421875 
Q 37.25 32.421875 41.125 36.953125 
Q 45.015625 41.5 45.015625 49.421875 
Q 45.015625 57.28125 41.125 61.84375 
Q 37.25 66.40625 30.609375 66.40625 
Q 23.96875 66.40625 20.09375 61.84375 
Q 16.21875 57.28125 16.21875 49.421875 
Q 16.21875 41.5 20.09375 36.953125 
Q 23.96875 32.421875 30.609375 32.421875 
z
" id="DejaVuSans-57"/>
       </defs>
       <use xlink:href="#DejaVuSans-57"/>
       <use x="63.623047" xlink:href="#DejaVuSans-48"/>
      </g>
     </g>
    </g>
    <g id="ytick_7">
     <g id="line2d_12">
      <g>
       <use style="stroke:#000000;stroke-width:0.8;" x="57.6" xlink:href="#m37a90e8446" y="85.119509"/>
      </g>
     </g>
     <g id="text_12">
      <!-- 100 -->
      <g transform="translate(31.5125 88.918728)scale(0.1 -0.1)">
       <use xlink:href="#DejaVuSans-49"/>
       <use x="63.623047" xlink:href="#DejaVuSans-48"/>
       <use x="127.246094" xlink:href="#DejaVuSans-48"/>
      </g>
     </g>
    </g>
    <g id="ytick_8">
     <g id="line2d_13">
      <g>
       <use style="stroke:#000000;stroke-width:0.8;" x="57.6" xlink:href="#m37a90e8446" y="51.052241"/>
      </g>
     </g>
     <g id="text_13">
      <!-- 110 -->
      <g transform="translate(31.5125 54.85146)scale(0.1 -0.1)">
       <use xlink:href="#DejaVuSans-49"/>
       <use x="63.623047" xlink:href="#DejaVuSans-49"/>
       <use x="127.246094" xlink:href="#DejaVuSans-48"/>
      </g>
     </g>
    </g>
   </g>
   <g id="line2d_14">
    <path clip-path="url(#p56550e4dbc)" d="M 199.413726 292.929845 
L 198.650619 288.937161 
L 197.94202 284.968324 
L 197.281115 281.023334 
L 196.678124 277.105599 
L 196.122827 273.21171 
L 195.622039 269.341668 
L 195.175757 265.49888 
L 194.77717 261.67994 
L 194.436498 257.884846 
L 194.143519 254.117006 
L 193.905048 250.373013 
L 193.721085 246.652868 
L 193.584816 242.959976 
L 193.503055 239.287524 
L 193.475801 235.645733 
L 193.499648 232.024383 
L 193.574596 228.430286 
L 193.704051 224.860036 
L 193.884608 221.313634 
L 194.119672 217.794485 
L 194.40243 214.299183 
L 194.743103 210.827728 
L 195.13147 207.383528 
L 195.574344 203.963174 
L 196.071727 200.566667 
L 196.62021 197.197414 
L 197.219793 193.848602 
L 197.873885 190.53045 
L 198.579077 187.232739 
L 199.335371 183.962281 
L 200.146172 180.71567 
L 201.008074 177.492907 
L 201.924483 174.297397 
L 202.891994 171.125734 
L 203.910605 167.977919 
L 204.983724 164.857357 
L 206.107944 161.760642 
L 207.283264 158.687775 
L 208.513093 155.642161 
L 209.797429 152.620394 
L 211.129459 149.622475 
L 212.515997 146.648402 
L 213.957042 143.701583 
L 215.449189 140.778612 
L 216.992436 137.879487 
L 218.590191 135.007617 
L 220.239047 132.159593 
L 221.939003 129.338823 
L 223.693468 126.538494 
L 225.499033 123.765418 
L 227.359106 121.01619 
L 229.270279 118.294215 
L 231.232554 115.596087 
L 233.249336 112.921807 
L 235.317219 110.27478 
L 237.43961 107.648194 
L 239.613102 105.052268 
L 241.837695 102.476782 
L 244.116795 99.928551 
L 246.446996 97.404166 
L 248.831705 94.903629 
L 251.264108 92.430345 
L 253.754425 89.980908 
L 256.292436 87.555319 
L 258.888362 85.156983 
L 261.531982 82.782495 
L 264.23011 80.431853 
L 266.979338 78.105059 
L 269.783075 75.805518 
L 272.637912 73.529825 
L 275.54385 71.281385 
L 278.504295 69.056792 
L 281.515842 66.856047 
L 284.581896 64.679148 
" style="fill:none;stroke:#fea952;stroke-linecap:square;"/>
   </g>
   <g id="line2d_15">
    <path clip-path="url(#p56550e4dbc)" d="M 186.029091 295.488 
L 185.235844 291.332245 
L 184.502408 287.219865 
L 183.812801 283.096284 
L 183.187702 279.029429 
L 182.608597 274.96047 
L 182.086107 270.91366 
L 181.62247 266.913452 
L 181.204837 262.898282 
L 180.8506 258.941254 
L 180.54417 254.983207 
L 180.294772 251.046049 
L 180.103446 247.155364 
L 179.961285 243.263283 
L 179.876529 239.3895 
L 179.849189 235.556 
L 179.875702 231.740281 
L 179.956638 227.936505 
L 180.094771 224.167153 
L 180.287999 220.405438 
L 180.537136 216.695703 
L 180.84067 212.968294 
L 181.20201 209.30084 
L 181.617378 205.633695 
L 182.091239 201.988717 
L 182.62187 198.377156 
L 183.206604 194.795792 
L 183.850171 191.213112 
L 184.548255 187.680858 
L 185.302539 184.162539 
L 186.114513 180.660535 
L 186.981922 177.194999 
L 187.909171 173.736398 
L 188.890523 170.321409 
L 189.926989 166.930349 
L 191.024362 163.546514 
L 192.174779 160.207245 
L 193.38026 156.892515 
L 194.647637 153.585469 
L 195.971956 150.311824 
L 197.34442 147.087296 
L 198.778818 143.864501 
L 200.274417 140.662057 
L 201.820116 137.50581 
L 203.420364 134.375489 
L 205.084376 131.254481 
L 206.797107 128.180042 
L 208.567773 125.125818 
L 210.391308 122.103953 
L 212.273847 119.103114 
L 214.212664 116.129288 
L 216.206667 113.185754 
L 218.249708 110.279254 
L 220.352687 107.391143 
L 222.510792 104.532751 
L 224.718096 101.710249 
L 226.991388 98.900207 
L 229.300558 96.14474 
L 231.680585 93.392415 
L 234.103696 90.685691 
L 236.585628 87.999592 
L 239.116066 85.348579 
L 241.7085 82.715256 
L 244.339402 80.129515 
L 247.045213 77.54625 
L 249.782551 75.019093 
L 252.580664 72.507938 
L 255.426759 70.030237 
L 258.337723 67.568689 
L 261.289034 65.149821 
L 264.298943 62.752339 
L 267.35768 60.387385 
L 270.464194 58.054548 
L 273.626926 55.744898 
L 276.692981 53.568 
" style="fill:none;stroke:#ffffff;stroke-linecap:square;"/>
   </g>
   <g id="line2d_16">
    <path clip-path="url(#p56550e4dbc)" d="M 212.79836 290.371689 
L 212.065393 286.542077 
L 211.381631 282.716783 
L 210.749429 278.950385 
L 210.168546 275.181768 
L 209.637058 271.462949 
L 209.15797 267.769676 
L 208.729044 264.084309 
L 208.349504 260.461597 
L 208.022395 256.828438 
L 207.742868 253.250805 
L 207.515325 249.699978 
L 207.338724 246.150372 
L 207.208347 242.656669 
L 207.12958 239.185548 
L 207.102412 235.735466 
L 207.123593 232.308484 
L 207.192554 228.924067 
L 207.313332 225.55292 
L 207.481217 222.221829 
L 207.702208 218.893267 
L 207.96419 215.630072 
L 208.284197 212.354617 
L 208.645562 209.13336 
L 209.057449 205.937631 
L 209.521583 202.756179 
L 210.033815 199.599037 
L 210.589415 196.484092 
L 211.199515 193.380043 
L 211.855616 190.302938 
L 212.556228 187.264027 
L 213.310422 184.236342 
L 214.106976 181.249415 
L 214.958444 178.273385 
L 215.856998 175.32112 
L 216.796848 172.409323 
L 217.792668 169.507469 
L 218.835628 166.62877 
L 219.918892 163.79008 
L 221.05423 160.972497 
L 222.250438 158.153492 
L 223.4801 155.380448 
L 224.757577 152.634747 
L 226.093969 149.897357 
L 227.478013 147.181735 
L 228.900496 144.504493 
L 230.383274 141.835191 
L 231.91032 139.193367 
L 233.486698 136.573693 
L 235.113088 133.973873 
L 236.785401 131.401548 
L 238.511544 128.846625 
L 240.290851 126.309176 
L 242.11242 123.801031 
L 243.987881 121.310863 
L 245.916342 118.839311 
L 247.887832 116.39618 
L 249.925645 113.959795 
L 251.994804 111.561149 
L 254.129893 109.171411 
L 256.308364 106.80874 
L 258.547343 104.458678 
L 260.819715 102.145434 
L 263.169448 99.832302 
L 265.53966 97.564388 
L 267.994173 95.294873 
L 270.4833 93.057051 
L 273.03346 90.833469 
L 275.620954 88.641428 
L 278.277115 86.461215 
L 280.976881 84.30731 
L 283.730019 82.175384 
L 286.544396 80.059036 
L 289.404757 77.967195 
L 292.470811 75.790297 
" style="fill:none;stroke:#ffffff;stroke-linecap:square;"/>
   </g>
   <g id="patch_3">
    <path d="M 57.6 307.584 
L 57.6 41.472 
" style="fill:none;stroke:#000000;stroke-linecap:square;stroke-linejoin:miter;stroke-width:0.8;"/>
   </g>
   <g id="patch_4">
    <path d="M 414.72 307.584 
L 414.72 41.472 
" style="fill:none;stroke:#000000;stroke-linecap:square;stroke-linejoin:miter;stroke-width:0.8;"/>
   </g>
   <g id="patch_5">
    <path d="M 57.6 307.584 
L 414.72 307.584 
" style="fill:none;stroke:#000000;stroke-linecap:square;stroke-linejoin:miter;stroke-width:0.8;"/>
   </g>
   <g id="patch_6">
    <path d="M 57.6 41.472 
L 414.72 41.472 
" style="fill:none;stroke:#000000;stroke-linecap:square;stroke-linejoin:miter;stroke-width:0.8;"/>
   </g>
  </g>
 </g>
 <defs>
  <clipPath id="p56550e4dbc">
   <rect height="266.112" width="357.12" x="57.6" y="41.472"/>
  </clipPath>
 </defs>
</svg>
