<?xml version="1.0" encoding="utf-8" standalone="no"?>
<!DOCTYPE svg PUBLIC "-//W3C//DTD SVG 1.1//EN"
  "http://www.w3.org/Graphics/SVG/1.1/DTD/svg11.dtd">
<!-- Created with matplotlib (https://matplotlib.org/) -->
<svg height="345.6pt" version="1.1" viewBox="0 0 460.8 345.6" width="460.8pt" xmlns="http://www.w3.org/2000/svg" xmlns:xlink="http://www.w3.org/1999/xlink">
 <metadata>
  <rdf:RDF xmlns:cc="http://creativecommons.org/ns#" xmlns:dc="http://purl.org/dc/elements/1.1/" xmlns:rdf="http://www.w3.org/1999/02/22-rdf-syntax-ns#">
   <cc:Work>
    <dc:type rdf:resource="http://purl.org/dc/dcmitype/StillImage"/>
    <dc:date>2021-01-10T14:50:07.202362</dc:date>
    <dc:format>image/svg+xml</dc:format>
    <dc:creator>
     <cc:Agent>
      <dc:title>Matplotlib v3.3.3, https://matplotlib.org/</dc:title>
     </cc:Agent>
    </dc:creator>
   </cc:Work>
  </rdf:RDF>
 </metadata>
 <defs>
  <style type="text/css">*{stroke-linecap:butt;stroke-linejoin:round;}</style>
 </defs>
 <g id="figure_1">
  <g id="patch_1">
   <path d="M 0 345.6 
L 460.8 345.6 
L 460.8 0 
L 0 0 
z
" style="fill:#ffffff;"/>
  </g>
  <g id="axes_1">
   <g id="patch_2">
    <path d="M 57.6 307.584 
L 414.72 307.584 
L 414.72 41.472 
L 57.6 41.472 
z
" style="fill:#7d9051;"/>
   </g>
   <g id="matplotlib.axis_1">
    <g id="xtick_1">
     <g id="line2d_1">
      <defs>
       <path d="M 0 0 
L 0 3.5 
" id="m2d0b100db4" style="stroke:#000000;stroke-width:0.8;"/>
      </defs>
      <g>
       <use style="stroke:#000000;stroke-width:0.8;" x="98.219555" xlink:href="#m2d0b100db4" y="307.584"/>
      </g>
     </g>
     <g id="text_1">
      <!-- 100 -->
      <g transform="translate(88.675805 322.182437)scale(0.1 -0.1)">
       <defs>
        <path d="M 12.40625 8.296875 
L 28.515625 8.296875 
L 28.515625 63.921875 
L 10.984375 60.40625 
L 10.984375 69.390625 
L 28.421875 72.90625 
L 38.28125 72.90625 
L 38.28125 8.296875 
L 54.390625 8.296875 
L 54.390625 0 
L 12.40625 0 
z
" id="DejaVuSans-49"/>
        <path d="M 31.78125 66.40625 
Q 24.171875 66.40625 20.328125 58.90625 
Q 16.5 51.421875 16.5 36.375 
Q 16.5 21.390625 20.328125 13.890625 
Q 24.171875 6.390625 31.78125 6.390625 
Q 39.453125 6.390625 43.28125 13.890625 
Q 47.125 21.390625 47.125 36.375 
Q 47.125 51.421875 43.28125 58.90625 
Q 39.453125 66.40625 31.78125 66.40625 
z
M 31.78125 74.21875 
Q 44.046875 74.21875 50.515625 64.515625 
Q 56.984375 54.828125 56.984375 36.375 
Q 56.984375 17.96875 50.515625 8.265625 
Q 44.046875 -1.421875 31.78125 -1.421875 
Q 19.53125 -1.421875 13.0625 8.265625 
Q 6.59375 17.96875 6.59375 36.375 
Q 6.59375 54.828125 13.0625 64.515625 
Q 19.53125 74.21875 31.78125 74.21875 
z
" id="DejaVuSans-48"/>
       </defs>
       <use xlink:href="#DejaVuSans-49"/>
       <use x="63.623047" xlink:href="#DejaVuSans-48"/>
       <use x="127.246094" xlink:href="#DejaVuSans-48"/>
      </g>
     </g>
    </g>
    <g id="xtick_2">
     <g id="line2d_2">
      <g>
       <use style="stroke:#000000;stroke-width:0.8;" x="176.566051" xlink:href="#m2d0b100db4" y="307.584"/>
      </g>
     </g>
     <g id="text_2">
      <!-- 120 -->
      <g transform="translate(167.022301 322.182437)scale(0.1 -0.1)">
       <defs>
        <path d="M 19.1875 8.296875 
L 53.609375 8.296875 
L 53.609375 0 
L 7.328125 0 
L 7.328125 8.296875 
Q 12.9375 14.109375 22.625 23.890625 
Q 32.328125 33.6875 34.8125 36.53125 
Q 39.546875 41.84375 41.421875 45.53125 
Q 43.3125 49.21875 43.3125 52.78125 
Q 43.3125 58.59375 39.234375 62.25 
Q 35.15625 65.921875 28.609375 65.921875 
Q 23.96875 65.921875 18.8125 64.3125 
Q 13.671875 62.703125 7.8125 59.421875 
L 7.8125 69.390625 
Q 13.765625 71.78125 18.9375 73 
Q 24.125 74.21875 28.421875 74.21875 
Q 39.75 74.21875 46.484375 68.546875 
Q 53.21875 62.890625 53.21875 53.421875 
Q 53.21875 48.921875 51.53125 44.890625 
Q 49.859375 40.875 45.40625 35.40625 
Q 44.1875 33.984375 37.640625 27.21875 
Q 31.109375 20.453125 19.1875 8.296875 
z
" id="DejaVuSans-50"/>
       </defs>
       <use xlink:href="#DejaVuSans-49"/>
       <use x="63.623047" xlink:href="#DejaVuSans-50"/>
       <use x="127.246094" xlink:href="#DejaVuSans-48"/>
      </g>
     </g>
    </g>
    <g id="xtick_3">
     <g id="line2d_3">
      <g>
       <use style="stroke:#000000;stroke-width:0.8;" x="254.912547" xlink:href="#m2d0b100db4" y="307.584"/>
      </g>
     </g>
     <g id="text_3">
      <!-- 140 -->
      <g transform="translate(245.368797 322.182437)scale(0.1 -0.1)">
       <defs>
        <path d="M 37.796875 64.3125 
L 12.890625 25.390625 
L 37.796875 25.390625 
z
M 35.203125 72.90625 
L 47.609375 72.90625 
L 47.609375 25.390625 
L 58.015625 25.390625 
L 58.015625 17.1875 
L 47.609375 17.1875 
L 47.609375 0 
L 37.796875 0 
L 37.796875 17.1875 
L 4.890625 17.1875 
L 4.890625 26.703125 
z
" id="DejaVuSans-52"/>
       </defs>
       <use xlink:href="#DejaVuSans-49"/>
       <use x="63.623047" xlink:href="#DejaVuSans-52"/>
       <use x="127.246094" xlink:href="#DejaVuSans-48"/>
      </g>
     </g>
    </g>
    <g id="xtick_4">
     <g id="line2d_4">
      <g>
       <use style="stroke:#000000;stroke-width:0.8;" x="333.259042" xlink:href="#m2d0b100db4" y="307.584"/>
      </g>
     </g>
     <g id="text_4">
      <!-- 160 -->
      <g transform="translate(323.715292 322.182437)scale(0.1 -0.1)">
       <defs>
        <path d="M 33.015625 40.375 
Q 26.375 40.375 22.484375 35.828125 
Q 18.609375 31.296875 18.609375 23.390625 
Q 18.609375 15.53125 22.484375 10.953125 
Q 26.375 6.390625 33.015625 6.390625 
Q 39.65625 6.390625 43.53125 10.953125 
Q 47.40625 15.53125 47.40625 23.390625 
Q 47.40625 31.296875 43.53125 35.828125 
Q 39.65625 40.375 33.015625 40.375 
z
M 52.59375 71.296875 
L 52.59375 62.3125 
Q 48.875 64.0625 45.09375 64.984375 
Q 41.3125 65.921875 37.59375 65.921875 
Q 27.828125 65.921875 22.671875 59.328125 
Q 17.53125 52.734375 16.796875 39.40625 
Q 19.671875 43.65625 24.015625 45.921875 
Q 28.375 48.1875 33.59375 48.1875 
Q 44.578125 48.1875 50.953125 41.515625 
Q 57.328125 34.859375 57.328125 23.390625 
Q 57.328125 12.15625 50.6875 5.359375 
Q 44.046875 -1.421875 33.015625 -1.421875 
Q 20.359375 -1.421875 13.671875 8.265625 
Q 6.984375 17.96875 6.984375 36.375 
Q 6.984375 53.65625 15.1875 63.9375 
Q 23.390625 74.21875 37.203125 74.21875 
Q 40.921875 74.21875 44.703125 73.484375 
Q 48.484375 72.75 52.59375 71.296875 
z
" id="DejaVuSans-54"/>
       </defs>
       <use xlink:href="#DejaVuSans-49"/>
       <use x="63.623047" xlink:href="#DejaVuSans-54"/>
       <use x="127.246094" xlink:href="#DejaVuSans-48"/>
      </g>
     </g>
    </g>
    <g id="xtick_5">
     <g id="line2d_5">
      <g>
       <use style="stroke:#000000;stroke-width:0.8;" x="411.605538" xlink:href="#m2d0b100db4" y="307.584"/>
      </g>
     </g>
     <g id="text_5">
      <!-- 180 -->
      <g transform="translate(402.061788 322.182437)scale(0.1 -0.1)">
       <defs>
        <path d="M 31.78125 34.625 
Q 24.75 34.625 20.71875 30.859375 
Q 16.703125 27.09375 16.703125 20.515625 
Q 16.703125 13.921875 20.71875 10.15625 
Q 24.75 6.390625 31.78125 6.390625 
Q 38.8125 6.390625 42.859375 10.171875 
Q 46.921875 13.96875 46.921875 20.515625 
Q 46.921875 27.09375 42.890625 30.859375 
Q 38.875 34.625 31.78125 34.625 
z
M 21.921875 38.8125 
Q 15.578125 40.375 12.03125 44.71875 
Q 8.5 49.078125 8.5 55.328125 
Q 8.5 64.0625 14.71875 69.140625 
Q 20.953125 74.21875 31.78125 74.21875 
Q 42.671875 74.21875 48.875 69.140625 
Q 55.078125 64.0625 55.078125 55.328125 
Q 55.078125 49.078125 51.53125 44.71875 
Q 48 40.375 41.703125 38.8125 
Q 48.828125 37.15625 52.796875 32.3125 
Q 56.78125 27.484375 56.78125 20.515625 
Q 56.78125 9.90625 50.3125 4.234375 
Q 43.84375 -1.421875 31.78125 -1.421875 
Q 19.734375 -1.421875 13.25 4.234375 
Q 6.78125 9.90625 6.78125 20.515625 
Q 6.78125 27.484375 10.78125 32.3125 
Q 14.796875 37.15625 21.921875 38.8125 
z
M 18.3125 54.390625 
Q 18.3125 48.734375 21.84375 45.5625 
Q 25.390625 42.390625 31.78125 42.390625 
Q 38.140625 42.390625 41.71875 45.5625 
Q 45.3125 48.734375 45.3125 54.390625 
Q 45.3125 60.0625 41.71875 63.234375 
Q 38.140625 66.40625 31.78125 66.40625 
Q 25.390625 66.40625 21.84375 63.234375 
Q 18.3125 60.0625 18.3125 54.390625 
z
" id="DejaVuSans-56"/>
       </defs>
       <use xlink:href="#DejaVuSans-49"/>
       <use x="63.623047" xlink:href="#DejaVuSans-56"/>
       <use x="127.246094" xlink:href="#DejaVuSans-48"/>
      </g>
     </g>
    </g>
   </g>
   <g id="matplotlib.axis_2">
    <g id="ytick_1">
     <g id="line2d_6">
      <defs>
       <path d="M 0 0 
L -3.5 0 
" id="mc52568266f" style="stroke:#000000;stroke-width:0.8;"/>
      </defs>
      <g>
       <use style="stroke:#000000;stroke-width:0.8;" x="57.6" xlink:href="#mc52568266f" y="276.39376"/>
      </g>
     </g>
     <g id="text_6">
      <!-- 80 -->
      <g transform="translate(37.875 280.192979)scale(0.1 -0.1)">
       <use xlink:href="#DejaVuSans-56"/>
       <use x="63.623047" xlink:href="#DejaVuSans-48"/>
      </g>
     </g>
    </g>
    <g id="ytick_2">
     <g id="line2d_7">
      <g>
       <use style="stroke:#000000;stroke-width:0.8;" x="57.6" xlink:href="#mc52568266f" y="237.220512"/>
      </g>
     </g>
     <g id="text_7">
      <!-- 90 -->
      <g transform="translate(37.875 241.019731)scale(0.1 -0.1)">
       <defs>
        <path d="M 10.984375 1.515625 
L 10.984375 10.5 
Q 14.703125 8.734375 18.5 7.8125 
Q 22.3125 6.890625 25.984375 6.890625 
Q 35.75 6.890625 40.890625 13.453125 
Q 46.046875 20.015625 46.78125 33.40625 
Q 43.953125 29.203125 39.59375 26.953125 
Q 35.25 24.703125 29.984375 24.703125 
Q 19.046875 24.703125 12.671875 31.3125 
Q 6.296875 37.9375 6.296875 49.421875 
Q 6.296875 60.640625 12.9375 67.421875 
Q 19.578125 74.21875 30.609375 74.21875 
Q 43.265625 74.21875 49.921875 64.515625 
Q 56.59375 54.828125 56.59375 36.375 
Q 56.59375 19.140625 48.40625 8.859375 
Q 40.234375 -1.421875 26.421875 -1.421875 
Q 22.703125 -1.421875 18.890625 -0.6875 
Q 15.09375 0.046875 10.984375 1.515625 
z
M 30.609375 32.421875 
Q 37.25 32.421875 41.125 36.953125 
Q 45.015625 41.5 45.015625 49.421875 
Q 45.015625 57.28125 41.125 61.84375 
Q 37.25 66.40625 30.609375 66.40625 
Q 23.96875 66.40625 20.09375 61.84375 
Q 16.21875 57.28125 16.21875 49.421875 
Q 16.21875 41.5 20.09375 36.953125 
Q 23.96875 32.421875 30.609375 32.421875 
z
" id="DejaVuSans-57"/>
       </defs>
       <use xlink:href="#DejaVuSans-57"/>
       <use x="63.623047" xlink:href="#DejaVuSans-48"/>
      </g>
     </g>
    </g>
    <g id="ytick_3">
     <g id="line2d_8">
      <g>
       <use style="stroke:#000000;stroke-width:0.8;" x="57.6" xlink:href="#mc52568266f" y="198.047264"/>
      </g>
     </g>
     <g id="text_8">
      <!-- 100 -->
      <g transform="translate(31.5125 201.846483)scale(0.1 -0.1)">
       <use xlink:href="#DejaVuSans-49"/>
       <use x="63.623047" xlink:href="#DejaVuSans-48"/>
       <use x="127.246094" xlink:href="#DejaVuSans-48"/>
      </g>
     </g>
    </g>
    <g id="ytick_4">
     <g id="line2d_9">
      <g>
       <use style="stroke:#000000;stroke-width:0.8;" x="57.6" xlink:href="#mc52568266f" y="158.874016"/>
      </g>
     </g>
     <g id="text_9">
      <!-- 110 -->
      <g transform="translate(31.5125 162.673235)scale(0.1 -0.1)">
       <use xlink:href="#DejaVuSans-49"/>
       <use x="63.623047" xlink:href="#DejaVuSans-49"/>
       <use x="127.246094" xlink:href="#DejaVuSans-48"/>
      </g>
     </g>
    </g>
    <g id="ytick_5">
     <g id="line2d_10">
      <g>
       <use style="stroke:#000000;stroke-width:0.8;" x="57.6" xlink:href="#mc52568266f" y="119.700769"/>
      </g>
     </g>
     <g id="text_10">
      <!-- 120 -->
      <g transform="translate(31.5125 123.499987)scale(0.1 -0.1)">
       <use xlink:href="#DejaVuSans-49"/>
       <use x="63.623047" xlink:href="#DejaVuSans-50"/>
       <use x="127.246094" xlink:href="#DejaVuSans-48"/>
      </g>
     </g>
    </g>
    <g id="ytick_6">
     <g id="line2d_11">
      <g>
       <use style="stroke:#000000;stroke-width:0.8;" x="57.6" xlink:href="#mc52568266f" y="80.527521"/>
      </g>
     </g>
     <g id="text_11">
      <!-- 130 -->
      <g transform="translate(31.5125 84.32674)scale(0.1 -0.1)">
       <defs>
        <path d="M 40.578125 39.3125 
Q 47.65625 37.796875 51.625 33 
Q 55.609375 28.21875 55.609375 21.1875 
Q 55.609375 10.40625 48.1875 4.484375 
Q 40.765625 -1.421875 27.09375 -1.421875 
Q 22.515625 -1.421875 17.65625 -0.515625 
Q 12.796875 0.390625 7.625 2.203125 
L 7.625 11.71875 
Q 11.71875 9.328125 16.59375 8.109375 
Q 21.484375 6.890625 26.8125 6.890625 
Q 36.078125 6.890625 40.9375 10.546875 
Q 45.796875 14.203125 45.796875 21.1875 
Q 45.796875 27.640625 41.28125 31.265625 
Q 36.765625 34.90625 28.71875 34.90625 
L 20.21875 34.90625 
L 20.21875 43.015625 
L 29.109375 43.015625 
Q 36.375 43.015625 40.234375 45.921875 
Q 44.09375 48.828125 44.09375 54.296875 
Q 44.09375 59.90625 40.109375 62.90625 
Q 36.140625 65.921875 28.71875 65.921875 
Q 24.65625 65.921875 20.015625 65.03125 
Q 15.375 64.15625 9.8125 62.3125 
L 9.8125 71.09375 
Q 15.4375 72.65625 20.34375 73.4375 
Q 25.25 74.21875 29.59375 74.21875 
Q 40.828125 74.21875 47.359375 69.109375 
Q 53.90625 64.015625 53.90625 55.328125 
Q 53.90625 49.265625 50.4375 45.09375 
Q 46.96875 40.921875 40.578125 39.3125 
z
" id="DejaVuSans-51"/>
       </defs>
       <use xlink:href="#DejaVuSans-49"/>
       <use x="63.623047" xlink:href="#DejaVuSans-51"/>
       <use x="127.246094" xlink:href="#DejaVuSans-48"/>
      </g>
     </g>
    </g>
   </g>
   <g id="line2d_12">
    <path clip-path="url(#pa30227bbcf)" d="M 384.184264 104.03147 
L 381.884795 109.171 
L 379.573573 114.204762 
L 377.246682 119.140591 
L 374.908039 123.970653 
L 372.557644 128.702781 
L 370.187663 133.329142 
L 367.809847 137.853652 
L 365.412444 142.276311 
L 363.007207 146.597121 
L 360.5863 150.816079 
L 358.149724 154.933188 
L 355.701396 158.948446 
L 353.237399 162.857936 
L 350.761649 166.669493 
L 348.270231 170.375282 
L 345.76706 173.983138 
L 343.24822 177.485227 
L 340.717629 180.885464 
L 338.171367 184.183852 
L 335.613354 187.380389 
L 333.039672 190.475076 
L 330.454238 193.467912 
L 327.853134 196.35498 
L 325.240278 199.144115 
L 322.615671 201.827483 
L 319.971477 204.412917 
L 317.319448 206.892584 
L 314.647832 209.2704 
L 311.968382 211.546366 
L 309.269345 213.720481 
L 306.562474 215.792746 
L 303.836016 217.76316 
L 301.101723 219.627807 
L 298.351761 221.39452 
L 295.58613 223.055466 
L 292.808747 224.618478 
L 290.015694 226.075723 
L 287.210889 227.431118 
L 284.390416 228.684661 
L 281.55819 229.840272 
L 278.710295 230.886198 
L 275.850648 231.834191 
L 272.975331 232.680333 
L 270.088263 233.424624 
L 267.185525 234.063148 
L 264.271035 234.603739 
L 261.340877 235.038562 
L 258.398966 235.371535 
L 255.441385 235.602657 
L 252.472053 235.731929 
L 249.487052 235.75935 
L 246.490298 235.684921 
L 243.477876 235.508641 
L 240.453701 235.230511 
L 237.413857 234.846613 
L 234.362261 234.364782 
L 231.294995 233.777184 
L 228.215978 233.087734 
L 225.121292 232.296435 
L 222.014853 231.407202 
L 218.892745 230.408284 
L 215.758885 229.311433 
L 212.609356 228.112732 
L 209.448075 226.81218 
L 206.271125 225.405861 
L 203.082422 223.901608 
L 199.878051 222.291587 
L 196.65801 220.583634 
L 193.430134 218.769912 
L 190.182672 216.854341 
L 186.927375 214.836918 
L 183.652491 212.717646 
L 180.369773 210.496522 
L 177.067468 208.173549 
L 173.757329 205.744808 
L 170.427603 203.218133 
L 167.086125 200.585691 
L 163.732895 197.855315 
L 160.363996 195.019172 
L 156.983344 192.081179 
L 153.587024 189.041335 
L 150.178951 185.89964 
L 146.755209 182.656095 
L 143.319715 179.3107 
L 139.868552 175.859537 
L 136.405637 172.31044 
L 132.927053 168.655576 
L 129.436716 164.902779 
L 125.930711 161.044214 
L 122.412953 157.083799 
L 118.879526 153.021533 
L 115.33043 148.857417 
L 111.773499 144.59145 
L 108.196981 140.223633 
L 104.612629 135.753966 
L 101.008691 131.17853 
L 97.393 126.505162 
L 93.765557 121.726026 
L 90.122445 116.848956 
L 86.467581 111.866119 
" style="fill:none;stroke:#fea952;stroke-linecap:square;"/>
   </g>
   <g id="line2d_13">
    <path clip-path="url(#pa30227bbcf)" d="M 398.487273 110.430758 
L 396.124828 115.709225 
L 393.746856 120.886452 
L 391.34981 125.969113 
L 388.941625 130.940977 
L 386.503533 135.846949 
L 384.058137 140.618646 
L 381.585393 145.320998 
L 379.103431 149.897586 
L 376.597968 154.395719 
L 374.071048 158.796587 
L 371.528112 163.090741 
L 368.957499 167.303244 
L 366.377999 171.393249 
L 363.765359 175.411945 
L 361.144342 179.307483 
L 358.487821 183.13241 
L 355.81833 186.8404 
L 353.121044 190.460548 
L 350.405572 193.974214 
L 347.660837 197.399625 
L 344.897162 200.718457 
L 342.095636 203.956228 
L 339.288477 207.067583 
L 336.442115 210.100656 
L 333.570354 213.031136 
L 330.673161 215.858479 
L 327.737018 218.597333 
L 324.791974 221.212901 
L 321.797898 223.749134 
L 318.794345 226.162399 
L 315.740697 228.492633 
L 312.66426 230.708779 
L 309.571219 232.810924 
L 306.419144 234.827474 
L 303.270923 236.7109 
L 300.056832 238.510641 
L 296.833417 240.184075 
L 293.574795 241.749904 
L 290.310041 243.192761 
L 286.960146 244.54897 
L 283.640906 245.75953 
L 280.274214 246.866123 
L 276.887009 247.853523 
L 273.454602 248.728045 
L 270.043185 249.469664 
L 266.571105 250.103307 
L 263.103114 250.608452 
L 259.619732 250.993208 
L 256.122913 251.257128 
L 252.615991 251.400567 
L 249.098 251.423818 
L 245.574935 251.32746 
L 242.042843 251.11209 
L 238.49044 250.776332 
L 234.970033 250.324167 
L 231.41409 249.754234 
L 227.871134 249.067838 
L 224.334283 248.268623 
L 220.809078 247.360689 
L 217.23991 246.331238 
L 213.716386 245.197883 
L 210.185233 243.955932 
L 206.64779 242.603648 
L 203.105487 241.140422 
L 199.585772 239.577416 
L 196.047526 237.902935 
L 192.535748 236.134186 
L 188.982257 234.244152 
L 185.469126 232.266182 
L 181.928444 230.173299 
L 178.414356 227.991972 
L 174.871586 225.695421 
L 171.354455 223.312566 
L 167.797974 220.806973 
L 164.28541 218.227182 
L 160.730849 215.526662 
L 157.192361 212.736426 
L 153.641456 209.842383 
L 150.085528 206.846262 
L 146.533168 203.756827 
L 142.966552 200.562295 
L 139.402475 197.27481 
L 135.823526 193.882191 
L 132.239848 190.390568 
L 128.653355 186.802401 
L 125.055432 183.113208 
L 121.453228 179.326953 
L 117.839711 175.44016 
L 114.215495 171.450014 
L 110.590286 167.367353 
L 106.954045 163.185678 
L 103.295659 158.891919 
L 99.650007 154.518579 
L 95.97282 150.026532 
L 92.303283 145.449683 
L 88.615523 140.766874 
L 84.911784 135.978609 
L 81.211991 131.103388 
L 77.487591 126.116502 
L 73.832727 121.133665 
" style="fill:none;stroke:#ffffff;stroke-linecap:square;"/>
   </g>
   <g id="line2d_14">
    <path clip-path="url(#pa30227bbcf)" d="M 369.881256 97.632182 
L 367.644762 102.632774 
L 365.40029 107.523072 
L 363.143554 112.312069 
L 360.874454 117.000329 
L 358.611756 121.558613 
L 356.317189 126.039637 
L 354.034301 130.386305 
L 351.721458 134.655037 
L 349.416445 138.798522 
L 347.101552 142.835572 
L 344.771336 146.775634 
L 342.445293 150.593647 
L 340.096798 154.322623 
L 337.757939 157.927041 
L 335.39612 161.443081 
L 333.046299 164.833866 
L 330.678111 168.130053 
L 328.314213 171.310381 
L 325.937163 174.39349 
L 323.565871 177.361153 
L 321.182182 180.231694 
L 318.812839 182.979596 
L 316.417791 185.642377 
L 314.038442 188.187574 
L 311.660987 190.623829 
L 309.269792 192.967355 
L 306.901877 195.187834 
L 304.50369 197.327899 
L 302.138866 199.343597 
L 299.744346 201.278563 
L 297.38425 203.092858 
L 295.007772 204.817541 
L 292.632228 206.444689 
L 290.284378 207.961566 
L 287.901337 209.400031 
L 285.560661 210.726315 
L 283.197971 211.967371 
L 280.846984 213.112331 
L 278.47079 214.176561 
L 276.156233 215.131574 
L 273.779683 216.012866 
L 271.427082 216.802258 
L 269.063654 217.507142 
L 266.721923 218.121203 
L 264.327865 218.656633 
L 261.970966 219.104171 
L 259.578639 219.468673 
L 257.178199 219.749862 
L 254.759858 219.948186 
L 252.328116 220.063291 
L 249.876104 220.094881 
L 247.405661 220.042381 
L 244.912908 219.905192 
L 242.416962 219.68469 
L 239.857681 219.36906 
L 237.310432 218.975331 
L 234.718857 218.486529 
L 232.097674 217.906846 
L 229.433506 217.232181 
L 226.789796 216.483166 
L 224.069105 215.618685 
L 221.332538 214.666935 
L 218.570923 213.621816 
L 215.790663 212.483938 
L 212.956478 211.234305 
L 210.117319 209.900281 
L 207.220353 208.448989 
L 204.333762 206.923115 
L 201.391142 205.273643 
L 198.4369 203.535382 
L 195.440394 201.681865 
L 192.433396 199.739871 
L 189.385092 197.680479 
L 186.336963 195.540125 
L 183.229249 193.262433 
L 180.124357 190.909604 
L 176.979889 188.434956 
L 173.824334 185.868247 
L 170.642463 183.192083 
L 167.433521 180.405531 
L 164.207495 177.520374 
L 160.955428 174.52447 
L 157.686893 171.429999 
L 154.399583 168.230832 
L 151.08375 164.916673 
L 147.755842 161.507673 
L 144.400878 157.9842 
L 141.033722 154.365399 
L 137.645926 150.638415 
L 134.23562 146.800245 
L 130.805007 142.857389 
L 127.365201 138.822916 
L 123.896991 134.664322 
L 120.421143 130.420735 
L 116.921975 126.058248 
L 113.401858 121.590187 
L 109.874215 117.031715 
L 106.319123 112.348663 
L 102.757299 107.58141 
L 99.102435 102.598573 
" style="fill:none;stroke:#ffffff;stroke-linecap:square;"/>
   </g>
   <g id="patch_3">
    <path d="M 57.6 307.584 
L 57.6 41.472 
" style="fill:none;stroke:#000000;stroke-linecap:square;stroke-linejoin:miter;stroke-width:0.8;"/>
   </g>
   <g id="patch_4">
    <path d="M 414.72 307.584 
L 414.72 41.472 
" style="fill:none;stroke:#000000;stroke-linecap:square;stroke-linejoin:miter;stroke-width:0.8;"/>
   </g>
   <g id="patch_5">
    <path d="M 57.6 307.584 
L 414.72 307.584 
" style="fill:none;stroke:#000000;stroke-linecap:square;stroke-linejoin:miter;stroke-width:0.8;"/>
   </g>
   <g id="patch_6">
    <path d="M 57.6 41.472 
L 414.72 41.472 
" style="fill:none;stroke:#000000;stroke-linecap:square;stroke-linejoin:miter;stroke-width:0.8;"/>
   </g>
  </g>
 </g>
 <defs>
  <clipPath id="pa30227bbcf">
   <rect height="266.112" width="357.12" x="57.6" y="41.472"/>
  </clipPath>
 </defs>
</svg>
