<?xml version="1.0" encoding="utf-8" standalone="no"?>
<!DOCTYPE svg PUBLIC "-//W3C//DTD SVG 1.1//EN"
  "http://www.w3.org/Graphics/SVG/1.1/DTD/svg11.dtd">
<!-- Created with matplotlib (https://matplotlib.org/) -->
<svg height="345.6pt" version="1.1" viewBox="0 0 460.8 345.6" width="460.8pt" xmlns="http://www.w3.org/2000/svg" xmlns:xlink="http://www.w3.org/1999/xlink">
 <metadata>
  <rdf:RDF xmlns:cc="http://creativecommons.org/ns#" xmlns:dc="http://purl.org/dc/elements/1.1/" xmlns:rdf="http://www.w3.org/1999/02/22-rdf-syntax-ns#">
   <cc:Work>
    <dc:type rdf:resource="http://purl.org/dc/dcmitype/StillImage"/>
    <dc:date>2021-01-10T15:04:23.748610</dc:date>
    <dc:format>image/svg+xml</dc:format>
    <dc:creator>
     <cc:Agent>
      <dc:title>Matplotlib v3.3.3, https://matplotlib.org/</dc:title>
     </cc:Agent>
    </dc:creator>
   </cc:Work>
  </rdf:RDF>
 </metadata>
 <defs>
  <style type="text/css">*{stroke-linecap:butt;stroke-linejoin:round;}</style>
 </defs>
 <g id="figure_1">
  <g id="patch_1">
   <path d="M 0 345.6 
L 460.8 345.6 
L 460.8 0 
L 0 0 
z
" style="fill:#ffffff;"/>
  </g>
  <g id="axes_1">
   <g id="patch_2">
    <path d="M 57.6 307.584 
L 414.72 307.584 
L 414.72 41.472 
L 57.6 41.472 
z
" style="fill:#7d9051;"/>
   </g>
   <g id="matplotlib.axis_1">
    <g id="xtick_1">
     <g id="line2d_1">
      <defs>
       <path d="M 0 0 
L 0 3.5 
" id="m15ec5525d2" style="stroke:#000000;stroke-width:0.8;"/>
      </defs>
      <g>
       <use style="stroke:#000000;stroke-width:0.8;" x="101.311778" xlink:href="#m15ec5525d2" y="307.584"/>
      </g>
     </g>
     <g id="text_1">
      <!-- 60 -->
      <g transform="translate(94.949278 322.182437)scale(0.1 -0.1)">
       <defs>
        <path d="M 33.015625 40.375 
Q 26.375 40.375 22.484375 35.828125 
Q 18.609375 31.296875 18.609375 23.390625 
Q 18.609375 15.53125 22.484375 10.953125 
Q 26.375 6.390625 33.015625 6.390625 
Q 39.65625 6.390625 43.53125 10.953125 
Q 47.40625 15.53125 47.40625 23.390625 
Q 47.40625 31.296875 43.53125 35.828125 
Q 39.65625 40.375 33.015625 40.375 
z
M 52.59375 71.296875 
L 52.59375 62.3125 
Q 48.875 64.0625 45.09375 64.984375 
Q 41.3125 65.921875 37.59375 65.921875 
Q 27.828125 65.921875 22.671875 59.328125 
Q 17.53125 52.734375 16.796875 39.40625 
Q 19.671875 43.65625 24.015625 45.921875 
Q 28.375 48.1875 33.59375 48.1875 
Q 44.578125 48.1875 50.953125 41.515625 
Q 57.328125 34.859375 57.328125 23.390625 
Q 57.328125 12.15625 50.6875 5.359375 
Q 44.046875 -1.421875 33.015625 -1.421875 
Q 20.359375 -1.421875 13.671875 8.265625 
Q 6.984375 17.96875 6.984375 36.375 
Q 6.984375 53.65625 15.1875 63.9375 
Q 23.390625 74.21875 37.203125 74.21875 
Q 40.921875 74.21875 44.703125 73.484375 
Q 48.484375 72.75 52.59375 71.296875 
z
" id="DejaVuSans-54"/>
        <path d="M 31.78125 66.40625 
Q 24.171875 66.40625 20.328125 58.90625 
Q 16.5 51.421875 16.5 36.375 
Q 16.5 21.390625 20.328125 13.890625 
Q 24.171875 6.390625 31.78125 6.390625 
Q 39.453125 6.390625 43.28125 13.890625 
Q 47.125 21.390625 47.125 36.375 
Q 47.125 51.421875 43.28125 58.90625 
Q 39.453125 66.40625 31.78125 66.40625 
z
M 31.78125 74.21875 
Q 44.046875 74.21875 50.515625 64.515625 
Q 56.984375 54.828125 56.984375 36.375 
Q 56.984375 17.96875 50.515625 8.265625 
Q 44.046875 -1.421875 31.78125 -1.421875 
Q 19.53125 -1.421875 13.0625 8.265625 
Q 6.59375 17.96875 6.59375 36.375 
Q 6.59375 54.828125 13.0625 64.515625 
Q 19.53125 74.21875 31.78125 74.21875 
z
" id="DejaVuSans-48"/>
       </defs>
       <use xlink:href="#DejaVuSans-54"/>
       <use x="63.623047" xlink:href="#DejaVuSans-48"/>
      </g>
     </g>
    </g>
    <g id="xtick_2">
     <g id="line2d_2">
      <g>
       <use style="stroke:#000000;stroke-width:0.8;" x="160.003235" xlink:href="#m15ec5525d2" y="307.584"/>
      </g>
     </g>
     <g id="text_2">
      <!-- 80 -->
      <g transform="translate(153.640735 322.182437)scale(0.1 -0.1)">
       <defs>
        <path d="M 31.78125 34.625 
Q 24.75 34.625 20.71875 30.859375 
Q 16.703125 27.09375 16.703125 20.515625 
Q 16.703125 13.921875 20.71875 10.15625 
Q 24.75 6.390625 31.78125 6.390625 
Q 38.8125 6.390625 42.859375 10.171875 
Q 46.921875 13.96875 46.921875 20.515625 
Q 46.921875 27.09375 42.890625 30.859375 
Q 38.875 34.625 31.78125 34.625 
z
M 21.921875 38.8125 
Q 15.578125 40.375 12.03125 44.71875 
Q 8.5 49.078125 8.5 55.328125 
Q 8.5 64.0625 14.71875 69.140625 
Q 20.953125 74.21875 31.78125 74.21875 
Q 42.671875 74.21875 48.875 69.140625 
Q 55.078125 64.0625 55.078125 55.328125 
Q 55.078125 49.078125 51.53125 44.71875 
Q 48 40.375 41.703125 38.8125 
Q 48.828125 37.15625 52.796875 32.3125 
Q 56.78125 27.484375 56.78125 20.515625 
Q 56.78125 9.90625 50.3125 4.234375 
Q 43.84375 -1.421875 31.78125 -1.421875 
Q 19.734375 -1.421875 13.25 4.234375 
Q 6.78125 9.90625 6.78125 20.515625 
Q 6.78125 27.484375 10.78125 32.3125 
Q 14.796875 37.15625 21.921875 38.8125 
z
M 18.3125 54.390625 
Q 18.3125 48.734375 21.84375 45.5625 
Q 25.390625 42.390625 31.78125 42.390625 
Q 38.140625 42.390625 41.71875 45.5625 
Q 45.3125 48.734375 45.3125 54.390625 
Q 45.3125 60.0625 41.71875 63.234375 
Q 38.140625 66.40625 31.78125 66.40625 
Q 25.390625 66.40625 21.84375 63.234375 
Q 18.3125 60.0625 18.3125 54.390625 
z
" id="DejaVuSans-56"/>
       </defs>
       <use xlink:href="#DejaVuSans-56"/>
       <use x="63.623047" xlink:href="#DejaVuSans-48"/>
      </g>
     </g>
    </g>
    <g id="xtick_3">
     <g id="line2d_3">
      <g>
       <use style="stroke:#000000;stroke-width:0.8;" x="218.694692" xlink:href="#m15ec5525d2" y="307.584"/>
      </g>
     </g>
     <g id="text_3">
      <!-- 100 -->
      <g transform="translate(209.150942 322.182437)scale(0.1 -0.1)">
       <defs>
        <path d="M 12.40625 8.296875 
L 28.515625 8.296875 
L 28.515625 63.921875 
L 10.984375 60.40625 
L 10.984375 69.390625 
L 28.421875 72.90625 
L 38.28125 72.90625 
L 38.28125 8.296875 
L 54.390625 8.296875 
L 54.390625 0 
L 12.40625 0 
z
" id="DejaVuSans-49"/>
       </defs>
       <use xlink:href="#DejaVuSans-49"/>
       <use x="63.623047" xlink:href="#DejaVuSans-48"/>
       <use x="127.246094" xlink:href="#DejaVuSans-48"/>
      </g>
     </g>
    </g>
    <g id="xtick_4">
     <g id="line2d_4">
      <g>
       <use style="stroke:#000000;stroke-width:0.8;" x="277.386149" xlink:href="#m15ec5525d2" y="307.584"/>
      </g>
     </g>
     <g id="text_4">
      <!-- 120 -->
      <g transform="translate(267.842399 322.182437)scale(0.1 -0.1)">
       <defs>
        <path d="M 19.1875 8.296875 
L 53.609375 8.296875 
L 53.609375 0 
L 7.328125 0 
L 7.328125 8.296875 
Q 12.9375 14.109375 22.625 23.890625 
Q 32.328125 33.6875 34.8125 36.53125 
Q 39.546875 41.84375 41.421875 45.53125 
Q 43.3125 49.21875 43.3125 52.78125 
Q 43.3125 58.59375 39.234375 62.25 
Q 35.15625 65.921875 28.609375 65.921875 
Q 23.96875 65.921875 18.8125 64.3125 
Q 13.671875 62.703125 7.8125 59.421875 
L 7.8125 69.390625 
Q 13.765625 71.78125 18.9375 73 
Q 24.125 74.21875 28.421875 74.21875 
Q 39.75 74.21875 46.484375 68.546875 
Q 53.21875 62.890625 53.21875 53.421875 
Q 53.21875 48.921875 51.53125 44.890625 
Q 49.859375 40.875 45.40625 35.40625 
Q 44.1875 33.984375 37.640625 27.21875 
Q 31.109375 20.453125 19.1875 8.296875 
z
" id="DejaVuSans-50"/>
       </defs>
       <use xlink:href="#DejaVuSans-49"/>
       <use x="63.623047" xlink:href="#DejaVuSans-50"/>
       <use x="127.246094" xlink:href="#DejaVuSans-48"/>
      </g>
     </g>
    </g>
    <g id="xtick_5">
     <g id="line2d_5">
      <g>
       <use style="stroke:#000000;stroke-width:0.8;" x="336.077606" xlink:href="#m15ec5525d2" y="307.584"/>
      </g>
     </g>
     <g id="text_5">
      <!-- 140 -->
      <g transform="translate(326.533856 322.182437)scale(0.1 -0.1)">
       <defs>
        <path d="M 37.796875 64.3125 
L 12.890625 25.390625 
L 37.796875 25.390625 
z
M 35.203125 72.90625 
L 47.609375 72.90625 
L 47.609375 25.390625 
L 58.015625 25.390625 
L 58.015625 17.1875 
L 47.609375 17.1875 
L 47.609375 0 
L 37.796875 0 
L 37.796875 17.1875 
L 4.890625 17.1875 
L 4.890625 26.703125 
z
" id="DejaVuSans-52"/>
       </defs>
       <use xlink:href="#DejaVuSans-49"/>
       <use x="63.623047" xlink:href="#DejaVuSans-52"/>
       <use x="127.246094" xlink:href="#DejaVuSans-48"/>
      </g>
     </g>
    </g>
    <g id="xtick_6">
     <g id="line2d_6">
      <g>
       <use style="stroke:#000000;stroke-width:0.8;" x="394.769063" xlink:href="#m15ec5525d2" y="307.584"/>
      </g>
     </g>
     <g id="text_6">
      <!-- 160 -->
      <g transform="translate(385.225313 322.182437)scale(0.1 -0.1)">
       <use xlink:href="#DejaVuSans-49"/>
       <use x="63.623047" xlink:href="#DejaVuSans-54"/>
       <use x="127.246094" xlink:href="#DejaVuSans-48"/>
      </g>
     </g>
    </g>
   </g>
   <g id="matplotlib.axis_2">
    <g id="ytick_1">
     <g id="line2d_7">
      <defs>
       <path d="M 0 0 
L -3.5 0 
" id="m772d6c2c83" style="stroke:#000000;stroke-width:0.8;"/>
      </defs>
      <g>
       <use style="stroke:#000000;stroke-width:0.8;" x="57.6" xlink:href="#m772d6c2c83" y="277.622093"/>
      </g>
     </g>
     <g id="text_7">
      <!-- 100 -->
      <g transform="translate(31.5125 281.421312)scale(0.1 -0.1)">
       <use xlink:href="#DejaVuSans-49"/>
       <use x="63.623047" xlink:href="#DejaVuSans-48"/>
       <use x="127.246094" xlink:href="#DejaVuSans-48"/>
      </g>
     </g>
    </g>
    <g id="ytick_2">
     <g id="line2d_8">
      <g>
       <use style="stroke:#000000;stroke-width:0.8;" x="57.6" xlink:href="#m772d6c2c83" y="218.930636"/>
      </g>
     </g>
     <g id="text_8">
      <!-- 120 -->
      <g transform="translate(31.5125 222.729855)scale(0.1 -0.1)">
       <use xlink:href="#DejaVuSans-49"/>
       <use x="63.623047" xlink:href="#DejaVuSans-50"/>
       <use x="127.246094" xlink:href="#DejaVuSans-48"/>
      </g>
     </g>
    </g>
    <g id="ytick_3">
     <g id="line2d_9">
      <g>
       <use style="stroke:#000000;stroke-width:0.8;" x="57.6" xlink:href="#m772d6c2c83" y="160.239179"/>
      </g>
     </g>
     <g id="text_9">
      <!-- 140 -->
      <g transform="translate(31.5125 164.038398)scale(0.1 -0.1)">
       <use xlink:href="#DejaVuSans-49"/>
       <use x="63.623047" xlink:href="#DejaVuSans-52"/>
       <use x="127.246094" xlink:href="#DejaVuSans-48"/>
      </g>
     </g>
    </g>
    <g id="ytick_4">
     <g id="line2d_10">
      <g>
       <use style="stroke:#000000;stroke-width:0.8;" x="57.6" xlink:href="#m772d6c2c83" y="101.547722"/>
      </g>
     </g>
     <g id="text_10">
      <!-- 160 -->
      <g transform="translate(31.5125 105.346941)scale(0.1 -0.1)">
       <use xlink:href="#DejaVuSans-49"/>
       <use x="63.623047" xlink:href="#DejaVuSans-54"/>
       <use x="127.246094" xlink:href="#DejaVuSans-48"/>
      </g>
     </g>
    </g>
    <g id="ytick_5">
     <g id="line2d_11">
      <g>
       <use style="stroke:#000000;stroke-width:0.8;" x="57.6" xlink:href="#m772d6c2c83" y="42.856265"/>
      </g>
     </g>
     <g id="text_11">
      <!-- 180 -->
      <g transform="translate(31.5125 46.655484)scale(0.1 -0.1)">
       <use xlink:href="#DejaVuSans-49"/>
       <use x="63.623047" xlink:href="#DejaVuSans-56"/>
       <use x="127.246094" xlink:href="#DejaVuSans-48"/>
      </g>
     </g>
    </g>
   </g>
   <g id="line2d_12">
    <path clip-path="url(#p89af91de6b)" d="M 118.919215 292.294957 
L 115.160027 278.757773 
L 111.711904 265.634363 
L 108.574846 252.930597 
L 105.751787 240.640606 
L 103.236858 228.767324 
L 101.032994 217.310752 
L 99.140194 206.270889 
L 97.558459 195.647735 
L 96.287789 185.438356 
L 95.331119 175.645686 
L 94.682578 166.269726 
L 94.345102 157.310475 
L 94.318691 148.767934 
L 94.606279 140.642102 
L 94.967232 135.453777 
L 95.469043 130.453265 
L 96.10878 125.634696 
L 96.886442 121.00394 
L 97.804963 116.558062 
L 98.858475 112.294128 
L 100.049912 108.218006 
L 101.382208 104.326763 
L 102.849494 100.617462 
L 104.45764 97.095975 
L 106.203711 93.759366 
L 108.087707 90.607634 
L 110.109627 87.640781 
L 112.272408 84.858806 
L 114.570178 82.261709 
L 117.005874 79.84949 
L 119.582429 77.62215 
L 122.296908 75.579687 
L 125.149313 73.722102 
L 128.139643 72.05233 
L 131.267898 70.564502 
L 134.534077 69.261552 
L 137.938182 68.143479 
L 141.480211 67.21322 
L 145.1631 66.464904 
L 148.983914 65.901466 
L 152.939718 65.52584 
L 157.036382 65.332158 
L 161.270971 65.326289 
L 165.643484 65.502364 
L 170.156857 65.866251 
L 174.805221 66.415016 
L 179.591509 67.145724 
L 184.518657 68.064246 
L 189.583729 69.167645 
L 194.786727 70.452988 
L 202.847999 72.733151 
L 211.22327 75.427089 
L 219.906671 78.537736 
L 228.904071 82.065093 
L 238.209602 86.006224 
L 247.829131 90.366999 
L 257.759726 95.141549 
L 267.998451 100.332809 
L 278.551174 105.940778 
L 289.414963 111.965456 
L 300.586882 118.406843 
L 312.0728 125.262005 
L 323.869783 132.533877 
L 335.974896 140.222458 
L 348.394008 148.327748 
L 365.435073 159.78432 
L 378.579025 168.860954 
L 383.030772 171.97747 
L 383.030772 171.97747 
" style="fill:none;stroke:#fea952;stroke-linecap:square;"/>
   </g>
   <g id="line2d_13">
    <path clip-path="url(#p89af91de6b)" d="M 107.623554 295.488 
L 103.820709 281.792132 
L 100.330079 268.505173 
L 97.148167 255.617323 
L 94.283992 243.146033 
L 91.724169 231.057624 
L 89.477833 219.376123 
L 87.542485 208.082142 
L 85.922103 197.191333 
L 84.615362 186.680104 
L 83.629867 176.577453 
L 82.958013 166.837227 
L 82.608169 157.489029 
L 82.583334 148.505482 
L 82.750353 142.72209 
L 83.066507 137.129285 
L 83.531346 131.671716 
L 84.148713 126.376472 
L 84.922242 121.253366 
L 85.856561 116.27458 
L 86.949446 111.457481 
L 88.206473 106.817619 
L 89.639054 102.314801 
L 91.238345 97.993293 
L 93.021434 93.824259 
L 94.986411 89.827369 
L 97.143421 85.988019 
L 99.478845 82.352623 
L 102.020323 78.879099 
L 104.741854 75.614513 
L 107.653445 72.552605 
L 110.747947 69.707828 
L 114.030929 67.073758 
L 117.462443 64.688479 
L 121.073434 62.52291 
L 124.828823 60.597325 
L 128.711241 58.917176 
L 132.719461 57.475862 
L 136.868117 56.263044 
L 141.119186 55.284167 
L 145.497564 54.525316 
L 149.980787 53.991488 
L 154.553862 53.674626 
L 159.250554 53.568 
L 164.032809 53.667556 
L 168.938497 53.97013 
L 173.951706 54.472128 
L 179.045571 55.168908 
L 184.275411 56.059708 
L 189.616241 57.141819 
L 195.058049 58.410354 
L 200.636613 59.871556 
L 209.195588 62.408989 
L 218.044447 65.366928 
L 227.148822 68.736663 
L 236.551411 72.525212 
L 246.224468 76.721982 
L 256.195523 81.333957 
L 266.448061 86.357729 
L 276.98908 91.789021 
L 287.827949 97.637405 
L 298.9629 103.895203 
L 310.397854 110.566816 
L 322.13481 117.649938 
L 334.161344 125.142072 
L 346.496438 133.048624 
L 359.132087 141.370019 
L 372.067948 150.09967 
L 385.310918 159.244869 
L 389.762665 162.361385 
L 389.762665 162.361385 
" style="fill:none;stroke:#ffffff;stroke-linecap:square;"/>
   </g>
   <g id="line2d_14">
    <path clip-path="url(#p89af91de6b)" d="M 130.214876 289.101915 
L 126.499346 275.723413 
L 123.093729 262.763553 
L 120.001525 250.243871 
L 117.219582 238.135179 
L 114.749547 226.477025 
L 112.588154 215.245381 
L 110.737903 204.459636 
L 109.194816 194.104137 
L 107.960216 184.196609 
L 107.03237 174.71392 
L 106.407143 165.702226 
L 106.082035 157.131922 
L 106.054048 149.030386 
L 106.321506 141.377587 
L 106.872648 134.188373 
L 107.700824 127.48186 
L 108.802564 121.237534 
L 109.675844 117.344821 
L 110.666699 113.650497 
L 111.757851 110.183014 
L 112.958142 106.903979 
L 114.250486 103.848095 
L 115.64266 100.983953 
L 117.112782 98.332028 
L 118.686209 95.851774 
L 120.329432 93.573535 
L 122.062582 91.461984 
L 123.887392 89.511641 
L 125.80514 87.719793 
L 127.810258 86.081126 
L 129.948564 84.569292 
L 132.177373 83.207504 
L 134.543502 81.969619 
L 137.052584 80.861924 
L 139.717583 79.88515 
L 142.517995 79.049637 
L 145.491845 78.349938 
L 148.614235 77.7941 
L 151.90763 77.388864 
L 155.387023 77.13642 
L 159.024518 77.043495 
L 162.846431 77.114143 
L 166.826629 77.351532 
L 170.975157 77.759251 
L 177.527068 78.701051 
L 184.45093 80.043119 
L 191.73958 81.788877 
L 199.384185 83.948742 
L 207.385115 86.520152 
L 215.725636 89.506165 
L 224.419582 92.912989 
L 233.445913 96.734447 
L 242.824588 100.985004 
L 252.521157 105.646067 
L 262.557041 110.7337 
L 272.914336 116.237065 
L 283.605127 122.165127 
L 294.621329 128.516228 
L 305.960417 135.283295 
L 317.616432 142.467813 
L 329.599223 150.078333 
L 341.896942 158.104026 
L 358.802198 169.468971 
L 371.847131 178.477039 
L 376.298878 181.593556 
L 376.298878 181.593556 
" style="fill:none;stroke:#ffffff;stroke-linecap:square;"/>
   </g>
   <g id="patch_3">
    <path d="M 57.6 307.584 
L 57.6 41.472 
" style="fill:none;stroke:#000000;stroke-linecap:square;stroke-linejoin:miter;stroke-width:0.8;"/>
   </g>
   <g id="patch_4">
    <path d="M 414.72 307.584 
L 414.72 41.472 
" style="fill:none;stroke:#000000;stroke-linecap:square;stroke-linejoin:miter;stroke-width:0.8;"/>
   </g>
   <g id="patch_5">
    <path d="M 57.6 307.584 
L 414.72 307.584 
" style="fill:none;stroke:#000000;stroke-linecap:square;stroke-linejoin:miter;stroke-width:0.8;"/>
   </g>
   <g id="patch_6">
    <path d="M 57.6 41.472 
L 414.72 41.472 
" style="fill:none;stroke:#000000;stroke-linecap:square;stroke-linejoin:miter;stroke-width:0.8;"/>
   </g>
  </g>
 </g>
 <defs>
  <clipPath id="p89af91de6b">
   <rect height="266.112" width="357.12" x="57.6" y="41.472"/>
  </clipPath>
 </defs>
</svg>
