<?xml version="1.0" encoding="utf-8" standalone="no"?>
<!DOCTYPE svg PUBLIC "-//W3C//DTD SVG 1.1//EN"
  "http://www.w3.org/Graphics/SVG/1.1/DTD/svg11.dtd">
<!-- Created with matplotlib (https://matplotlib.org/) -->
<svg height="345.6pt" version="1.1" viewBox="0 0 460.8 345.6" width="460.8pt" xmlns="http://www.w3.org/2000/svg" xmlns:xlink="http://www.w3.org/1999/xlink">
 <metadata>
  <rdf:RDF xmlns:cc="http://creativecommons.org/ns#" xmlns:dc="http://purl.org/dc/elements/1.1/" xmlns:rdf="http://www.w3.org/1999/02/22-rdf-syntax-ns#">
   <cc:Work>
    <dc:type rdf:resource="http://purl.org/dc/dcmitype/StillImage"/>
    <dc:date>2021-01-10T15:05:19.908718</dc:date>
    <dc:format>image/svg+xml</dc:format>
    <dc:creator>
     <cc:Agent>
      <dc:title>Matplotlib v3.3.3, https://matplotlib.org/</dc:title>
     </cc:Agent>
    </dc:creator>
   </cc:Work>
  </rdf:RDF>
 </metadata>
 <defs>
  <style type="text/css">*{stroke-linecap:butt;stroke-linejoin:round;}</style>
 </defs>
 <g id="figure_1">
  <g id="patch_1">
   <path d="M 0 345.6 
L 460.8 345.6 
L 460.8 0 
L 0 0 
z
" style="fill:#ffffff;"/>
  </g>
  <g id="axes_1">
   <g id="patch_2">
    <path d="M 57.6 307.584 
L 414.72 307.584 
L 414.72 41.472 
L 57.6 41.472 
z
" style="fill:#7d9051;"/>
   </g>
   <g id="matplotlib.axis_1">
    <g id="xtick_1">
     <g id="line2d_1">
      <defs>
       <path d="M 0 0 
L 0 3.5 
" id="mc4033ddc75" style="stroke:#000000;stroke-width:0.8;"/>
      </defs>
      <g>
       <use style="stroke:#000000;stroke-width:0.8;" x="61.151736" xlink:href="#mc4033ddc75" y="307.584"/>
      </g>
     </g>
     <g id="text_1">
      <!-- 20 -->
      <g transform="translate(54.789236 322.182437)scale(0.1 -0.1)">
       <defs>
        <path d="M 19.1875 8.296875 
L 53.609375 8.296875 
L 53.609375 0 
L 7.328125 0 
L 7.328125 8.296875 
Q 12.9375 14.109375 22.625 23.890625 
Q 32.328125 33.6875 34.8125 36.53125 
Q 39.546875 41.84375 41.421875 45.53125 
Q 43.3125 49.21875 43.3125 52.78125 
Q 43.3125 58.59375 39.234375 62.25 
Q 35.15625 65.921875 28.609375 65.921875 
Q 23.96875 65.921875 18.8125 64.3125 
Q 13.671875 62.703125 7.8125 59.421875 
L 7.8125 69.390625 
Q 13.765625 71.78125 18.9375 73 
Q 24.125 74.21875 28.421875 74.21875 
Q 39.75 74.21875 46.484375 68.546875 
Q 53.21875 62.890625 53.21875 53.421875 
Q 53.21875 48.921875 51.53125 44.890625 
Q 49.859375 40.875 45.40625 35.40625 
Q 44.1875 33.984375 37.640625 27.21875 
Q 31.109375 20.453125 19.1875 8.296875 
z
" id="DejaVuSans-50"/>
        <path d="M 31.78125 66.40625 
Q 24.171875 66.40625 20.328125 58.90625 
Q 16.5 51.421875 16.5 36.375 
Q 16.5 21.390625 20.328125 13.890625 
Q 24.171875 6.390625 31.78125 6.390625 
Q 39.453125 6.390625 43.28125 13.890625 
Q 47.125 21.390625 47.125 36.375 
Q 47.125 51.421875 43.28125 58.90625 
Q 39.453125 66.40625 31.78125 66.40625 
z
M 31.78125 74.21875 
Q 44.046875 74.21875 50.515625 64.515625 
Q 56.984375 54.828125 56.984375 36.375 
Q 56.984375 17.96875 50.515625 8.265625 
Q 44.046875 -1.421875 31.78125 -1.421875 
Q 19.53125 -1.421875 13.0625 8.265625 
Q 6.59375 17.96875 6.59375 36.375 
Q 6.59375 54.828125 13.0625 64.515625 
Q 19.53125 74.21875 31.78125 74.21875 
z
" id="DejaVuSans-48"/>
       </defs>
       <use xlink:href="#DejaVuSans-50"/>
       <use x="63.623047" xlink:href="#DejaVuSans-48"/>
      </g>
     </g>
    </g>
    <g id="xtick_2">
     <g id="line2d_2">
      <g>
       <use style="stroke:#000000;stroke-width:0.8;" x="122.017977" xlink:href="#mc4033ddc75" y="307.584"/>
      </g>
     </g>
     <g id="text_2">
      <!-- 40 -->
      <g transform="translate(115.655477 322.182437)scale(0.1 -0.1)">
       <defs>
        <path d="M 37.796875 64.3125 
L 12.890625 25.390625 
L 37.796875 25.390625 
z
M 35.203125 72.90625 
L 47.609375 72.90625 
L 47.609375 25.390625 
L 58.015625 25.390625 
L 58.015625 17.1875 
L 47.609375 17.1875 
L 47.609375 0 
L 37.796875 0 
L 37.796875 17.1875 
L 4.890625 17.1875 
L 4.890625 26.703125 
z
" id="DejaVuSans-52"/>
       </defs>
       <use xlink:href="#DejaVuSans-52"/>
       <use x="63.623047" xlink:href="#DejaVuSans-48"/>
      </g>
     </g>
    </g>
    <g id="xtick_3">
     <g id="line2d_3">
      <g>
       <use style="stroke:#000000;stroke-width:0.8;" x="182.884217" xlink:href="#mc4033ddc75" y="307.584"/>
      </g>
     </g>
     <g id="text_3">
      <!-- 60 -->
      <g transform="translate(176.521717 322.182437)scale(0.1 -0.1)">
       <defs>
        <path d="M 33.015625 40.375 
Q 26.375 40.375 22.484375 35.828125 
Q 18.609375 31.296875 18.609375 23.390625 
Q 18.609375 15.53125 22.484375 10.953125 
Q 26.375 6.390625 33.015625 6.390625 
Q 39.65625 6.390625 43.53125 10.953125 
Q 47.40625 15.53125 47.40625 23.390625 
Q 47.40625 31.296875 43.53125 35.828125 
Q 39.65625 40.375 33.015625 40.375 
z
M 52.59375 71.296875 
L 52.59375 62.3125 
Q 48.875 64.0625 45.09375 64.984375 
Q 41.3125 65.921875 37.59375 65.921875 
Q 27.828125 65.921875 22.671875 59.328125 
Q 17.53125 52.734375 16.796875 39.40625 
Q 19.671875 43.65625 24.015625 45.921875 
Q 28.375 48.1875 33.59375 48.1875 
Q 44.578125 48.1875 50.953125 41.515625 
Q 57.328125 34.859375 57.328125 23.390625 
Q 57.328125 12.15625 50.6875 5.359375 
Q 44.046875 -1.421875 33.015625 -1.421875 
Q 20.359375 -1.421875 13.671875 8.265625 
Q 6.984375 17.96875 6.984375 36.375 
Q 6.984375 53.65625 15.1875 63.9375 
Q 23.390625 74.21875 37.203125 74.21875 
Q 40.921875 74.21875 44.703125 73.484375 
Q 48.484375 72.75 52.59375 71.296875 
z
" id="DejaVuSans-54"/>
       </defs>
       <use xlink:href="#DejaVuSans-54"/>
       <use x="63.623047" xlink:href="#DejaVuSans-48"/>
      </g>
     </g>
    </g>
    <g id="xtick_4">
     <g id="line2d_4">
      <g>
       <use style="stroke:#000000;stroke-width:0.8;" x="243.750457" xlink:href="#mc4033ddc75" y="307.584"/>
      </g>
     </g>
     <g id="text_4">
      <!-- 80 -->
      <g transform="translate(237.387957 322.182437)scale(0.1 -0.1)">
       <defs>
        <path d="M 31.78125 34.625 
Q 24.75 34.625 20.71875 30.859375 
Q 16.703125 27.09375 16.703125 20.515625 
Q 16.703125 13.921875 20.71875 10.15625 
Q 24.75 6.390625 31.78125 6.390625 
Q 38.8125 6.390625 42.859375 10.171875 
Q 46.921875 13.96875 46.921875 20.515625 
Q 46.921875 27.09375 42.890625 30.859375 
Q 38.875 34.625 31.78125 34.625 
z
M 21.921875 38.8125 
Q 15.578125 40.375 12.03125 44.71875 
Q 8.5 49.078125 8.5 55.328125 
Q 8.5 64.0625 14.71875 69.140625 
Q 20.953125 74.21875 31.78125 74.21875 
Q 42.671875 74.21875 48.875 69.140625 
Q 55.078125 64.0625 55.078125 55.328125 
Q 55.078125 49.078125 51.53125 44.71875 
Q 48 40.375 41.703125 38.8125 
Q 48.828125 37.15625 52.796875 32.3125 
Q 56.78125 27.484375 56.78125 20.515625 
Q 56.78125 9.90625 50.3125 4.234375 
Q 43.84375 -1.421875 31.78125 -1.421875 
Q 19.734375 -1.421875 13.25 4.234375 
Q 6.78125 9.90625 6.78125 20.515625 
Q 6.78125 27.484375 10.78125 32.3125 
Q 14.796875 37.15625 21.921875 38.8125 
z
M 18.3125 54.390625 
Q 18.3125 48.734375 21.84375 45.5625 
Q 25.390625 42.390625 31.78125 42.390625 
Q 38.140625 42.390625 41.71875 45.5625 
Q 45.3125 48.734375 45.3125 54.390625 
Q 45.3125 60.0625 41.71875 63.234375 
Q 38.140625 66.40625 31.78125 66.40625 
Q 25.390625 66.40625 21.84375 63.234375 
Q 18.3125 60.0625 18.3125 54.390625 
z
" id="DejaVuSans-56"/>
       </defs>
       <use xlink:href="#DejaVuSans-56"/>
       <use x="63.623047" xlink:href="#DejaVuSans-48"/>
      </g>
     </g>
    </g>
    <g id="xtick_5">
     <g id="line2d_5">
      <g>
       <use style="stroke:#000000;stroke-width:0.8;" x="304.616697" xlink:href="#mc4033ddc75" y="307.584"/>
      </g>
     </g>
     <g id="text_5">
      <!-- 100 -->
      <g transform="translate(295.072947 322.182437)scale(0.1 -0.1)">
       <defs>
        <path d="M 12.40625 8.296875 
L 28.515625 8.296875 
L 28.515625 63.921875 
L 10.984375 60.40625 
L 10.984375 69.390625 
L 28.421875 72.90625 
L 38.28125 72.90625 
L 38.28125 8.296875 
L 54.390625 8.296875 
L 54.390625 0 
L 12.40625 0 
z
" id="DejaVuSans-49"/>
       </defs>
       <use xlink:href="#DejaVuSans-49"/>
       <use x="63.623047" xlink:href="#DejaVuSans-48"/>
       <use x="127.246094" xlink:href="#DejaVuSans-48"/>
      </g>
     </g>
    </g>
    <g id="xtick_6">
     <g id="line2d_6">
      <g>
       <use style="stroke:#000000;stroke-width:0.8;" x="365.482937" xlink:href="#mc4033ddc75" y="307.584"/>
      </g>
     </g>
     <g id="text_6">
      <!-- 120 -->
      <g transform="translate(355.939187 322.182437)scale(0.1 -0.1)">
       <use xlink:href="#DejaVuSans-49"/>
       <use x="63.623047" xlink:href="#DejaVuSans-50"/>
       <use x="127.246094" xlink:href="#DejaVuSans-48"/>
      </g>
     </g>
    </g>
   </g>
   <g id="matplotlib.axis_2">
    <g id="ytick_1">
     <g id="line2d_7">
      <defs>
       <path d="M 0 0 
L -3.5 0 
" id="m3fca3894f1" style="stroke:#000000;stroke-width:0.8;"/>
      </defs>
      <g>
       <use style="stroke:#000000;stroke-width:0.8;" x="57.6" xlink:href="#m3fca3894f1" y="295.552876"/>
      </g>
     </g>
     <g id="text_7">
      <!-- 70 -->
      <g transform="translate(37.875 299.352095)scale(0.1 -0.1)">
       <defs>
        <path d="M 8.203125 72.90625 
L 55.078125 72.90625 
L 55.078125 68.703125 
L 28.609375 0 
L 18.3125 0 
L 43.21875 64.59375 
L 8.203125 64.59375 
z
" id="DejaVuSans-55"/>
       </defs>
       <use xlink:href="#DejaVuSans-55"/>
       <use x="63.623047" xlink:href="#DejaVuSans-48"/>
      </g>
     </g>
    </g>
    <g id="ytick_2">
     <g id="line2d_8">
      <g>
       <use style="stroke:#000000;stroke-width:0.8;" x="57.6" xlink:href="#m3fca3894f1" y="265.119756"/>
      </g>
     </g>
     <g id="text_8">
      <!-- 80 -->
      <g transform="translate(37.875 268.918975)scale(0.1 -0.1)">
       <use xlink:href="#DejaVuSans-56"/>
       <use x="63.623047" xlink:href="#DejaVuSans-48"/>
      </g>
     </g>
    </g>
    <g id="ytick_3">
     <g id="line2d_9">
      <g>
       <use style="stroke:#000000;stroke-width:0.8;" x="57.6" xlink:href="#m3fca3894f1" y="234.686636"/>
      </g>
     </g>
     <g id="text_9">
      <!-- 90 -->
      <g transform="translate(37.875 238.485855)scale(0.1 -0.1)">
       <defs>
        <path d="M 10.984375 1.515625 
L 10.984375 10.5 
Q 14.703125 8.734375 18.5 7.8125 
Q 22.3125 6.890625 25.984375 6.890625 
Q 35.75 6.890625 40.890625 13.453125 
Q 46.046875 20.015625 46.78125 33.40625 
Q 43.953125 29.203125 39.59375 26.953125 
Q 35.25 24.703125 29.984375 24.703125 
Q 19.046875 24.703125 12.671875 31.3125 
Q 6.296875 37.9375 6.296875 49.421875 
Q 6.296875 60.640625 12.9375 67.421875 
Q 19.578125 74.21875 30.609375 74.21875 
Q 43.265625 74.21875 49.921875 64.515625 
Q 56.59375 54.828125 56.59375 36.375 
Q 56.59375 19.140625 48.40625 8.859375 
Q 40.234375 -1.421875 26.421875 -1.421875 
Q 22.703125 -1.421875 18.890625 -0.6875 
Q 15.09375 0.046875 10.984375 1.515625 
z
M 30.609375 32.421875 
Q 37.25 32.421875 41.125 36.953125 
Q 45.015625 41.5 45.015625 49.421875 
Q 45.015625 57.28125 41.125 61.84375 
Q 37.25 66.40625 30.609375 66.40625 
Q 23.96875 66.40625 20.09375 61.84375 
Q 16.21875 57.28125 16.21875 49.421875 
Q 16.21875 41.5 20.09375 36.953125 
Q 23.96875 32.421875 30.609375 32.421875 
z
" id="DejaVuSans-57"/>
       </defs>
       <use xlink:href="#DejaVuSans-57"/>
       <use x="63.623047" xlink:href="#DejaVuSans-48"/>
      </g>
     </g>
    </g>
    <g id="ytick_4">
     <g id="line2d_10">
      <g>
       <use style="stroke:#000000;stroke-width:0.8;" x="57.6" xlink:href="#m3fca3894f1" y="204.253516"/>
      </g>
     </g>
     <g id="text_10">
      <!-- 100 -->
      <g transform="translate(31.5125 208.052735)scale(0.1 -0.1)">
       <use xlink:href="#DejaVuSans-49"/>
       <use x="63.623047" xlink:href="#DejaVuSans-48"/>
       <use x="127.246094" xlink:href="#DejaVuSans-48"/>
      </g>
     </g>
    </g>
    <g id="ytick_5">
     <g id="line2d_11">
      <g>
       <use style="stroke:#000000;stroke-width:0.8;" x="57.6" xlink:href="#m3fca3894f1" y="173.820396"/>
      </g>
     </g>
     <g id="text_11">
      <!-- 110 -->
      <g transform="translate(31.5125 177.619615)scale(0.1 -0.1)">
       <use xlink:href="#DejaVuSans-49"/>
       <use x="63.623047" xlink:href="#DejaVuSans-49"/>
       <use x="127.246094" xlink:href="#DejaVuSans-48"/>
      </g>
     </g>
    </g>
    <g id="ytick_6">
     <g id="line2d_12">
      <g>
       <use style="stroke:#000000;stroke-width:0.8;" x="57.6" xlink:href="#m3fca3894f1" y="143.387276"/>
      </g>
     </g>
     <g id="text_12">
      <!-- 120 -->
      <g transform="translate(31.5125 147.186495)scale(0.1 -0.1)">
       <use xlink:href="#DejaVuSans-49"/>
       <use x="63.623047" xlink:href="#DejaVuSans-50"/>
       <use x="127.246094" xlink:href="#DejaVuSans-48"/>
      </g>
     </g>
    </g>
    <g id="ytick_7">
     <g id="line2d_13">
      <g>
       <use style="stroke:#000000;stroke-width:0.8;" x="57.6" xlink:href="#m3fca3894f1" y="112.954156"/>
      </g>
     </g>
     <g id="text_13">
      <!-- 130 -->
      <g transform="translate(31.5125 116.753375)scale(0.1 -0.1)">
       <defs>
        <path d="M 40.578125 39.3125 
Q 47.65625 37.796875 51.625 33 
Q 55.609375 28.21875 55.609375 21.1875 
Q 55.609375 10.40625 48.1875 4.484375 
Q 40.765625 -1.421875 27.09375 -1.421875 
Q 22.515625 -1.421875 17.65625 -0.515625 
Q 12.796875 0.390625 7.625 2.203125 
L 7.625 11.71875 
Q 11.71875 9.328125 16.59375 8.109375 
Q 21.484375 6.890625 26.8125 6.890625 
Q 36.078125 6.890625 40.9375 10.546875 
Q 45.796875 14.203125 45.796875 21.1875 
Q 45.796875 27.640625 41.28125 31.265625 
Q 36.765625 34.90625 28.71875 34.90625 
L 20.21875 34.90625 
L 20.21875 43.015625 
L 29.109375 43.015625 
Q 36.375 43.015625 40.234375 45.921875 
Q 44.09375 48.828125 44.09375 54.296875 
Q 44.09375 59.90625 40.109375 62.90625 
Q 36.140625 65.921875 28.71875 65.921875 
Q 24.65625 65.921875 20.015625 65.03125 
Q 15.375 64.15625 9.8125 62.3125 
L 9.8125 71.09375 
Q 15.4375 72.65625 20.34375 73.4375 
Q 25.25 74.21875 29.59375 74.21875 
Q 40.828125 74.21875 47.359375 69.109375 
Q 53.90625 64.015625 53.90625 55.328125 
Q 53.90625 49.265625 50.4375 45.09375 
Q 46.96875 40.921875 40.578125 39.3125 
z
" id="DejaVuSans-51"/>
       </defs>
       <use xlink:href="#DejaVuSans-49"/>
       <use x="63.623047" xlink:href="#DejaVuSans-51"/>
       <use x="127.246094" xlink:href="#DejaVuSans-48"/>
      </g>
     </g>
    </g>
    <g id="ytick_8">
     <g id="line2d_14">
      <g>
       <use style="stroke:#000000;stroke-width:0.8;" x="57.6" xlink:href="#m3fca3894f1" y="82.521036"/>
      </g>
     </g>
     <g id="text_14">
      <!-- 140 -->
      <g transform="translate(31.5125 86.320255)scale(0.1 -0.1)">
       <use xlink:href="#DejaVuSans-49"/>
       <use x="63.623047" xlink:href="#DejaVuSans-52"/>
       <use x="127.246094" xlink:href="#DejaVuSans-48"/>
      </g>
     </g>
    </g>
    <g id="ytick_9">
     <g id="line2d_15">
      <g>
       <use style="stroke:#000000;stroke-width:0.8;" x="57.6" xlink:href="#m3fca3894f1" y="52.087916"/>
      </g>
     </g>
     <g id="text_15">
      <!-- 150 -->
      <g transform="translate(31.5125 55.887135)scale(0.1 -0.1)">
       <defs>
        <path d="M 10.796875 72.90625 
L 49.515625 72.90625 
L 49.515625 64.59375 
L 19.828125 64.59375 
L 19.828125 46.734375 
Q 21.96875 47.46875 24.109375 47.828125 
Q 26.265625 48.1875 28.421875 48.1875 
Q 40.625 48.1875 47.75 41.5 
Q 54.890625 34.8125 54.890625 23.390625 
Q 54.890625 11.625 47.5625 5.09375 
Q 40.234375 -1.421875 26.90625 -1.421875 
Q 22.3125 -1.421875 17.546875 -0.640625 
Q 12.796875 0.140625 7.71875 1.703125 
L 7.71875 11.625 
Q 12.109375 9.234375 16.796875 8.0625 
Q 21.484375 6.890625 26.703125 6.890625 
Q 35.15625 6.890625 40.078125 11.328125 
Q 45.015625 15.765625 45.015625 23.390625 
Q 45.015625 31 40.078125 35.4375 
Q 35.15625 39.890625 26.703125 39.890625 
Q 22.75 39.890625 18.8125 39.015625 
Q 14.890625 38.140625 10.796875 36.28125 
z
" id="DejaVuSans-53"/>
       </defs>
       <use xlink:href="#DejaVuSans-49"/>
       <use x="63.623047" xlink:href="#DejaVuSans-53"/>
       <use x="127.246094" xlink:href="#DejaVuSans-48"/>
      </g>
     </g>
    </g>
   </g>
   <g id="line2d_16">
    <path clip-path="url(#pe36493a49b)" d="M 295.486761 64.261164 
L 292.343019 65.971505 
L 289.241884 67.70315 
L 286.186399 69.456097 
L 283.17352 71.230348 
L 280.206291 73.022859 
L 277.284712 74.836673 
L 274.408782 76.668747 
L 271.575458 78.525167 
L 268.787784 80.399847 
L 266.04576 82.292787 
L 263.346343 84.210074 
L 260.692575 86.14562 
L 258.084456 88.10247 
L 255.518944 90.07758 
L 252.999082 92.073992 
L 250.524869 94.091708 
L 248.093263 96.130727 
L 245.707306 98.188006 
L 243.366999 100.266588 
L 241.072342 102.366473 
L 238.820291 104.484619 
L 236.610847 106.624067 
L 234.450095 108.784818 
L 232.33195 110.966873 
L 230.259455 113.167188 
L 228.229565 115.388806 
L 226.248369 117.628683 
L 224.306736 119.892907 
L 222.413796 122.175391 
L 220.563462 124.479178 
L 218.758778 126.801226 
L 216.999744 129.144576 
L 215.283316 131.509229 
L 213.612538 133.895186 
L 211.984366 136.299402 
L 210.404887 138.724922 
L 208.868014 141.168701 
L 207.373748 143.636828 
L 205.925132 146.123213 
L 204.522165 148.630903 
L 203.164848 151.156851 
L 201.850137 153.704104 
L 200.584119 156.272659 
L 199.357664 158.862517 
L 198.179903 161.470636 
L 197.044747 164.100057 
L 195.952198 166.750782 
L 194.908342 169.419767 
L 193.907093 172.110055 
L 192.951493 174.821646 
L 192.038499 177.551496 
L 191.171155 180.305694 
L 190.349461 183.075108 
L 189.573416 185.868868 
L 188.839978 188.680888 
L 188.15219 191.514212 
L 187.507008 194.368839 
L 186.907475 197.244768 
L 186.353592 200.138958 
L 185.845359 203.051408 
L 185.379732 205.988204 
L 184.959755 208.94326 
L 184.582385 211.919619 
L 184.253707 214.917281 
L 183.967636 217.933203 
L 183.724171 220.970429 
L 183.529399 224.028957 
L 183.377233 227.105746 
L 183.267674 230.203837 
L 183.206808 233.323232 
L 183.188548 236.46393 
L 183.212894 239.622888 
L 183.285934 242.803149 
L 183.40158 246.004713 
L 183.559832 249.224537 
L 183.766777 252.465665 
L 184.016329 255.728095 
L 184.31153 259.008786 
L 184.649338 262.310779 
L 185.032795 265.634076 
L 185.461902 268.978676 
L 185.933615 272.341535 
L 186.454022 275.725698 
L 187.013991 279.131165 
L 187.622653 282.554891 
L 188.273922 285.99992 
L 188.970841 289.466252 
L 189.713409 292.950844 
" style="fill:none;stroke:#fea952;stroke-linecap:square;"/>
   </g>
   <g id="line2d_17">
    <path clip-path="url(#pe36493a49b)" d="M 301.304339 74.954328 
L 298.277883 76.600022 
L 295.299619 78.262118 
L 292.363574 79.945639 
L 289.468008 81.649916 
L 286.627083 83.365074 
L 283.82515 85.103641 
L 281.080305 86.851023 
L 278.368625 88.626694 
L 275.703615 90.417794 
L 273.094831 92.217432 
L 270.519709 94.045255 
L 267.998341 95.882855 
L 265.510487 97.7483 
L 263.078456 99.619159 
L 260.692467 101.507962 
L 258.346663 103.419489 
L 256.042589 105.350064 
L 253.791098 107.289669 
L 251.585209 109.247067 
L 249.412466 111.233846 
L 247.288437 113.229816 
L 245.218633 115.231853 
L 243.184846 117.263739 
L 241.19327 119.313428 
L 239.246289 121.378446 
L 237.347759 123.453947 
L 235.489235 125.552973 
L 233.676891 127.663889 
L 231.90481 129.798293 
L 230.175155 131.949341 
L 228.494342 134.10922 
L 226.851264 136.295486 
L 225.254834 138.491836 
L 223.691953 140.721119 
L 222.185388 142.942226 
L 220.709717 145.205543 
L 219.281481 147.473278 
L 217.89201 149.76497 
L 216.548781 152.066784 
L 215.245332 154.39299 
L 213.982247 156.740025 
L 212.769093 159.085959 
L 211.58607 161.482749 
L 210.452161 163.872518 
L 209.356131 166.295559 
L 208.299477 168.738918 
L 207.28921 171.184756 
L 206.317082 173.66578 
L 205.38825 176.156164 
L 204.496183 178.682746 
L 203.649602 181.208032 
L 202.841548 183.768338 
L 202.078603 186.333203 
L 201.352597 188.941144 
L 200.669668 191.552543 
L 200.025948 194.197833 
L 199.424064 196.853135 
L 198.863741 199.532929 
L 198.345622 202.231611 
L 197.868428 204.957656 
L 197.431871 207.701072 
L 197.036322 210.47444 
L 196.683113 213.246399 
L 196.372559 216.066799 
L 196.10196 218.905895 
L 195.87281 221.744074 
L 195.687787 224.630262 
L 195.542876 227.535965 
L 195.438605 230.441319 
L 195.37985 233.394006 
L 195.361434 236.370112 
L 195.382933 239.343385 
L 195.451248 242.363718 
L 195.560151 245.407128 
L 195.708342 248.448858 
L 195.904567 251.537214 
L 196.140593 254.637136 
L 196.42157 257.769878 
L 196.742351 260.915431 
L 197.107074 264.084964 
L 197.517128 267.287671 
L 197.965434 270.491319 
L 198.465963 273.750545 
L 198.999315 277.00044 
L 199.584038 280.293639 
L 200.20835 283.600461 
L 200.876755 286.929096 
L 201.619324 290.413689 
" style="fill:none;stroke:#ffffff;stroke-linecap:square;"/>
   </g>
   <g id="line2d_18">
    <path clip-path="url(#pe36493a49b)" d="M 289.669183 53.568 
L 286.408156 55.342989 
L 283.18415 57.144181 
L 280.009225 58.966556 
L 276.879033 60.810781 
L 273.7855 62.680645 
L 270.744273 64.569705 
L 267.737258 66.486471 
L 264.782292 68.42364 
L 261.871954 70.3819 
L 258.996689 72.368143 
L 256.172977 74.374893 
L 253.386808 76.408386 
L 250.658426 78.45664 
L 247.959432 80.536 
L 245.305697 82.640022 
L 242.703075 84.763927 
L 240.143936 86.91139 
L 237.623514 89.086343 
L 235.14879 91.28611 
L 232.732218 93.4991 
L 230.352146 95.739421 
L 228.00306 98.016281 
L 225.715345 100.305897 
L 223.47063 102.620319 
L 221.27262 104.955929 
L 219.111372 107.323664 
L 217.007504 109.704393 
L 214.936581 112.121925 
L 212.922782 114.55249 
L 210.95177 117.009016 
L 209.023215 119.493231 
L 207.148224 121.993665 
L 205.311798 124.526623 
L 203.533123 127.069253 
L 201.783344 129.656578 
L 200.100057 132.244301 
L 198.454548 134.864125 
L 196.855486 137.508685 
L 195.301482 140.179642 
L 193.798998 142.868815 
L 192.347448 145.573677 
L 190.931181 148.322248 
L 189.582168 151.062569 
L 188.263167 153.852517 
L 187.003674 156.645713 
L 185.790018 159.461196 
L 184.615186 162.316808 
L 183.499603 165.173754 
L 182.425936 168.063945 
L 181.406803 170.960545 
L 180.427396 173.894961 
L 179.500763 176.84305 
L 178.620318 179.817013 
L 177.794236 182.796593 
L 177.010288 185.809234 
L 176.278431 188.830591 
L 175.589951 191.884542 
L 174.951209 194.956608 
L 174.361563 198.046305 
L 173.82229 201.14516 
L 173.327594 204.275336 
L 172.883189 207.41208 
L 172.481657 210.592839 
L 172.134855 213.767764 
L 171.833311 216.960512 
L 171.575531 220.196784 
L 171.371011 223.427652 
L 171.21159 226.675527 
L 171.096743 229.966356 
L 171.033765 233.252459 
L 171.015661 236.557748 
L 171.042855 239.902391 
L 171.12062 243.242581 
L 171.243008 246.602299 
L 171.411322 250.000217 
L 171.628987 253.394115 
L 171.892065 256.819054 
L 172.20149 260.247693 
L 172.556324 263.706127 
L 172.958516 267.183187 
L 173.406676 270.66968 
L 173.901796 274.191752 
L 174.44208 277.700852 
L 175.028667 281.261889 
L 175.661269 284.816142 
L 176.339494 288.399379 
L 177.064926 292.003408 
L 177.807494 295.488 
" style="fill:none;stroke:#ffffff;stroke-linecap:square;"/>
   </g>
   <g id="patch_3">
    <path d="M 57.6 307.584 
L 57.6 41.472 
" style="fill:none;stroke:#000000;stroke-linecap:square;stroke-linejoin:miter;stroke-width:0.8;"/>
   </g>
   <g id="patch_4">
    <path d="M 414.72 307.584 
L 414.72 41.472 
" style="fill:none;stroke:#000000;stroke-linecap:square;stroke-linejoin:miter;stroke-width:0.8;"/>
   </g>
   <g id="patch_5">
    <path d="M 57.6 307.584 
L 414.72 307.584 
" style="fill:none;stroke:#000000;stroke-linecap:square;stroke-linejoin:miter;stroke-width:0.8;"/>
   </g>
   <g id="patch_6">
    <path d="M 57.6 41.472 
L 414.72 41.472 
" style="fill:none;stroke:#000000;stroke-linecap:square;stroke-linejoin:miter;stroke-width:0.8;"/>
   </g>
  </g>
 </g>
 <defs>
  <clipPath id="pe36493a49b">
   <rect height="266.112" width="357.12" x="57.6" y="41.472"/>
  </clipPath>
 </defs>
</svg>
