<?xml version="1.0" encoding="utf-8" standalone="no"?>
<!DOCTYPE svg PUBLIC "-//W3C//DTD SVG 1.1//EN"
  "http://www.w3.org/Graphics/SVG/1.1/DTD/svg11.dtd">
<!-- Created with matplotlib (https://matplotlib.org/) -->
<svg height="345.6pt" version="1.1" viewBox="0 0 460.8 345.6" width="460.8pt" xmlns="http://www.w3.org/2000/svg" xmlns:xlink="http://www.w3.org/1999/xlink">
 <metadata>
  <rdf:RDF xmlns:cc="http://creativecommons.org/ns#" xmlns:dc="http://purl.org/dc/elements/1.1/" xmlns:rdf="http://www.w3.org/1999/02/22-rdf-syntax-ns#">
   <cc:Work>
    <dc:type rdf:resource="http://purl.org/dc/dcmitype/StillImage"/>
    <dc:date>2021-01-10T14:57:23.400922</dc:date>
    <dc:format>image/svg+xml</dc:format>
    <dc:creator>
     <cc:Agent>
      <dc:title>Matplotlib v3.3.3, https://matplotlib.org/</dc:title>
     </cc:Agent>
    </dc:creator>
   </cc:Work>
  </rdf:RDF>
 </metadata>
 <defs>
  <style type="text/css">*{stroke-linecap:butt;stroke-linejoin:round;}</style>
 </defs>
 <g id="figure_1">
  <g id="patch_1">
   <path d="M 0 345.6 
L 460.8 345.6 
L 460.8 0 
L 0 0 
z
" style="fill:#ffffff;"/>
  </g>
  <g id="axes_1">
   <g id="patch_2">
    <path d="M 57.6 307.584 
L 414.72 307.584 
L 414.72 41.472 
L 57.6 41.472 
z
" style="fill:#7d9051;"/>
   </g>
   <g id="matplotlib.axis_1">
    <g id="xtick_1">
     <g id="line2d_1">
      <defs>
       <path d="M 0 0 
L 0 3.5 
" id="mcbeddc3ad4" style="stroke:#000000;stroke-width:0.8;"/>
      </defs>
      <g>
       <use style="stroke:#000000;stroke-width:0.8;" x="78.364541" xlink:href="#mcbeddc3ad4" y="307.584"/>
      </g>
     </g>
     <g id="text_1">
      <!-- −50 -->
      <g transform="translate(67.812197 322.182437)scale(0.1 -0.1)">
       <defs>
        <path d="M 10.59375 35.5 
L 73.1875 35.5 
L 73.1875 27.203125 
L 10.59375 27.203125 
z
" id="DejaVuSans-8722"/>
        <path d="M 10.796875 72.90625 
L 49.515625 72.90625 
L 49.515625 64.59375 
L 19.828125 64.59375 
L 19.828125 46.734375 
Q 21.96875 47.46875 24.109375 47.828125 
Q 26.265625 48.1875 28.421875 48.1875 
Q 40.625 48.1875 47.75 41.5 
Q 54.890625 34.8125 54.890625 23.390625 
Q 54.890625 11.625 47.5625 5.09375 
Q 40.234375 -1.421875 26.90625 -1.421875 
Q 22.3125 -1.421875 17.546875 -0.640625 
Q 12.796875 0.140625 7.71875 1.703125 
L 7.71875 11.625 
Q 12.109375 9.234375 16.796875 8.0625 
Q 21.484375 6.890625 26.703125 6.890625 
Q 35.15625 6.890625 40.078125 11.328125 
Q 45.015625 15.765625 45.015625 23.390625 
Q 45.015625 31 40.078125 35.4375 
Q 35.15625 39.890625 26.703125 39.890625 
Q 22.75 39.890625 18.8125 39.015625 
Q 14.890625 38.140625 10.796875 36.28125 
z
" id="DejaVuSans-53"/>
        <path d="M 31.78125 66.40625 
Q 24.171875 66.40625 20.328125 58.90625 
Q 16.5 51.421875 16.5 36.375 
Q 16.5 21.390625 20.328125 13.890625 
Q 24.171875 6.390625 31.78125 6.390625 
Q 39.453125 6.390625 43.28125 13.890625 
Q 47.125 21.390625 47.125 36.375 
Q 47.125 51.421875 43.28125 58.90625 
Q 39.453125 66.40625 31.78125 66.40625 
z
M 31.78125 74.21875 
Q 44.046875 74.21875 50.515625 64.515625 
Q 56.984375 54.828125 56.984375 36.375 
Q 56.984375 17.96875 50.515625 8.265625 
Q 44.046875 -1.421875 31.78125 -1.421875 
Q 19.53125 -1.421875 13.0625 8.265625 
Q 6.59375 17.96875 6.59375 36.375 
Q 6.59375 54.828125 13.0625 64.515625 
Q 19.53125 74.21875 31.78125 74.21875 
z
" id="DejaVuSans-48"/>
       </defs>
       <use xlink:href="#DejaVuSans-8722"/>
       <use x="83.789062" xlink:href="#DejaVuSans-53"/>
       <use x="147.412109" xlink:href="#DejaVuSans-48"/>
      </g>
     </g>
    </g>
    <g id="xtick_2">
     <g id="line2d_2">
      <g>
       <use style="stroke:#000000;stroke-width:0.8;" x="148.091124" xlink:href="#mcbeddc3ad4" y="307.584"/>
      </g>
     </g>
     <g id="text_2">
      <!-- 0 -->
      <g transform="translate(144.909874 322.182437)scale(0.1 -0.1)">
       <use xlink:href="#DejaVuSans-48"/>
      </g>
     </g>
    </g>
    <g id="xtick_3">
     <g id="line2d_3">
      <g>
       <use style="stroke:#000000;stroke-width:0.8;" x="217.817706" xlink:href="#mcbeddc3ad4" y="307.584"/>
      </g>
     </g>
     <g id="text_3">
      <!-- 50 -->
      <g transform="translate(211.455206 322.182437)scale(0.1 -0.1)">
       <use xlink:href="#DejaVuSans-53"/>
       <use x="63.623047" xlink:href="#DejaVuSans-48"/>
      </g>
     </g>
    </g>
    <g id="xtick_4">
     <g id="line2d_4">
      <g>
       <use style="stroke:#000000;stroke-width:0.8;" x="287.544288" xlink:href="#mcbeddc3ad4" y="307.584"/>
      </g>
     </g>
     <g id="text_4">
      <!-- 100 -->
      <g transform="translate(278.000538 322.182437)scale(0.1 -0.1)">
       <defs>
        <path d="M 12.40625 8.296875 
L 28.515625 8.296875 
L 28.515625 63.921875 
L 10.984375 60.40625 
L 10.984375 69.390625 
L 28.421875 72.90625 
L 38.28125 72.90625 
L 38.28125 8.296875 
L 54.390625 8.296875 
L 54.390625 0 
L 12.40625 0 
z
" id="DejaVuSans-49"/>
       </defs>
       <use xlink:href="#DejaVuSans-49"/>
       <use x="63.623047" xlink:href="#DejaVuSans-48"/>
       <use x="127.246094" xlink:href="#DejaVuSans-48"/>
      </g>
     </g>
    </g>
    <g id="xtick_5">
     <g id="line2d_5">
      <g>
       <use style="stroke:#000000;stroke-width:0.8;" x="357.270871" xlink:href="#mcbeddc3ad4" y="307.584"/>
      </g>
     </g>
     <g id="text_5">
      <!-- 150 -->
      <g transform="translate(347.727121 322.182437)scale(0.1 -0.1)">
       <use xlink:href="#DejaVuSans-49"/>
       <use x="63.623047" xlink:href="#DejaVuSans-53"/>
       <use x="127.246094" xlink:href="#DejaVuSans-48"/>
      </g>
     </g>
    </g>
   </g>
   <g id="matplotlib.axis_2">
    <g id="ytick_1">
     <g id="line2d_6">
      <defs>
       <path d="M 0 0 
L -3.5 0 
" id="m7a50d7092f" style="stroke:#000000;stroke-width:0.8;"/>
      </defs>
      <g>
       <use style="stroke:#000000;stroke-width:0.8;" x="57.6" xlink:href="#m7a50d7092f" y="279.116135"/>
      </g>
     </g>
     <g id="text_6">
      <!-- 25 -->
      <g transform="translate(37.875 282.915354)scale(0.1 -0.1)">
       <defs>
        <path d="M 19.1875 8.296875 
L 53.609375 8.296875 
L 53.609375 0 
L 7.328125 0 
L 7.328125 8.296875 
Q 12.9375 14.109375 22.625 23.890625 
Q 32.328125 33.6875 34.8125 36.53125 
Q 39.546875 41.84375 41.421875 45.53125 
Q 43.3125 49.21875 43.3125 52.78125 
Q 43.3125 58.59375 39.234375 62.25 
Q 35.15625 65.921875 28.609375 65.921875 
Q 23.96875 65.921875 18.8125 64.3125 
Q 13.671875 62.703125 7.8125 59.421875 
L 7.8125 69.390625 
Q 13.765625 71.78125 18.9375 73 
Q 24.125 74.21875 28.421875 74.21875 
Q 39.75 74.21875 46.484375 68.546875 
Q 53.21875 62.890625 53.21875 53.421875 
Q 53.21875 48.921875 51.53125 44.890625 
Q 49.859375 40.875 45.40625 35.40625 
Q 44.1875 33.984375 37.640625 27.21875 
Q 31.109375 20.453125 19.1875 8.296875 
z
" id="DejaVuSans-50"/>
       </defs>
       <use xlink:href="#DejaVuSans-50"/>
       <use x="63.623047" xlink:href="#DejaVuSans-53"/>
      </g>
     </g>
    </g>
    <g id="ytick_2">
     <g id="line2d_7">
      <g>
       <use style="stroke:#000000;stroke-width:0.8;" x="57.6" xlink:href="#m7a50d7092f" y="244.252844"/>
      </g>
     </g>
     <g id="text_7">
      <!-- 50 -->
      <g transform="translate(37.875 248.052063)scale(0.1 -0.1)">
       <use xlink:href="#DejaVuSans-53"/>
       <use x="63.623047" xlink:href="#DejaVuSans-48"/>
      </g>
     </g>
    </g>
    <g id="ytick_3">
     <g id="line2d_8">
      <g>
       <use style="stroke:#000000;stroke-width:0.8;" x="57.6" xlink:href="#m7a50d7092f" y="209.389553"/>
      </g>
     </g>
     <g id="text_8">
      <!-- 75 -->
      <g transform="translate(37.875 213.188772)scale(0.1 -0.1)">
       <defs>
        <path d="M 8.203125 72.90625 
L 55.078125 72.90625 
L 55.078125 68.703125 
L 28.609375 0 
L 18.3125 0 
L 43.21875 64.59375 
L 8.203125 64.59375 
z
" id="DejaVuSans-55"/>
       </defs>
       <use xlink:href="#DejaVuSans-55"/>
       <use x="63.623047" xlink:href="#DejaVuSans-53"/>
      </g>
     </g>
    </g>
    <g id="ytick_4">
     <g id="line2d_9">
      <g>
       <use style="stroke:#000000;stroke-width:0.8;" x="57.6" xlink:href="#m7a50d7092f" y="174.526262"/>
      </g>
     </g>
     <g id="text_9">
      <!-- 100 -->
      <g transform="translate(31.5125 178.32548)scale(0.1 -0.1)">
       <use xlink:href="#DejaVuSans-49"/>
       <use x="63.623047" xlink:href="#DejaVuSans-48"/>
       <use x="127.246094" xlink:href="#DejaVuSans-48"/>
      </g>
     </g>
    </g>
    <g id="ytick_5">
     <g id="line2d_10">
      <g>
       <use style="stroke:#000000;stroke-width:0.8;" x="57.6" xlink:href="#m7a50d7092f" y="139.662971"/>
      </g>
     </g>
     <g id="text_10">
      <!-- 125 -->
      <g transform="translate(31.5125 143.462189)scale(0.1 -0.1)">
       <use xlink:href="#DejaVuSans-49"/>
       <use x="63.623047" xlink:href="#DejaVuSans-50"/>
       <use x="127.246094" xlink:href="#DejaVuSans-53"/>
      </g>
     </g>
    </g>
    <g id="ytick_6">
     <g id="line2d_11">
      <g>
       <use style="stroke:#000000;stroke-width:0.8;" x="57.6" xlink:href="#m7a50d7092f" y="104.799679"/>
      </g>
     </g>
     <g id="text_11">
      <!-- 150 -->
      <g transform="translate(31.5125 108.598898)scale(0.1 -0.1)">
       <use xlink:href="#DejaVuSans-49"/>
       <use x="63.623047" xlink:href="#DejaVuSans-53"/>
       <use x="127.246094" xlink:href="#DejaVuSans-48"/>
      </g>
     </g>
    </g>
    <g id="ytick_7">
     <g id="line2d_12">
      <g>
       <use style="stroke:#000000;stroke-width:0.8;" x="57.6" xlink:href="#m7a50d7092f" y="69.936388"/>
      </g>
     </g>
     <g id="text_12">
      <!-- 175 -->
      <g transform="translate(31.5125 73.735607)scale(0.1 -0.1)">
       <use xlink:href="#DejaVuSans-49"/>
       <use x="63.623047" xlink:href="#DejaVuSans-55"/>
       <use x="127.246094" xlink:href="#DejaVuSans-53"/>
      </g>
     </g>
    </g>
   </g>
   <g id="line2d_13">
    <path clip-path="url(#p0a3856a6a1)" d="M 318.223985 58.780135 
L 304.798829 63.988711 
L 291.96077 69.191708 
L 279.708415 74.387733 
L 268.043158 79.576785 
L 256.962209 84.760259 
L 246.468359 89.938155 
L 238.170895 94.248653 
L 230.280635 98.553572 
L 222.796184 102.854308 
L 215.72033 107.15086 
L 209.050286 111.443228 
L 202.787444 115.731413 
L 196.931805 120.015414 
L 191.48337 124.295232 
L 186.442138 128.569471 
L 181.80811 132.840922 
L 178.392902 136.254735 
L 175.238471 139.664365 
L 172.344818 143.0726 
L 169.711942 146.478047 
L 167.338449 149.880704 
L 165.225734 153.279178 
L 163.37519 156.676257 
L 161.782635 160.070547 
L 160.452252 163.462048 
L 159.381252 166.85076 
L 158.572423 170.235288 
L 158.021583 173.618422 
L 157.732915 176.998766 
L 157.705025 180.376322 
L 157.936517 183.751089 
L 158.428787 187.123066 
L 159.181834 190.492255 
L 160.194264 193.858654 
L 161.468866 197.222264 
L 163.00285 200.581691 
L 164.797613 203.939723 
L 166.853152 207.294966 
L 169.168075 210.647421 
L 171.745169 213.997086 
L 174.581647 217.343961 
L 177.677507 220.688048 
L 181.035539 224.029346 
L 184.652954 227.367855 
L 189.542182 231.537505 
L 194.838613 235.701576 
L 200.540853 239.862859 
L 206.650297 244.018563 
L 213.166943 248.171478 
L 220.090793 252.318815 
L 227.421845 256.461969 
L 235.158707 260.600939 
L 243.304166 264.735725 
L 253.613939 269.690496 
L 264.510809 274.639689 
L 275.994777 279.583304 
L 288.063054 284.519946 
L 300.718429 289.451009 
L 302.884137 290.272389 
L 302.884137 290.272389 
" style="fill:none;stroke:#fea952;stroke-linecap:square;"/>
   </g>
   <g id="line2d_14">
    <path clip-path="url(#p0a3856a6a1)" d="M 320.211231 63.99227 
L 306.861342 69.171522 
L 294.103019 74.342074 
L 281.936501 79.50155 
L 270.365505 84.648491 
L 259.389265 89.782699 
L 248.998942 94.909236 
L 240.799212 99.168759 
L 233.015164 103.415449 
L 225.646382 107.649291 
L 218.688851 111.873505 
L 212.151441 116.079858 
L 206.024683 120.274075 
L 200.317373 124.448633 
L 195.024766 128.604989 
L 190.152926 132.73427 
L 185.694869 136.841997 
L 181.658473 140.912139 
L 178.030898 144.955306 
L 175.428158 148.16268 
L 173.087533 151.342741 
L 171.00753 154.49409 
L 169.183736 157.615017 
L 167.614956 160.70357 
L 166.294114 163.762412 
L 165.21803 166.790676 
L 164.380192 169.797362 
L 163.77781 172.774392 
L 163.407238 175.723748 
L 163.265022 178.687544 
L 163.347955 181.62253 
L 163.661873 184.580669 
L 164.207298 187.54811 
L 164.983788 190.523214 
L 165.999786 193.522434 
L 167.261589 196.550207 
L 168.765716 199.593285 
L 170.529296 202.671552 
L 172.544741 205.768637 
L 174.826469 208.897486 
L 177.362678 212.037423 
L 180.172032 215.20632 
L 183.23926 218.385066 
L 187.450943 222.383401 
L 192.08484 226.402799 
L 197.128817 230.433193 
L 202.593357 234.480574 
L 208.478856 238.538199 
L 214.7776 242.603995 
L 221.492849 246.675619 
L 228.620512 250.751257 
L 236.168785 254.832246 
L 244.126438 258.914522 
L 254.225955 263.815564 
L 264.918402 268.717375 
L 276.203291 273.619117 
L 288.082574 278.519649 
L 300.558485 283.418708 
L 304.86224 285.056777 
L 304.86224 285.056777 
" style="fill:none;stroke:#ffffff;stroke-linecap:square;"/>
   </g>
   <g id="line2d_15">
    <path clip-path="url(#p0a3856a6a1)" d="M 316.236739 53.568 
L 302.736315 58.805899 
L 289.818522 64.041342 
L 277.480329 69.273916 
L 265.720811 74.505079 
L 254.535154 79.73782 
L 243.937776 84.967075 
L 235.542579 89.328546 
L 227.546107 93.691695 
L 219.945986 98.059324 
L 212.75181 102.428214 
L 205.94913 106.806598 
L 199.550205 111.188751 
L 193.546238 115.582195 
L 187.941974 119.985474 
L 182.731351 124.404672 
L 177.921351 128.839846 
L 174.357183 132.40396 
L 171.045183 135.985801 
L 167.993205 139.582764 
L 165.198471 143.200231 
L 162.662031 146.83988 
L 160.38403 150.509088 
L 158.381052 154.191488 
L 156.641636 157.905916 
L 155.178011 161.646041 
L 153.991766 165.412379 
L 153.093448 169.188235 
L 152.479268 172.987366 
L 152.158461 176.796393 
L 152.131282 180.597429 
L 152.39641 184.40125 
L 152.952458 188.183878 
L 153.79923 191.95618 
L 154.929166 195.701002 
L 156.338678 199.412394 
L 158.02191 203.092812 
L 159.978764 206.749384 
L 162.198806 210.369468 
L 164.685071 213.966783 
L 167.428258 217.529758 
L 170.42514 221.064035 
L 173.686816 224.585468 
L 177.195124 228.074925 
L 180.963161 231.551266 
L 186.028203 235.869646 
L 191.486349 240.160031 
L 197.345966 244.435406 
L 203.596428 248.686473 
L 210.250302 252.926339 
L 217.300024 257.14863 
L 224.745066 261.355878 
L 232.593399 265.554189 
L 240.841221 269.740662 
L 251.263294 274.749148 
L 262.262246 279.744535 
L 273.845465 284.730725 
L 286.001035 289.702954 
L 298.740325 294.666621 
L 300.906033 295.488 
L 300.906033 295.488 
" style="fill:none;stroke:#ffffff;stroke-linecap:square;"/>
   </g>
   <g id="patch_3">
    <path d="M 57.6 307.584 
L 57.6 41.472 
" style="fill:none;stroke:#000000;stroke-linecap:square;stroke-linejoin:miter;stroke-width:0.8;"/>
   </g>
   <g id="patch_4">
    <path d="M 414.72 307.584 
L 414.72 41.472 
" style="fill:none;stroke:#000000;stroke-linecap:square;stroke-linejoin:miter;stroke-width:0.8;"/>
   </g>
   <g id="patch_5">
    <path d="M 57.6 307.584 
L 414.72 307.584 
" style="fill:none;stroke:#000000;stroke-linecap:square;stroke-linejoin:miter;stroke-width:0.8;"/>
   </g>
   <g id="patch_6">
    <path d="M 57.6 41.472 
L 414.72 41.472 
" style="fill:none;stroke:#000000;stroke-linecap:square;stroke-linejoin:miter;stroke-width:0.8;"/>
   </g>
  </g>
 </g>
 <defs>
  <clipPath id="p0a3856a6a1">
   <rect height="266.112" width="357.12" x="57.6" y="41.472"/>
  </clipPath>
 </defs>
</svg>
